<svg id="Layer_1" data-name="Layer 1" xmlns="http://www.w3.org/2000/svg" width="60" height="60" viewBox="0 0 679.4 641.73"><defs><style>.cls-1{opacity:0.24;}.cls-2{fill:#d8d8d8;opacity:0.62;}.cls-3{fill:#2c2c2c;}</style></defs><title>covid_logo</title><polygon points="303.35 183.43 303.35 183.43 303.35 183.43 303.35 183.43 303.35 183.43"/><path d="M311.47,288.34h0Z" transform="translate(-60.3 -79.14)"/><path class="cls-1" d="M413.14,162.38h0a1.08,1.08,0,0,0-.79.37c-.72,1-1.38,1.89-2,2.69-.29.38-.6.76-.9,1.14s-.86,1.07-1.29,1.62c-.72.92-1.48,1.91-2.2,2.93s-1.32,1.89-2,2.85l-.31.46-4.35-.44c-1.14-.12-2.28-.22-3.42-.31l-1.74-.12-.38,0-.62,0c-.48,0-1-.09-1.49-.1h-.21a4.9,4.9,0,0,0-1.08.1,8.79,8.79,0,0,0-.88.24l-.53.16a1.15,1.15,0,0,0-.69.91,1.15,1.15,0,0,0,.7,1.21c.86.23,1.7.48,2.55.73s1.78.52,2.68.76c.65.18,1.3.34,2,.5H396l-.34,0-1,.07-.39,0a15,15,0,0,0-1.76.2,1.16,1.16,0,0,0-1,1,1.2,1.2,0,0,0,.23.86,1.15,1.15,0,0,0,.76.43h.6c.54,0,1.09,0,1.64,0l-.29,0c1.65,0,3.3,0,5,0-.55.81-1.09,1.63-1.63,2.45-2,3-4.15,6.17-6.34,9.33l.18-.24-2.23,3.11c-.56.79-1.09,1.59-1.63,2.39l-.36.54-.14.22c-.61.91-1.23,1.82-1.82,2.74s-1.37,2.11-2.07,3.16-1.42,2.09-2.13,3.13-1.3,2-2,3c-1.56,2.45-2.78,4.3-4,6-1,1.43-1.94,2.9-2.88,4.33l-1.19,1.82c-.53.8-1.05,1.61-1.57,2.41-.79,1.24-1.6,2.52-2.45,3.75l0,0v0h0l-.08.09a43.93,43.93,0,0,0-3.29,5.17,26.31,26.31,0,0,0-1.27,2.81c-.12.32-.23.64-.34,1l-.51.65-.11.13-.75.74c-.42.43-.84.85-1.28,1.27s-.63.61-1,.91l-.34.32c-.24.23-.48.46-.74.67-.75.33-1.49.72-2.21,1.11l-.08,0-.7.38L353,245l-1.61.79-.46.22-3.38,1.54q-1,.46-2.1,1l-1.21.56c-1.39.63-2.77,1.33-4.1,2-.87.44-1.73.87-2.6,1.29l-.17.09c-1.58.75-3.15,1.54-4.72,2.32-1.37.68-2.75,1.34-4.12,2l-.36.17-.85.38c-.77.36-1.54.72-2.33,1l-3.5,1.49c-2.28,1-4.61,2-7,3.06L311,264.48c-1,.42-1.89.87-2.84,1.31l-.42.19c-1.17.55-2.35,1.07-3.53,1.6-.93.4-1.86.81-2.77,1.23-2.41,1.11-5,2.32-7.43,3.66-.75.4-1.49.81-2.23,1.22-1.71.94-3.48,1.91-5.24,2.83-1.05.5-2.11,1-3.17,1.47s-2.07.95-3.1,1.44c-2.27,1.08-4.48,2.28-6.93,3.62-.76.42-1.52.84-2.27,1.27-1.22.68-2.48,1.39-3.73,2.05q-3.57,1.89-7.16,3.73l-3.28,1.69-3.27,1.7c-2.08,1.06-4.25,2.2-6.64,3.48-2.56,1.36-5.2,2.67-7.75,3.94-1.82.91-3.63,1.81-5.44,2.74l-2.16,1.11-1.62.83c-4.11,1.94-8.77,4.14-13.11,6.6l-2.35,1.31-.89.5-1.25.7-1.64.93c-1.59.88-3.19,1.74-4.79,2.6l-2.17,1.18-3.53,1.92-1.07.59c.19-.86.37-1.74.53-2.62.2-1,.35-1.91.44-2.81a1.17,1.17,0,0,0-.39-1c.26-1,.53-2.09.8-3.15l.08-.24a5.31,5.31,0,0,0,.19-.65,1.5,1.5,0,0,0,0-.37v-.29a1.64,1.64,0,0,0-.13-.43,1.18,1.18,0,0,0-.92-.72h-.14a1.14,1.14,0,0,0-1.07.71l-.19.52c-.16.43-.31.86-.44,1.3l-.13.46-.13.44-.33,1.14-.32,1.11-.07.24-.08.25a2,2,0,0,0-.1-.61,2,2,0,0,0-.26-.5,1.79,1.79,0,0,0-.27-.29l-.11-.1a1,1,0,0,0-.69-.25,1.12,1.12,0,0,0-.93.44,2.83,2.83,0,0,0-.48,1.06l-.11.7c0,.31-.08.62-.11.93v.16a1.17,1.17,0,0,0,.7,1.22c0,.42-.07.85-.11,1.28l0,.42c0,.43-.08.86-.13,1.28-.13,1.12-.26,2.21-.38,3.3l-1.14.61c-.66.35-1.31.72-2,1.08l-.48.27-.9.53-.4.24-.44.26-.88.52-.72.45c-.61.37-1.25.76-1.84,1.18l-.4.27c-.28.19-.56.38-.83.59l-.41.33c-.38.3-.77.61-1.14.92a1.26,1.26,0,0,0-.49.71,1.17,1.17,0,0,0,.86,1.38l.27,0a.94.94,0,0,0,.61-.18l1.26-1,.33-.25c.15-.12.31-.23.47-.34l.23-.15.23-.17.49-.34.54-.34c.84-.53,1.69-1.06,2.54-1.57l1.13-.67.72-.43c.37-.22.74-.42,1.12-.63l.58-.32.18-.09.17-.1c-.06.5-.12,1-.17,1.51-.35,1.36-.71,2.71-1.06,4.07L192,335l-.62,2.37c-.22.86-.42,1.73-.62,2.61l-.3,1.24c-.42,1.76-.81,3.56-1.18,5.3l-.37,1.69c-.21,1-.39,2-.56,2.95l-.11.62c-.22,1.23-.42,2.52-.61,3.93a1.18,1.18,0,0,0,.22.85,1.14,1.14,0,0,0,.76.45h.15a1.17,1.17,0,0,0,.67-.22,1.93,1.93,0,0,0,0,.34,1.17,1.17,0,0,0,.7.93,1.26,1.26,0,0,0,.43.08,1.23,1.23,0,0,0,.91-.43,2.49,2.49,0,0,0,.49-1c.11-.39.19-.71.27-1l.13-.53.16-.64c.12-.48.23-.95.34-1.43l.08-.37c.21-.85.38-1.71.56-2.57l.13-.64.48-2.31a1.26,1.26,0,0,0,.56-.17c1-.58,1.95-1.13,2.92-1.69l.47-.26.5-.24c.78-.38,1.59-.77,2.41-1.1l2-.82c.4-.17.81-.32,1.22-.47l.62-.23c1.09-.41,2.2-.79,3.29-1.16s2.28-.78,3.41-1.21l1-.38,1-.39c.37-.14.73-.31,1.09-.47l.56-.26.58-.25c.45-.19.9-.38,1.33-.6l1.61-.8,4.18-2.09,2.78-1.39.86-.38.71-.31.46-.17.22-.07.78-.28.5-.18c.75-.27,1.5-.52,2.26-.77l.88-.29,1.26-.43.37.35a3.69,3.69,0,0,1,.33.62c.17.36.33.72.49,1.09s.37.86.57,1.29c-.07.75-.14,1.51-.22,2.26-.12,1.22-.24,2.44-.34,3.66l-.1.88-.06.46,0,.42c0,.28-.06.56-.11.84l-.15.93c-.11.65-.21,1.29-.33,1.93-.36,2-.73,4-1.11,6-.12.62-.25,1.23-.38,1.85l-.18.85c-.16.75-.33,1.51-.51,2.26l-.43,1.78-.43,1.79c-.13.56-.28,1.12-.44,1.69l-.21.8c-.54,2-1.09,4-1.64,6l-1.41,5.2c-.46,1.71-.9,3.44-1.34,5.16l-.42,1.69-.43,1.69c-.16.63-.3,1.28-.44,1.93l-.2.89-.25,1.16c-.32,1.44-.64,2.87-1,4.31l-.72,3.09-.6,2.53c-.24,1-.46,2.05-.68,3.08-.13.58-.25,1.17-.38,1.76-.46,2.08-.92,4.16-1.4,6.24-.36,1.61-.74,3.38-1.18,5.58-.26,1.35-.5,2.7-.73,4l-.27,1.53c-.12.67-.24,1.34-.37,2-.2,1.09-.41,2.19-.59,3.29-.31,1.82-.57,3.68-.82,5.48l-.05.32c-.4,2.85-.86,5.74-1.31,8.54l-.42,2.67c-.4,2.51-.66,5.09-.92,7.58-.11,1.14-.23,2.27-.35,3.4-.45,3.89-1,7.81-1.53,11.65-.26,1.78-.52,3.58-.76,5.37-.09.68-.18,1.36-.28,2-.16,1.18-.32,2.37-.46,3.55-.19,1.51-.39,3-.6,4.52-.11-.32-.24-.64-.38-1a15,15,0,0,0-.76-1.49,2.92,2.92,0,0,0-.8-.86,3.33,3.33,0,0,0-1-.52,2.42,2.42,0,0,0-.45-.1,3.23,3.23,0,0,0-.29-.43,1.2,1.2,0,0,0-.93-.46H204a1.21,1.21,0,0,0-.55.22,1.11,1.11,0,0,0-.45.76c0,.17,0,.34,0,.51l.09.34a1,1,0,0,0-.26.23,1.16,1.16,0,0,0,.2,1.61l.26.23.56.63c.25.78.56,1.55.86,2.3l.2.52c.21.51.41,1,.62,1.54l.2.5c.14.36.29.72.45,1.07l.63,1.33.34.7c.14.3.29.59.44.88-.16,1.14-.33,2.27-.47,3.42-.18,1.53-.34,3.07-.49,4.61l-.09.88c-.13,1.36-.17,2.76-.2,4.1v.21c0,.43,0,.87-.06,1.3l0,.71c0,.86-.05,1.72-.06,2.59a1,1,0,0,0,.32.74,1.2,1.2,0,0,0,.83.35,1.17,1.17,0,0,0,1.14-1.2c0-1.45.07-2.88.14-4.46,0-.42,0-.84,0-1.27v-.7c0-.62.06-1.24.11-1.87l.1-1.06c.14-1.38.28-2.76.44-4.13,0-.27.07-.54.11-.81l.63,1.16.45.85c.37.71.75,1.42,1.1,2.15.6,1.24,1.2,2.49,1.78,3.73s1.17,2.49,1.82,3.73a9.2,9.2,0,0,0,.67,1.33l.06.09a9.93,9.93,0,0,0,.59.94c.1.18.2.35.31.52.65,1,1.38,2,2.07,3l.86,1.15.26.35.07.09.07.1.43.68q.33.52.69,1l.25.37c.5.73,1,1.45,1.56,2.17l.53.74,2.72,3.69.37.51c.34.46.68.92,1,1.36l.48.6.47.61.31.38.09.1c.18.23.39.43.59.64a2.68,2.68,0,0,0,.52.36l.09.05c-.06.52-.12,1-.19,1.58l-.12,1c-.09.76-.18,1.54-.32,2.31a1.17,1.17,0,0,0,.87,1.37l.24,0a1.13,1.13,0,0,0,1.13-.89c.12-.67.2-1.36.28-2l.1-.8c.07-.54.13-1.08.19-1.62l.12-1,0-.24.23.24c.38.36.78.72,1.17,1.07l.55.48.79.7.07.08.07.08a1.27,1.27,0,0,0,.77.45h.15a1.17,1.17,0,0,0,.68-.22,1.13,1.13,0,0,0,.46-.77,1.1,1.1,0,0,0-.22-.83,17.75,17.75,0,0,0-1.67-1.58c-.32-.28-.64-.56-.95-.85-.6-.56-1.18-1.13-1.76-1.7v-.12l.27-2.34c.12-1.14.26-2.27.39-3.41.09-.69.17-1.38.25-2.06l.11-.93c.07-.6.14-1.21.2-1.81s.09-.92.13-1.37.07-.83.11-1.24l.18-1.53c.06-.42.11-.83.15-1.24l.24-2.05.08-.64,0-.33c.21-1.78.42-3.62.75-5.41.78-4.28,1.36-7.75,1.82-10.92.3-2.1.64-4.16,1-6.07.2-1.2.38-2.42.57-3.63.1-.71.21-1.41.32-2.12.3-1.9.6-3.79.92-5.68s.59-3.63.86-5.57l.41-2.83q.62-4.33,1.22-8.68c.16-1.14.31-2.29.45-3.44.11-.81.21-1.62.32-2.43.17-1.28.38-2.58.58-3.84l.3-1.84c.51-3.32,1.07-6.68,1.61-9.94l.2-1.19q.47-2.89,1-5.78c.3-1.71.63-3.41,1-5.11l.17-.89c.28-1.46.59-2.92.9-4.38l.25-1.17c.15-.68.32-1.36.49-2l.27-1.07c.18-.76.36-1.5.54-2.24q.75-3,1.46-6c.13-.56.28-1.12.43-1.69l.24-.93c.27-1.05.54-2.09.8-3.14.47-1.82.93-3.71,1.37-5.61l.24-1c.33-1.39.65-2.78.95-4.18.23-1.06.45-2.13.68-3.2.05-.25.09-.51.13-.77l.07-.38.17-1,.18-1c.29-1.73.58-3.52.87-5.47.23-1.55.44-3.09.65-4.64l.06-.44c.17-1.22.28-2.47.4-3.67l.09-1,.1-1c.11-1.15.23-2.31.31-3.46.09-.33.21-.68.36-1.08a9.46,9.46,0,0,1,.73-1.3,9.61,9.61,0,0,1,1.24-1.25l.48-.07.49-.08c.61-.1,1.21-.2,1.79-.33a17.23,17.23,0,0,0,1.74-.47c1.15-.37,2.31-.73,3.47-1.07a28.42,28.42,0,0,0,3.26-1.12l.56-.22.23,0c.36,0,.71,0,1.07.06s1,0,1.5.09a4.26,4.26,0,0,1,.62.13c.29.22.55.43.8.65l0,.16,0,.18c.12.76.22,1.34.34,1.88.08.39.17.77.26,1.15l.12.55c.22.95.41,1.9.59,2.86l0,.22c.44,2.44.83,4.92,1.21,7.33.13.87.27,1.75.41,2.63.25,1.55.54,3.2.93,5.34.25,1.37.55,2.74.84,4.07l.25,1.18c.32,1.44.62,2.89.92,4.33l.14.69q.33,1.57.69,3.15c.15.69.31,1.39.46,2.09.31,1.42.62,2.83.94,4.24l.18.83c.34,1.51.71,3.13,1.13,4.75.35,1.34.74,2.7,1.12,4l.3,1.05c.2.7.39,1.39.58,2.09.26.95.52,1.89.8,2.83.57,1.92,1.1,3.64,1.62,5.25.22.68.45,1.35.67,2,.32,1,.64,1.91.94,2.87.23.73.48,1.45.72,2.17s.55,1.61.8,2.43c.6,1.89,1.12,3.46,1.64,4.92.46,1.29,1,2.59,1.47,3.85l.37.93c.59,1.5,1.15,3.05,1.71,4.73l.28.84c.44,1.31.88,2.63,1.31,4,.57,1.76,1.14,3.53,1.69,5.3,1.15,3.71,2.15,7,3.05,10.05.37,1.28.74,2.56,1.12,3.84.58,2,1.16,4,1.76,6,.5,1.67,1,3.34,1.45,5s1,3.35,1.45,5l.2.66c.45,1.51.91,3,1.38,4.54.38,1.24.74,2.48,1.1,3.72l.38,1.3.25.86c.88,3,1.79,6.11,2.76,9.14l.14.42.13.42c.05.6.12,1.19.19,1.79s.12.93.21,1.39c0,.21.09.41.14.62s.09.38.13.57l.06.41.06.36,0-.26a31.16,31.16,0,0,1,.27,3.86l0,.61a16.89,16.89,0,0,1-.08,1.88l0,.29-.06.82c0,.39-.05.78-.08,1.16v.19h0v.05h0v.05a1.32,1.32,0,0,0,0,.16c-.4,1.28-.86,2.56-1.3,3.8-.28.8-.57,1.6-.84,2.41l-.69,2c-.5,1.5-1,3-1.53,4.48l-.72,1.86c-.14.37-.3.74-.46,1.11l-.18.41c-.52,1.23-1.05,2.46-1.59,3.68q-1.08,2.5-2.13,5l-.57,1.35c-1.21,2.85-2.39,5.77-3.53,8.6-.79,1.94-1.58,3.89-2.38,5.83l-.26.64c-.34.81-.68,1.63-1,2.45s-.63,1.64-.94,2.46l-.36.94c-.9,2.39-1.78,4.83-2.63,7.19l-.11.29-.48,1.35a1.13,1.13,0,0,0-.12.21c-.05.11-.1.22-.14.33a1.1,1.1,0,0,0-.8.61c-.06.14-.11.29-.16.44a6.15,6.15,0,0,0-.33,1,1,1,0,0,0,0,.55l-.06.18-.5,1.46.11-.26-.53,1.46-.51,1.45c-.81-.39-1.65-.76-2.48-1.13l-.3-.13-.79-.42c-.19-.1-.37-.18-.55-.26l-.28-.14-2.12-1-2.13-1-.29-.14c-.3-.14-.59-.29-.88-.45l-.17-.1a9.09,9.09,0,0,0-1.19-.64,2.84,2.84,0,0,0-.75-.18h-.45a1.1,1.1,0,0,0-.57.23,1.13,1.13,0,0,0-.42,1.37,1.69,1.69,0,0,0,.27.46,4.79,4.79,0,0,0,.47.43,2.78,2.78,0,0,0,.34.26l.13.1.64.44.18.12c.45.3.91.59,1.37.86q1.89,1.13,3.81,2.22c1.69,1,3.37,1.87,4.94,2.69,0,.09-.07.18-.1.27a1.14,1.14,0,0,0,0,.58,1.32,1.32,0,0,0,.31.48l-.16.56c-.24.89-.49,1.81-.79,2.69l-.11.26a1.16,1.16,0,0,0,.49,1.54,1,1,0,0,0,.52.13,1.13,1.13,0,0,0,1-.61,13.74,13.74,0,0,0,.66-1.93l.23-.83.23-.82c.09-.34.18-.66.27-1,.64.34,1.3.66,2,1L301,581.9l.41.2.74.36,1.58.7c1.47.66,2.93,1.31,4.38,2,1,.59,1.94,1.19,2.9,1.8l6.75,4.27,2.33,1.47.75.47.52.32.48.29.13.08.34.21a3.16,3.16,0,0,0,.57.3,1.45,1.45,0,0,0,.47.08h.23a1.15,1.15,0,0,0,1-.84q2.08,1.36,4.2,2.7c.25.16.51.29.77.43l.14.07a.8.8,0,0,0,.41.1,1.2,1.2,0,0,0,.93-.45,1.1,1.1,0,0,0,.24-.84,1.25,1.25,0,0,0-.43-.77c-.28-.26-.59-.54-.93-.8s-.7-.51-1.06-.75c-.83-.56-1.69-1.07-2.5-1.54s-2.05-1.19-3.19-1.77c-1.28-.82-2.57-1.61-3.87-2.41l-1.79-1.11-.66-.38-.25-.13-.75-.42-.49-.27c.43-1.43.78-2.53,1.15-3.57.46-1.21.86-2.21,1.26-3.15l.33-.77c.13-.29.26-.58.38-.87l.28-.67.39-1c.51-1.19,1-2.37,1.51-3.56.23-.54.45-1.08.67-1.62l.27-.7c.07-.18.14-.36.2-.54l.05-.11.06-.17a1.46,1.46,0,0,0,.07-.19l.05-.13.06-.17,0-.11h0a1.08,1.08,0,0,0,.11-.28l.11-.29c.55-1.49,1.1-3,1.63-4.47.24-.67.48-1.34.71-2s.58-1.66.88-2.48c.43-1.16.86-2.29,1.26-3.45.23-.67.46-1.36.68-2l.5-1.5.41-1.22c.24-.74.49-1.48.74-2.22.36-1,.73-2,1.1-3.08l.12-.33c.27-.75.53-1.51.8-2.26l.33-.94c.26-.74.5-1.49.74-2.23l.28-.85c.74-2.27,1.5-4.47,2.25-6.56s1.49-4,2.23-6l.31-.84-.07.13c.7-1.84,1.47-3.68,2.22-5.46l.51-1.24c.52-1.22,1-2.45,1.51-3.69a1,1,0,0,0,.76-.56c.29-.59.56-1.21.83-1.91a12.93,12.93,0,0,0,.54-1.76,17,17,0,0,0,.27-1.68,12.62,12.62,0,0,0,.09-1.93,18.8,18.8,0,0,0-.63-3.71c-.12-.51-.26-1-.4-1.54s-.32-1.2-.46-1.8c-.26-1.09-.57-2.39-.93-3.7-.08-.31-.18-.61-.27-.91s-.16-.49-.23-.74c-.18-.61-.37-1.21-.57-1.81-.39-1.16-.79-2.32-1.19-3.47l-.21-.59c-.13-.37-.26-.74-.38-1.12l-.18-.58c-.13-.41-.26-.83-.4-1.24l-.9-2.8-.27-.84c-.23-.73-.45-1.48-.67-2.22-.13-.47-.27-.93-.41-1.39-.55-1.82-1.07-3.67-1.58-5.47-.21-.75-.42-1.5-.64-2.26s-.39-1.43-.58-2.15c-.14-.54-.28-1.07-.43-1.61-.27-1-.52-2-.76-3l-.19-.74c-.15-.6-.31-1.19-.46-1.79s-.36-1.38-.53-2.07c-.29-1.13-.58-2.26-.88-3.39l-.12-.47c-.35-1.28-.67-2.57-1-3.86s-.66-2.57-1-3.86c-.4-1.51-.78-3.05-1.14-4.54-.24-1-.47-2-.72-2.94-1-3.83-1.82-7.76-2.64-11.56-.28-1.3-.56-2.6-.85-3.91-.37-1.67-.72-3.48-1.08-5.53v.09c-.17-1.14-.39-2.45-.65-3.78l-.11-.58c-.21-1.06-.41-2.11-.63-3.16l-.06-.26c-.12-.59-.24-1.18-.4-1.76s-.31-1.13-.48-1.7c-.34-1.13-.71-2.26-1.08-3.38l-.11-.36c-.23-.7-.46-1.4-.68-2.1l-.4-1.27q-.5-1.53-1.05-3.06c-.06-.18-.12-.37-.19-.55s-.21-.63-.33-.94-.22-.57-.34-.86-.19-.47-.29-.71l-.14-.35-.27-.68-.51-1.83c0-.13-.06-.26-.08-.39l-.12-.73a1.57,1.57,0,0,0-.05-.3l0-.11,0-.11a1,1,0,0,0-.31-.49c-.32-1.16-.65-2.32-1-3.49l-.32-1-.31-1c-.17-.55-.3-1.11-.44-1.66l-.13-.52q-.36-1.48-.69-3c-.11-.5-.22-1-.34-1.49-.26-1.11-.55-2.21-.85-3.32l-.25-.94-1.2-4.69-.19-.76c-.19-.76-.42-1.57-.71-2.55-.22-.71-.4-1.47-.59-2.39-.12-.66-.23-1.33-.34-2a1.34,1.34,0,0,0,.42-.65,3.19,3.19,0,0,0,.06-.54v-.56l1.05-3.25c.24-.71.46-1.42.69-2.13.15-.5.31-1,.47-1.49,1-.3,2.1-.65,3.19-1.06s2.43-.94,3.56-1.4c1.45-.6,2.91-1.17,4.37-1.75l2.52-1,1.89-.74c1.57-.61,3.19-1.24,4.75-1.95,2.33-1.07,4.68-2.19,6.95-3.28l.34-.17c2.06-1,4.21-1.93,6.57-2.93s4.53-1.9,6.8-2.83c1.29-.52,2.58-1,3.88-1.53l1.3-.49,1.73-.65,2.56-1,4.55-1.79.54-.21,1-.4.2,0a1.1,1.1,0,0,0,.31,0l.42-.15L366,329l.36-.12.36-.12,1-.35.42-.14c1.17-.39,2.2-.73,3.17-1s1.89-.56,2.93-.8c.58-.13,1.17-.26,1.76-.37.42-.08.83-.15,1.25-.21.81-.1,1.62-.18,2.44-.25l.87-.07c.59,0,1.19,0,1.79.08l1.54.12,1.71.14,3.12.3c.7.09,1.4.21,2.09.32l.35.06.86.14a6,6,0,0,1,.92.27,20,20,0,0,1,2.12,1.06c.42.25.81.51,1.17.77l.14.12,1.63,1.3,1.17.92,1.54,1.23,1.42,1.13c.72.59,1.49,1.14,2.24,1.68l.8.58c1.69,1.23,3.38,2.52,5,3.76l.82.62.66.5c.76.59,1.55,1.19,2.36,1.72l1.11.73c.65.41,1.29.83,1.93,1.25l1.65,1.1.44.29c.34.23.68.46,1,.66s1.07.62,1.65.91,1.18.59,1.78.87l1.08.52c.78.37,1.56.73,2.33,1.12.94.47,1.87,1,2.77,1.51l.35.2c.72.41,1.68.94,2.68,1.39l.45.19,1.26.57c.51.37,1.05.78,1.56,1.22.29.26.56.55.82.83l.18.2c.24.26.46.53.69.8l.06.07c.37.5.71,1,1.05,1.53l.31.47c.23.35.45.71.67,1.06s.2.57.29.86l1.23,3.75c.36,1.13.7,2.29,1,3.41s.71,2.46,1.11,3.67.75,2.29,1.1,3.43l.17.53c.29.95.59,1.91.9,2.86.66,2,1.43,4.15,2.4,6.82.4,1.1.81,2.19,1.22,3.28s.89,2.37,1.32,3.56l.38,1.06c.68,1.87,1.38,3.8,2.15,5.67l.14.32c.85,2.09,1.74,4.25,2.42,6.44l.3.95c.57,1.82,1.16,3.69,1.83,5.51.24.65.49,1.29.74,1.93l.57,1.48c.26.68.51,1.37.76,2.06l.44,1.21c.4,1.09.76,2.17,1.17,3.37.29.86.58,1.72.88,2.57l.27.76.26.75c.29.85.59,1.71.91,2.56l1,2.58.31.81c.41,1.12.77,2.27,1.07,3.24l.44,1.44c.2.64.4,1.29.59,1.93s.36,1.19.51,1.79c.08.34.16.69.23,1s.09.41.13.61l.14.62c.09.4.18.8.28,1.19s.19.75.29,1.12l.17.63c.29,1.13.57,2.27.83,3.41s.59,2.38.89,3.43.65,2.09,1.09,3.37c.19.53.37,1.07.54,1.61s.34,1.07.52,1.59c.28.84.54,1.69.79,2.53l.22.73c.41,1.35.76,2.45,1.1,3.47l0,.11a3.35,3.35,0,0,0,.25.62c0,.58,0,1.11.06,1.64s.05,1.25.07,1.87v.9c0,.65-.07,1.31-.12,2s-.09,1.08-.14,1.62l-.06.75-.27,1.16c-.22,1-.45,2-.68,3-.3,1.28-.63,2.57-1,3.82l-.19.72c-.33,1.3-.62,2.59-.94,4l-1.11,5c-.59,2.65-1.19,5.51-1.82,8.73l-.22,1.13c-.52,2.63-1.06,5.35-1.51,8l-.3,1.79c-.14.82-.27,1.64-.42,2.46-.26,1.48-.54,3-.83,4.44s-.59,3.08-.86,4.62c-.11.58-.2,1.15-.3,1.73-.15.89-.3,1.79-.46,2.68-.25,1.29-.52,2.59-.78,3.88l-.1.46-.21,1c-.23,1.1-.48,2.24-.66,3.38-.09.55-.17,1.11-.25,1.67-.13.87-.26,1.77-.42,2.65l-.9,4.94c-.27,1.52-.52,3.05-.78,4.57s-.51,3-.78,4.57c-.21,1.15-.45,2.32-.69,3.45l-.21,1-.3,1.4c-.19.92-.39,1.84-.58,2.76l-.25,1.2c-.23,1.1-.47,2.24-.67,3.38l-.18,1.11c0,.29-.09.58-.13.86l-.42,2.43c-.14.84-.31,1.67-.47,2.5-.12.6-.24,1.2-.35,1.8-.17.91-.32,1.83-.47,2.74-.08.51-.16,1-.25,1.51-.38,2.25-.69,4.48-.94,6.64-.9.24-1.58.43-2.21.64a10.19,10.19,0,0,0-1.26.45c-.18.09-.35.17-.53.28a3.49,3.49,0,0,0-.32.25l-.1.1a2.09,2.09,0,0,0-.37.5,1.41,1.41,0,0,0-.2.75,1.26,1.26,0,0,0,.18.63,1.1,1.1,0,0,0,.2.23,1.12,1.12,0,0,0-.39,1,1.17,1.17,0,0,0,.72.9l.13,0a1.59,1.59,0,0,0,.38.07l.17,0,.49-.13c.15-.05.29-.09.43-.15s.51-.18.76-.27l.38-.14,1-.4-.06.44-.12,1c-.1.83-.19,1.66-.3,2.49l0,.38c-.12.95-.25,1.93-.41,2.89-.08.52-.17,1-.25,1.54-.05.28-.1.56-.16.83l-.06.35a.91.91,0,0,0-.24.2,1.2,1.2,0,0,0-.3.83,1.29,1.29,0,0,0,.37.79,1.34,1.34,0,0,0,1,.42,1.23,1.23,0,0,0,.39-.06,1.52,1.52,0,0,0,.9-1.05,6.74,6.74,0,0,0,.2-.89l.05-.26.24-1.43.12-.73c.26-1.51.44-3,.59-4.36.08-.73.16-1.46.25-2.19s.17-1.46.25-2.19l1.23-.51.17-.07c1.07-.42,2.19-.85,3.3-1.22l3.79-1.27c.82-.27,1.63-.57,2.43-.87l1.51-.41,5.47-1.46,1.24-.31c.84-.22,1.69-.43,2.53-.66s1.77-.53,2.63-.8l1.21-.38.21-.06.21-.07,1.4-.38,1.41-.38-.07.61c-.07.78-.14,1.56-.2,2.35,0,.41-.08.82-.13,1.24l0,.32a9.27,9.27,0,0,1-.19,1.27,1.13,1.13,0,0,0,0,.74,1.11,1.11,0,0,0,.56.66,1.09,1.09,0,0,0,.53.13,1,1,0,0,0,.36-.05,1.08,1.08,0,0,0,.66-.56,4,4,0,0,0,.25-.89l.06-.48c.05-.4.09-.74.13-1.07.08-.67.13-1.35.18-2l0-.33,0,.14.25-2.71.39-.11c.64-.18,1.29-.37,1.92-.57l.68-.22,1.69-.54c2.1-.56,4.22-1,6.21-1.34a1.16,1.16,0,0,0,1-1.3,1.17,1.17,0,0,0-1.12-1H497l-.62.12-.63.12.1,0,.1,0,.53-.26.26-.14q.46-.24.9-.51a3.53,3.53,0,0,0,.77-.67,1.13,1.13,0,0,0,0-1.41,1.07,1.07,0,0,0-.88-.43,1.5,1.5,0,0,0-.47.08l-.24.08a1.16,1.16,0,0,0-.18-.61,1.21,1.21,0,0,0-.74-.51l-.23,0a1.15,1.15,0,0,0-.62.18l-.19.15c-.23.14-.49.26-.74.38l-.37.18-.64.32-.65.32a.9.9,0,0,0-.53-.2,1.27,1.27,0,0,0-.74.18,1.08,1.08,0,0,0-.62-.37,1,1,0,0,0-.25,0,.94.94,0,0,0-.61.18l-.15.13a11,11,0,0,1-1.27,1c-.37.25-.76.49-1.14.72l-.22.14c.08-1,.15-2,.2-3s.06-1.69.09-2.54l.05-1.38c0-.93.06-1.86.08-2.79.05-1.69.1-3.45.2-5.17.08-1.39.17-2.79.25-4.18.05-.87.12-1.73.19-2.6l.1-1.28q.24-3.16.52-6.33c.24-2.72.5-5.43.77-8.15.09-.84.2-1.68.31-2.53.05-.42.11-.85.16-1.27.11-1,.23-1.93.35-2.89l.16-1.27c.21-1.66.43-3.31.64-5l.45-3.39c.13-1,.25-2,.37-3.06l.13-1c.12-1,.27-2,.43-2.95l.15-1c.15-1,.33-1.9.5-2.84l.21-1.15c.11-.59.23-1.19.35-1.78s.27-1.32.39-2c.21-1.21.41-2.42.58-3.63l.09-.63c.16-1.1.33-2.23.53-3.34l.1-.52c.2-1.1.41-2.19.58-3.29.07-.41.13-.82.2-1.23.16-.92.31-1.84.43-2.76.22-1.59.37-2.91.47-4.17s.17-2.58.24-3.9c.09-1.7.18-3.4.28-5.1l0,.1.05-.42c.07-.9.15-1.8.21-2.69v-.09c.06-.93.13-1.91.12-2.86v-2l.69-1c.56-.79,1.09-1.59,1.63-2.39.42-.6.84-1.2,1.27-1.79,2.91-1.34,5.86-2.72,8.76-4.1,2.58-1.23,5.17-2.56,7.66-3.84L521,456l.07,0,.28-.13.27-.13.41-.2.6-.29.07,0h0l2.24-1,1-.43c.93-.42,1.92-.84,3.22-1.36l.13-.05c2.17-.88,4.43-1.8,6.62-2.75l2.58-1.12c1.59-.7,3.19-1.39,4.78-2.07,2.21-.95,4.41-1.92,6.46-2.83,1.34-.6,2.66-1.22,4-1.83l3.07-1.43c1.66-.75,3.39-1.42,5.07-2.07l1.6-.62c1.07-.41,2-.81,2.93-1.22s1.76-.81,2.64-1.22l.19-.09c1.72-.8,3.42-1.62,5.13-2.45l.84-.4c.79-.38,1.59-.74,2.39-1.11,1.49-.69,3-1.4,4.54-2.15l3.08-1.55,3.33-1.67c2-1,4.05-2.14,6-3.25l.12-.07c.92-.52,1.92-1.06,3.13-1.69.75-.38,1.5-.79,2.24-1.2l1-.54.85-.46,0,.27,0,.28c-.07.62-.17,1.23-.27,1.85l-.1.7c-.08.5-.17,1-.26,1.5l-.13.73c-.17.94-.33,1.88-.5,2.82a1.15,1.15,0,0,0,.89,1.35.9.9,0,0,0,.23,0,1.15,1.15,0,0,0,1.13-.91l.22-1.24,0-.21a1,1,0,0,0,.55.15,1.17,1.17,0,0,0,1.12-.92v-.12a1.09,1.09,0,0,0,.56.22h.26a1.18,1.18,0,0,0,.19.11,1.12,1.12,0,0,0,.4.07,1.27,1.27,0,0,0,.72-.24,1.12,1.12,0,0,0,.47-.67,2.5,2.5,0,0,0,.06-.86c0-1.26.09-2.53.13-3.79,0-.6,0-1.17,0-1.74s0-1,0-1.5v-.94c0-.92,0-1.87.1-2.81l.07-1c0-.89.11-1.77.19-2.66l.26-2.61.05-.49c0-.32.06-.65.1-1l.26-2.16.27-2.17.63-4.95.32-2.59c.1-.76.2-1.52.29-2.28a1.09,1.09,0,0,0-.24-.83,1.17,1.17,0,0,0-.78-.44H609a1.15,1.15,0,0,0-1.14,1l0,.25,0,.25a.89.89,0,0,0-.29-.22,1.11,1.11,0,0,0-.5-.12,1.25,1.25,0,0,0-.86.38,1.91,1.91,0,0,0-.47.77h-.14a1.17,1.17,0,0,0-.45.09,1.25,1.25,0,0,0-.62.64,3.72,3.72,0,0,0-.27,1.24v.14c0,.29,0,.58,0,.86v.12c0,.56,0,1.12,0,1.68l0,1.61v.54c0,.21-.08.43-.11.65l-.76.3-1,.39c-1,.4-1.9.81-2.85,1.23l-.55.24-1.16.52c-.69.32-1.38.63-2.08.91-.95.39-1.88.8-2.81,1.21l-.67.29-1,.44c-.76.34-1.52.68-2.28,1-1.24.54-2.49,1.05-3.74,1.56l-.09,0-1.76.71c-1.55.62-3.15,1.26-4.71,1.94l-7.15,3.12c-1.41.61-2.81,1.24-4.22,1.87l-2.27,1-1.34.6c-1.88.84-3.82,1.7-5.74,2.52q-3.62,1.53-7.21,3.1c-1.61.71-3.33,1.5-5.57,2.55-1.11.52-2.21,1.06-3.32,1.6l-1.73.85-.81.38q-1.12.54-2.25,1.05l-2.09.93c-.38.17-.77.33-1.16.48l-.57.22c-1,.41-2,.81-3.09,1.19l-1.23.46-.9.33c-.35.13-.69.27-1,.42l-.56.24c-.41.16-.82.36-1.22.55l-.29.13-.45.21-1.52.71c-1.21.57-2.4,1.16-3.59,1.76s-2.19,1.13-3.27,1.72c-.73.39-1.47.75-2.21,1.11l-.89.44-2.37,1.17a1.27,1.27,0,0,0-.23.12l-.38.18a1.46,1.46,0,0,0-.28.13c-.36.17-.73.31-1.1.45l-.32.12-.89.34-.9.34-3.43,1.32c-1,.39-2,.78-3,1.2l-.92.38c-.83.35-1.66.69-2.48,1.06l-2.35,1.07c-.56-.06-1.13-.14-1.69-.23l-1.62-.28-.73-.13a11.84,11.84,0,0,1-1.32-.26c-.21-.08-.41-.18-.6-.27-.16-.47-.31-.95-.46-1.43l-.25-.77c-.37-1.14-.7-2.32-1-3.46l0-.13c-.31-1.11-.66-2.22-1-3.35s-.71-2.15-1.16-3.37c-.2-.54-.41-1.08-.62-1.63s-.42-1.08-.62-1.62c-.82-2.22-1.67-4.52-2.43-6.84l-.42-1.26c-.27-.8-.53-1.61-.78-2.42L479,419c-.26-.81-.51-1.62-.75-2.44l-.37-1.31c-.57-2-1.16-4.08-1.7-6.13-.68-2.6-1.27-5.28-1.77-7.58-.09-.38-.17-.77-.25-1.16-.15-.68-.3-1.37-.46-2.05l-.9-3.79q-.36-1.51-.69-3c-.14-.63-.25-1.26-.37-1.9l-.13-.73c-.18-1.07-.38-2.13-.57-3.19l-.27-1.48c-.33-1.83-.67-3.72-1-5.59-.38-2.48-.76-5-1.11-7.46-.17-1.12-.36-2.25-.55-3.37l0-.22c-.18-1.05-.44-2.11-.69-3.13l-.13-.55c-.09-.36-.17-.72-.25-1.08-.18-.77-.36-1.54-.56-2.3-.33-1.18-.64-2.36-1-3.55s-.69-2.62-1-3.93l.12-1.09c.2-1.54.27-3.06.31-4.22l.13-.3c.18-.4.36-.81.53-1.22.56-1.39,1.11-2.85,1.62-4.37.33-1,.67-1.91,1-2.86l.48-1.35c.18-.53.37-1.06.56-1.58s.51-1.28.77-1.91l.19-.46c.22-.54.43-1.07.67-1.6.54-1.2,1.14-2.4,1.71-3.56l.28-.57c.21-.42.43-.84.65-1.25l.42-.79c.32-.62.64-1.24.95-1.87.67-1.37,1.34-2.7,2.07-4l.4-.68q.38-.63.72-1.26l1.06-2c.76-1.38,1.49-2.81,2.18-4.23s1.31-2.71,1.91-4.08c.25-.56.5-1.12.76-1.68.39-.87.78-1.74,1.15-2.61.59-1.39,1.2-2.76,1.82-4.14.38-.86.74-1.72,1.11-2.59.2-.49.41-1,.62-1.48.84-1.95,1.78-3.9,2.69-5.78.41-.86.83-1.73,1.24-2.6q1.13-2.38,2.23-4.77c.49-1.05,1-2.09,1.6-3.09l.44-.82c.79-1.45,1.56-2.92,2.32-4.39.32-.61.6-1.25.88-1.88l.14-.32.93-2.09c.24-.52.46-1,.69-1.56l.22-.51.35-.79c.18-.42.37-.84.54-1.27l.43-1c.45-1.1.92-2.24,1.41-3.34s.93-2.09,1.38-3.14l.55-1.25.32-.74c.49-1.11,1-2.26,1.53-3.38l1.11-2.28L510.8,248l.65-1.37c.4-.84.8-1.67,1.21-2.5.12-.26.24-.52.37-.77.23-.48.46-1,.71-1.44l1.21-2.31c.19-.38.4-.75.6-1.12l.45-.8.35-.64.74-1.37c.48-.93,1-1.85,1.49-2.76l.14-.26c.22-.38.42-.76.62-1.15.35-.65.7-1.31,1.08-1.95l.46-.76c.41-.69.84-1.39,1.21-2.11.64-1.22,1.18-2.51,1.65-3.65a1.23,1.23,0,0,0,.08-.89,1.14,1.14,0,0,0-.35-.51c.29.21.59.41.89.6l1.46.94.07.05a15.9,15.9,0,0,0,1.64.91,2.83,2.83,0,0,0,1,.25h.14a4.76,4.76,0,0,0,.65-.06l.25,0,.15,0,1.38.9c.57.37,1.17.7,1.7,1l.82.44.45.24a4,4,0,0,0,.84.32,1.89,1.89,0,0,0,.49.05h.35a1.18,1.18,0,0,0,.91-.71,1.16,1.16,0,0,0-.38-1.35,17.32,17.32,0,0,0-2-1.27l-.43-.25-1-.57-.67-.38L531,222l-1.61-.91-3.12-1.79-.13-.08-.19-.12L521,215.9l-.41-.27q-3.48-2.31-7-4.6c.46-1,.93-2,1.4-2.93l.08-.16a1.13,1.13,0,0,0-1-1.67,1.13,1.13,0,0,0-1,.61l-.18.38c-.41.83-.81,1.67-1.19,2.51l-.72-.48-.73-.48L506.43,206l-.2-.15-.61-.46-.22-.17-.1-.07c1.42.72,2.84,1.42,4.26,2.13a1,1,0,0,0,.42.09,1.21,1.21,0,0,0,1.08-.72,1.16,1.16,0,0,0-.63-1.5l-4.69-2.32-.58-.28-.86-.43-.83-.43c-.4-.21-.8-.42-1.21-.61a10.43,10.43,0,0,0-1.92-.61l-.46-.11a.5.5,0,0,0-.18,0,1.2,1.2,0,0,0-.89.47,1.17,1.17,0,0,0,0,1.39.9.9,0,0,1-.15.24,1.14,1.14,0,0,0-.22.84,1.2,1.2,0,0,0,.45.77,13.53,13.53,0,0,0,1.92,1.35l.62.4,1,.63,1,.64,1.09.71.53.35.85.6,4.82,3.5c-.42,1.05-.83,2.1-1.23,3.16-.57,1.47-1.22,3-1.93,4.5-.41.86-.85,1.72-1.29,2.57-.28.55-.56,1.09-.83,1.64-.81,1.64-1.46,3-2,4.25-.36.78-.71,1.55-1.05,2.33-.17.38-.33.76-.49,1.15s-.23.57-.36.86c-1.5,3.5-2.7,6.37-3.75,9l-.63,1.56c-.37.92-.74,1.84-1.1,2.77-.26.65-.51,1.31-.76,2s-.62,1.61-.94,2.42q-1.11,2.79-2.23,5.58l-1.31,3.27c-.53,1.32-1.08,2.62-1.64,3.92l-.14.34c-.3.72-.62,1.45-.94,2.16-.18.4-.34.8-.51,1.21l-.39.95-.9,2-.08.17-.28.64q-.3.71-.63,1.38c-.91,1.85-1.6,3.27-2.22,4.62-.19.41-.38.82-.56,1.24-.45,1-.91,2-1.4,3q-1.14,2.28-2.32,4.55c-1.43,2.77-3,5.64-4.65,8.52-1.92,3.36-3.49,6.16-4.95,8.8l-.65,1.17-.64,1.18c-.3.54-.58,1.1-.86,1.66l-.27.54c-.68,1.36-1.37,2.73-2,4.11-.37.76-.74,1.52-1.12,2.27s-.59,1.23-.86,1.84l-.06.13c-.4.88-.81,1.75-1.21,2.62l-.88,1.9-.72,1.55c-1.12,2.45-2.27,5-3.46,7.44-.55,1.11-1.13,2.23-1.7,3.32l-.48.91c-.77,1.5-1.54,3-2.27,4.54-.28.56-.53,1.13-.79,1.69l-.16-.07-.53-.21-.46-.21-.31-.15-.53-.22-.53-.23-.29-.13c-.26-.11-.51-.23-.78-.33l-1-.38-.32-.11-.62-.23c-.4-.16-.78-.34-1.17-.52l-.66-.3c-.75-.33-1.47-.71-2.09-1l-.24-.13-1.75-.94-.77-.39-1.2-.63-.38-.2-1.71-.93L435,332c-.48-.25-.95-.49-1.42-.75-.75-.42-1.49-.85-2.23-1.29l-1.2-.68-.75-.42-1.74-1c-.8-.49-1.63-1-2.48-1.43l-.78-.42c-.48-.25-1-.5-1.43-.76-.68-.36-1.34-.75-2-1.14l-.15-.09-.5-.29-1.8-1c-.46-.26-.93-.5-1.41-.73l-.78-.4-1.23-.64c-1.09-.57-2.23-1.15-3.36-1.7-.59-.29-1.18-.54-1.78-.8l-.57-.24-2-.85-.31-.13-.75-.33a1.2,1.2,0,0,0-.26-.19l-.26-.19-.39-.28c-.36-.25-.74-.48-1.11-.71s-.62-.38-.92-.58-.44-.37-.66-.56a9.71,9.71,0,0,0-1-.76c-.29-.21-.58-.4-.88-.6s-.59-.39-.88-.6c-.66-.48-1.37-1-2.1-1.44a6.23,6.23,0,0,0-1-.48l-.38-.16-.21-.1L395,309.6l-.72-.34a19.18,19.18,0,0,0-2.73-1.09,21.13,21.13,0,0,0-3.67-.67,10.79,10.79,0,0,0-1.16-.07l-.45,0c-.31,0-.63.07-.94.11l-.38.06c-.6.08-1.22.12-1.81.16l-.46,0c-.69.05-1.41.13-2.2.25-.64.1-1.3.23-1.93.36l-.59.12a.8.8,0,0,0-.38.19l-.31,0q-.44,0-.84.09l-.11,0a.78.78,0,0,0-.22,0,1.1,1.1,0,0,0-.27,0l-.23,0-.44.07a50.38,50.38,0,0,0-6.13,1.53l-.16,0-.53.06-.47.06c-1.55.17-3.21.4-5.37.76-1.89.31-3.56.54-5.12.68s-2.78.31-4.12.52-2.71.38-4,.54l-.46.06-1.21.14-.82.09c-.64.07-1.33.17-2.09.31-1,.17-2,.37-3,.56l-1.12.23h-.08l-.07,0-1,.19-1,.19-2.14.31c-.87.12-1.74.24-2.6.38l-4.2.67-1,.16c-1.24.19-2.52.33-3.75.46l-1.29.14-2.55.27-2.93.32c-.66.07-1.33.17-2,.26-.51.07-1,.15-1.52.21-.67.08-1.35.18-2,.28l-1.42.2c-.83.11-1.64.25-2.46.38l-1,.16c-.84.14-1.69.31-2.54.47l-1.13.22c-1.2.21-2.49.42-3.78.56s-2.71.37-4.14.67l-2.35.53L292,322l-.14,0h0l-.1,0h-.09a15.82,15.82,0,0,1-2.24-.33l-1.39-.32-.07-.05-.11-.07-.42-.55q-.37-.7-.72-1.41l-.16-.34-.12-.25-.12-.25,0,0h0l0-.05h0l-.09-.18v0l-.57-1.15q-.29-.54-.54-1.08a.56.56,0,0,1-.05-.08.15.15,0,0,0,0,0h0s0,0,0,0h0l-.78-1.73a38.27,38.27,0,0,0-2.25-4.48l-.69-1.06c-.39-.6-.79-1.22-1.14-1.86a1.2,1.2,0,0,0,.4-1.25l0-.1a12.11,12.11,0,0,1-.13-2.22,2.18,2.18,0,0,1,.11-.44,3.18,3.18,0,0,1,.23-.4l.54-.61.23-.25c.6-.21,1.23-.38,1.83-.55l.65-.19,1.87-.54,3.36-1c1.28-.39,2.35-.74,3.39-1.17s2.07-.94,3.27-1.59c2.11-1.15,4.23-2.3,6.35-3.43l.86-.47c.66-.36,1.33-.71,2-1.06.83-.44,1.72-.88,2.9-1.45l2.45-1.17,1-.46,0,0,0,0,4.38-2c1.37-.63,2.75-1.26,4.11-1.91h0c2-.92,3.56-1.63,5-2.24l1.43-.61c.37-.15.72-.33,1.07-.5l.43-.21,2.33-1.13,2-.93,1.34-.62c1.21-.57,2.36-1.18,3.32-1.71,1.21-.67,2.44-1.33,3.66-2l1.87-.94,1.06-.52.24-.11c1.09-.55,2.18-1.09,3.25-1.67s2.21-1.18,3.3-1.77c2.1-1.13,4.32-2.3,6.6-3.47s4.47-2.28,6.72-3.4l.32-.15,2-.95.08,0,.44-.22,2.36-1.11.27-.13a8.08,8.08,0,0,0,1.49-.81l.57-.42c.24-.18.47-.36.71-.52s.57-.35.86-.51l.41-.23c.28-.16.56-.34.83-.52l.4-.27.12-.07c.45-.29.91-.58,1.34-.92l.73-.57.62-.47.53-.42c.53-.42,1.06-.84,1.61-1.23s1.32-1,2.19-1.69l.64-.5c.55-.43,1.11-.88,1.63-1.36l.84-.74.19.23c.54-.75,1.06-1.48,1.57-2.22,1.75-2.42,3.08-4.3,4.33-6.08l-.18.23c3-4.11,6.07-8.14,8.94-11.92l.62-.82c.54-.72,1.08-1.44,1.65-2.13.78-1,1.56-1.93,2.36-2.88l.67-.82c.55-.67,1.11-1.34,1.68-2l2.74-3.17,1.2-1.39,1.2-1.39c.42-.48.81-1,1.21-1.47l1-1.2c.37-.45.76-.9,1.14-1.35l1.29-1.53.76-.92c.55-.66,1.1-1.32,1.66-2l1.85-2.18,3.05-3.57q1.86-2.15,3.7-4.31l.94-1.1c1.34-1.57,2.73-3.19,4.14-4.79.42-.48.83-1,1.24-1.46.24-.28.48-.57.73-.85l.69-.83c.48-.59,1-1.2,1.51-1.76a1.13,1.13,0,0,0,.16-1.29l.33-.41.33-.42c1.26.06,2.31.09,3.29.09l1.17,0H444l2.89,0,.46,0c.22,0,.45,0,.68,0a2.91,2.91,0,0,0,.7-.07,1.91,1.91,0,0,0,.88-.43,2.28,2.28,0,0,0,.6-.95,1.89,1.89,0,0,0,.09-.93,1.82,1.82,0,0,0-.64-1.06,5.12,5.12,0,0,0-1.15-.68,5.6,5.6,0,0,1-.55-.27,33.58,33.58,0,0,0-3.51-1.66A1.2,1.2,0,0,0,444,177a1.19,1.19,0,0,0-1.08.71,1.24,1.24,0,0,0-.08.51l-.57-.05-.58,0-1.43-.12h-.1a1.14,1.14,0,0,0-.95-.83c-.39-.05-.85-.12-1.31-.14l-.81,0h-.5l-.55,0h-.28l-1.77-.06-1.3,0c-.8,0-1.59,0-2.38-.08l-4.46-.19-2.29-.14-.84-.06-.53,0-2-.22-5.32-.57-8.32-.83-.38,0,1-1.43,0,0c.55-.78,1.12-1.59,1.7-2.35s1.15-1.48,1.74-2.21c1.41-1.75,2.46-3.12,3.4-4.44a1.23,1.23,0,0,0,.3-.82,1.14,1.14,0,0,0-.38-.79,1.1,1.1,0,0,0-.78-.3Zm-2.67,15.41H410l-1.71,0h-.55c-1.07-.15-2.14-.31-3.2-.48,1.25.14,2.5.26,3.76.36l2.21.17ZM436,180.62l-1.9-.1c.67,0,1.34,0,2,0l-.1.08Zm6.39-.07-.3,0,.68,0h1.57l.37,0,1.52.09h.1a1.48,1.48,0,0,0,.39-.05l.11.05h0l.18.1a1,1,0,0,0-.24,0h-.17l-.89,0-1.94,0-2,0h-1.93l-.69,0H439l.07-.07.1-.13ZM284.2,320.26h0l-.32-.48.36.47-.05,0Zm98.18,2.82,1.88-.8a1,1,0,0,0-.17.61,1.57,1.57,0,0,0,0,.23c-.4,0-.81-.05-1.22-.05Zm-122,27.05v-.05h.5l-.24,0-.26,0Zm-2.32.59,0-.58,0,.56,0,0Z" transform="translate(-60.3 -79.14)"/><path class="cls-2" d="M393.06,195.81h-1.93a191.85,191.85,0,0,0-24.67,1.84c-1.1.15-2.19.31-3.28.48-3.81.58-7.67,1.3-11.47,2.14a188.88,188.88,0,0,0-20,5.54L328.31,207c-5.77,2.05-11.56,4.43-17.21,7.09l-.31.14c-2.39,1.13-4.71,2.29-7,3.45l-.19.1-.16.08c-2.58,1.36-5.12,2.76-7.56,4.17-3.07,1.79-6.16,3.7-9.18,5.7a191.37,191.37,0,0,0-18.07,13.49l-2.18,1.85c-3.08,2.65-6.11,5.44-9,8.31-3.76,3.7-7.46,7.64-11,11.72-1.74,2-3.44,4.07-5.08,6.12-2,2.5-4,5.12-5.86,7.76a191.06,191.06,0,0,0-12.38,19.68c-.6,1.09-1.19,2.18-1.77,3.28a193.58,193.58,0,0,0,16.26,205.45,194.16,194.16,0,0,0,83.56,64.41A191.44,191.44,0,0,0,355.89,580a195.62,195.62,0,0,0,36.64,3.61h1.07a196.58,196.58,0,0,0,35.54-3.31,193.2,193.2,0,0,0,66.22-25.72,197.3,197.3,0,0,0,27.79-20.91,193.16,193.16,0,0,0,24-26c3.64-4.74,7.1-9.71,10.3-14.75s6.11-10.2,8.94-15.76a193.68,193.68,0,0,0,13.25-33.59,194.75,194.75,0,0,0,0-107.84,193.13,193.13,0,0,0-32.89-64.63,194.64,194.64,0,0,0-53.34-47.55,192.78,192.78,0,0,0-95-27.75h-.13c-1.35,0-2.71-.05-4.06-.06ZM203.51,416.41c0-.32-.09-.64-.13-1l0-.2.15,1.16Zm165.38,163.4-.91-.11-.21,0,1.12.15Z" transform="translate(-60.3 -79.14)"/><path class="cls-3" d="M397.69,149.82c-3.63,0-7.44.09-11.33.26-7,.31-14.28,1-22.12,2.07-7,1-14.2,2.32-21.93,4.13a233.66,233.66,0,0,0-75.41,32.64A237.71,237.71,0,0,0,210,241.85c-3.66,4.74-7.3,9.86-10.81,15.21-1.9,2.88-3.78,5.92-5.6,9-.41.68-.81,1.37-1.21,2.06l-.75,1.29-.08.14-.08.14-.16.28-.15.27-.17.29a2,2,0,0,1-.14.25l-.09.17-.1.17-.06.13h0c-1.19,2.13-2.37,4.3-3.48,6.43-1.25,2.39-2.51,4.89-3.72,7.45-2.27,4.73-4.4,9.62-6.36,14.54-2.4,6-4.58,12.25-6.48,18.54-.12.4-.25.8-.36,1.2-1.09,3.63-2.11,7.37-3,11.13-1.06,4.34-2,8.8-2.84,13.25-1,5.27-1.79,10.74-2.42,16.25a236.76,236.76,0,0,0-1.47,32.66c0,1.55.09,3.1.16,4.66a235.28,235.28,0,0,0,2.2,23.56c.44,3.1.95,6.2,1.5,9.22a228.48,228.48,0,0,0,6.47,26.42c.24.82.49,1.63.75,2.44,1.84,5.81,4,11.67,6.32,17.42,2.68,6.58,5.73,13.17,9,19.56.56,1.08,1.12,2.16,1.7,3.23,2.52,4.7,5.27,9.42,8.18,14a234.64,234.64,0,0,0,15.11,21.25l1.14,1.43c3.64,4.53,7.56,9,11.63,13.35,4.38,4.67,9.07,9.26,13.93,13.65l.11.1.12.1c1.83,1.65,3.73,3.31,5.64,4.93,3.86,3.28,7.9,6.48,12,9.52A233.69,233.69,0,0,0,276.73,591c1,.58,1.95,1.16,2.94,1.72,4.49,2.59,9.16,5.07,13.89,7.37a234.36,234.36,0,0,0,22.63,9.63l2.93,1c5.16,1.82,10.47,3.48,15.78,4.92a229.16,229.16,0,0,0,23.36,5.1c1.4.24,2.81.46,4.22.67,4.69.7,9.5,1.27,14.31,1.68,6.67.59,13.53.89,20.4.89,1.68,0,3.39,0,5.08-.06,1.4,0,2.8-.06,4.2-.11,4.73-.17,9.52-.5,14.23-1a242.45,242.45,0,0,0,28.18-4.49l.1,0,1.87-.42.26-.05a235.9,235.9,0,0,0,80.73-35.73,238.26,238.26,0,0,0,61.31-61.59,235.62,235.62,0,0,0,41.06-124.52,240.53,240.53,0,0,0-2.33-43.52,235.33,235.33,0,0,0-28.82-83.26,238.78,238.78,0,0,0-25.22-35.81c-2.88-3.4-5.93-6.77-9.05-10A242.35,242.35,0,0,0,549.1,205c-5.22-4.39-11-8.78-17.1-13-5.7-4-11.94-7.9-18.53-11.64a238.12,238.12,0,0,0-39.67-17.81,234.09,234.09,0,0,0-43.42-10.34c-7-1-14.36-1.67-21.79-2-3.53-.17-7.2-.26-10.9-.26Zm-90.94,21.05.08,0,.07,0-1,.44.86-.37h0Zm62.43,15h0A213.74,213.74,0,0,1,396.26,184h1a209.59,209.59,0,0,1,27.12,1.81l-.15,0-.15,0a214.24,214.24,0,0,1,27,5.47A206.2,206.2,0,0,1,476.61,200h0A212.59,212.59,0,0,1,500.48,212,205.54,205.54,0,0,1,523,227.22l-.06-.07a217.19,217.19,0,0,1,19.46,17.19,208.6,208.6,0,0,1,17.19,19.48,215.1,215.1,0,0,1,14.8,21.83,207.18,207.18,0,0,1,12.12,24.06,211.66,211.66,0,0,1,9,26,205.49,205.49,0,0,1,5.37,26.51v-.16l0-.15a220,220,0,0,1,1.85,27.91,210.11,210.11,0,0,1-1.82,27.57A214.46,214.46,0,0,1,595.54,444a206.12,206.12,0,0,1-8.79,25.5,214.73,214.73,0,0,1-11.92,23.85,208.6,208.6,0,0,1-15.11,22.4l.07-.07a220.76,220.76,0,0,1-17.12,19.44,210.37,210.37,0,0,1-20.1,17.71,216.66,216.66,0,0,1-21.74,14.68,209,209,0,0,1-23.94,12l.13,0a213.74,213.74,0,0,1-25.59,8.85,207.38,207.38,0,0,1-26.5,5.43l-.09,0h-.11l-.1,0h.12a219.46,219.46,0,0,1-27,1.83h-1.11a210.82,210.82,0,0,1-27.07-1.8l.15,0c-4.45-.61-8.91-1.36-13.27-2.22s-9-2-13.94-3.3a206.59,206.59,0,0,1-25.73-8.93,214.7,214.7,0,0,1-23.44-11.76A210.14,210.14,0,0,1,271.48,553a215,215,0,0,1-19.58-17.17,208,208,0,0,1-17.79-20.12,213.91,213.91,0,0,1-15-22.22,206.08,206.08,0,0,1-11.85-23.64,211.38,211.38,0,0,1-8.86-25.59,205.71,205.71,0,0,1-5.4-26.48,212.56,212.56,0,0,1-1.87-27.2,209.57,209.57,0,0,1,1.8-28.13,212.3,212.3,0,0,1,4.75-24.22c1.12-4.31,2.39-8.63,3.77-12.83l.19-.58.14-.42c1.59-4.74,3.41-9.56,5.41-14.33.81-1.91,1.67-3.84,2.54-5.74l.06-.13.24-.51.17-.37,0-.12.06-.12.14-.31.15-.31c2.56-5.42,5.36-10.76,8.34-15.91a208.89,208.89,0,0,1,15-22.23,214.4,214.4,0,0,1,17.62-20c1-1,2-2,3-2.94A211.49,211.49,0,0,1,271.15,227a215.8,215.8,0,0,1,22.12-14.93c1.25-.74,2.55-1.47,4-2.26l.07,0,.07,0,.18-.1.35-.19c2.27-1.25,4.55-2.45,6.78-3.57l.2-.1.17-.08.13-.07.11,0,.1-.05.07,0,.23-.11c3.67-1.82,7.48-3.57,11.37-5.22l.41-.18.48-.19.21-.09.19-.08a212.69,212.69,0,0,1,23.72-8.14A205.57,205.57,0,0,1,369,185.91h.18ZM211.3,244.26v0l0,0-.4.51.32-.42h0l0,0h0ZM181,478.11v0l0,.06h0l.23.56-.23-.56h0v0Z" transform="translate(-60.3 -79.14)"/><path class="cls-3" d="M253.21,79.14h-.05a19,19,0,0,0-4,.47,10.81,10.81,0,0,0-1.76.53,18.9,18.9,0,0,0-1.92.89,36.35,36.35,0,0,0-3.44,2c-.53.36-1.08.71-1.62,1.06l-1.62,1.06c-1,.71-2,1.47-3.15,2.32-.81.62-1.6,1.26-2.39,1.9l-.83.67L229,92.76c-1.31,1-2.61,2.1-3.92,3.16l-2.36,1.92L221.33,99c-.56.43-1.11.87-1.66,1.32l-1.94,1.59-1.18,1-1.71,1.38-1.48,1.19c-.71.58-1.41,1.19-2.09,1.79l-.92.8L209,109.15l-1.71,1.47c-.23.21-.47.4-.71.59l-.69.57-.59.52-1,.87-1.73,1.52-1.14,1c-1,.92-2,1.84-2.89,2.74l-.38.39c-.82.84-1.64,1.68-2.44,2.54s-1.62,1.78-2.67,3-1.91,2.44-2.6,3.4q-.44.61-.84,1.26l-.22.33-.1.15a14.17,14.17,0,0,0-.9,1.5l0,.08c-.3.61-.62,1.24-.87,1.89l-.07.17a10,10,0,0,0-.54,1.6,8.1,8.1,0,0,0-.14,2c0,.29,0,.58.06.86l0,.19a6.4,6.4,0,0,0,.86,2.84,13.1,13.1,0,0,0,1.24,1.63c.37.43.74.86,1.13,1.27a14,14,0,0,0,1.38,1.24l.32.24.08.07.07.05-.05-.05a12.47,12.47,0,0,0,1.43,1c.55.32,1.14.61,1.65.86,1.34.65,2.72,1.19,3.77,1.59,1.22.45,2.42.89,3.68,1.22a33.11,33.11,0,0,0,4.1.83c.68.08,1.36.14,2,.2l.79.07c.87.08,1.74.18,2.61.29l1,.15c1.07.16,2.15.32,3.22.46l-.1,0c1,.15,1.94.33,3,.56s2.12.47,3.25.67l1.92.36c.46.09.92.2,1.37.31l.47.12a21.2,21.2,0,0,1,2.71.95l.6.24-.12-.06c1.41.61,2.82,1.27,4.2,2,.74.37,1.46.78,2.13,1.18a18.64,18.64,0,0,1,1.84,1.18,24.66,24.66,0,0,1,3.09,3c.49.65,1,1.31,1.42,2l.39.54c.67.94,1.27,1.92,1.92,3,.55.91,1,1.89,1.47,2.83l.15.31c.47,1,.93,1.94,1.37,2.93.15.37.29.74.43,1.11.31.81.61,1.62.95,2.42l.2.48.2.49.05.08h0a.94.94,0,0,0,.1.23l.06.16.15.35.15.35a1.08,1.08,0,0,0,.11.28c.26.6.43,1.05.58,1.49.25.76.49,1.52.73,2.28.18.55.35,1.1.53,1.65.42,1.29.85,2.57,1.28,3.85.12.38.25.77.38,1.15l.29.9c.09.28.19.55.28.82s.22.63.32.94c.39,1.19.75,2.42,1.13,3.77a29.57,29.57,0,0,1,.64,3.22l.13.79.05.3.05.3.11.83.1.73.06.54,0,.35a6.8,6.8,0,0,0,.71,2.64,1.17,1.17,0,0,0,1.57.41,1.16,1.16,0,0,0,.41-1.57L259,205a5.93,5.93,0,0,1-.32-1.39c-.05-.4-.1-.8-.14-1.19l.09.09a6.46,6.46,0,0,0,.91.59,6.2,6.2,0,0,0,1.2.49,3.33,3.33,0,0,0,.91.13,4.29,4.29,0,0,0,.86-.1,6.65,6.65,0,0,0,1.74-.66c.62-.33,1.14-.6,1.66-.91s1.06-.65,1.58-1c.7-.43,1.38-.91,2-1.37l.95-.65c1.05-.72,2.1-1.43,3.13-2.17.68-.49,1.2-.87,1.67-1.25s1-.82,1.54-1.24c1-.83,2-1.66,2.93-2.51l.26-.23c.82-.71,1.64-1.42,2.44-2.15.45-.4.85-.78,1.23-1.18a16,16,0,0,0,1.31-1.45,9,9,0,0,0,.69-1.21l.21-.41c.19-.36.37-.73.55-1.09l.2-.4c.13-.26.24-.53.35-.8l0-.09,0-.12c.09-.21.17-.42.24-.64a4.17,4.17,0,0,0,.16-1l.15.24,1.07,1.42.08.1a13.06,13.06,0,0,0,1.17,1.41,1.18,1.18,0,0,0,.82.33,1.14,1.14,0,0,0,.8-.33,1.16,1.16,0,0,0,0-1.62,9.28,9.28,0,0,1-.83-1l-1-1.33c-.44-.6-.89-1.21-1.34-1.8s-.88-1.17-1.33-1.75-.75-1-1.1-1.49c-.87-1.3-1.55-2.4-2.14-3.47l-.29-.52c-.59-1.06-1.21-2.16-1.74-3.27-1.22-2.54-2.12-4.51-2.94-6.37l-.07-.16c-.28-.69-.57-1.4-.82-2.11l-.16-.44c-.1-.3-.21-.59-.29-.89l-.22-.72-.21-.72c-.2-.66-.36-1.34-.51-2l-.12-.52a26.58,26.58,0,0,1-.5-2.69c-.16-1.27-.3-2.54-.44-3.82s-.17-2.76-.19-3.93c0-2.4,0-4.84,0-7.19v-.83c0-1.53,0-2.9,0-4.18,0-1,0-2.08-.05-3.12v-1.17c0-1.26,0-2.55-.14-3.82l-.05-.62c0-.49-.07-1-.13-1.48l-.21-2-.3-3.29c-.14-1.57-.28-3.2-.46-4.79-.15-1.4-.34-2.84-.55-4.39-.08-.52-.15-1-.23-1.58l-.08-.53c-.09-.59-.18-1.17-.3-1.73-.3-1.36-.64-2.77-1-4.19-.29-1.08-.65-2.16-1-3.21l-.2-.62c-.2-.59-.43-1.18-.66-1.77l-.06-.15c-.26-.66-.53-1.35-.86-2a24.89,24.89,0,0,0-3.59-5.27,15.75,15.75,0,0,0-1.91-1.81c-.31-.26-.64-.5-1-.74L262.3,83a6.22,6.22,0,0,0-.54-.35l-.19-.11-.83-.49-1.86-1c-.57-.31-1.13-.62-1.69-.87a12.8,12.8,0,0,0-2-.7,7.91,7.91,0,0,0-2-.32Z" transform="translate(-60.3 -79.14)"/><path class="cls-3" d="M420.36,88.44h-1.15c-.55,0-1.11,0-1.58.09l-.52,0-1.33.13-.49,0-1.29.15-.12,0-.45,0c-.61.08-1.12.14-1.63.25A29.3,29.3,0,0,0,408,90.32l-.46.17-.45.17-.27.09c-.23.08-.4.14-.56.21l-1.84.82c-.39.17-.76.35-1.13.54l-.53.27c-.48.23-1,.51-1.62.86a27.22,27.22,0,0,0-3.12,2.16c-1.07.85-2.05,1.66-3,2.49a33.23,33.23,0,0,0-2.75,2.7c-.77.86-1.56,1.8-2.39,2.87l-.46.59c-.57.74-1.15,1.48-1.74,2.18-.84,1-1.63,1.93-2.39,2.9-1.41,1.78-2.81,3.75-4.16,5.84a24.49,24.49,0,0,0-1.72,3.33c-.22.49-.43,1-.63,1.49a6,6,0,0,0-.2.64l-.07.26c-.09.35-.18.7-.26,1a21.73,21.73,0,0,0-.52,3.52,14.18,14.18,0,0,0,0,2,5.54,5.54,0,0,0,.12.69,7.89,7.89,0,0,0,.28,1,10,10,0,0,0,1.82,3c.27.32.56.62.84.92l.35.36c.49.52.93,1,1.36,1.34s1.06.91,1.59,1.36l1.1.92.15.13c.15.13.3.26.46.38a10.46,10.46,0,0,0,1,.71l.21.12.13.07.07.05.2.11.23.12.11.05c.26.15.53.28.8.41l1.4.63c.92.4,1.84.77,2.77,1.14l.36.15q.14.28.3.57c.32.61.62,1.26.89,1.83l.11.26c.16.34.31.67.45,1a9.28,9.28,0,0,1,.35,1l.05.16c.11.37.24.73.37,1.09l.06.17c.11.32.22.63.31.94l.15.54c.08.34.17.67.27,1l0,.1c0,.22.11.43.15.66s.06.28.08.42.07.39.12.59a7.63,7.63,0,0,1,.21,1.56v.85c0,.31,0,.62,0,.93a5.46,5.46,0,0,0,.24,1.59,1.17,1.17,0,0,0,1.52.61,1.17,1.17,0,0,0,.63-1.45,9.62,9.62,0,0,1-.13-1.51v-.72a2.44,2.44,0,0,0,0-.27c.05.13.1.25.16.38.2.4.4.81.62,1.2a7,7,0,0,0,1.44,1.76l.5.42.31.26.39.34a23.48,23.48,0,0,0,2.44,1.9l.46.29c.36.24.73.47,1.11.7s.63.37.95.54a6.29,6.29,0,0,0,1.53.56c1.06.23,2.19.45,3.56.67a55.79,55.79,0,0,0,5.72.53l1.44.09h.27c1.09.08,2.19.15,3.28.19h1.17c.86,0,1.71,0,2.57-.05a28.87,28.87,0,0,0,3.35-.39l.08,0a27.92,27.92,0,0,0,3.65-.85l.17-.05.21-.06-.2.25a1.15,1.15,0,0,0-.21.85,1.16,1.16,0,0,0,2.07.52q1.66-2.26,3.38-4.51l.19-.24.16-.14.2-.17c.23-.2.46-.4.68-.61s.67-.68,1-1a15.27,15.27,0,0,0,1.57-2,1.41,1.41,0,0,0,.18-.44l.22-.22.12-.12c.81-.82,1.65-1.61,2.43-2.35s1.65-1.55,2.49-2.31l.85-.76.42-.38,1.28-1.13.85-.77q.81-.75,1.65-1.47l1.67-1.43.9-.77.28-.23c.95-.19,2.08-.42,3.21-.69,1.35-.32,2.57-.66,3.73-1.05,1.37-.46,2.66-.94,3.52-1.27.45-.17.92-.37,1.46-.63l.47-.23.26-.12,1-.49c.61-.3,1.21-.61,1.82-.93s1.27-.72,1.79-1a17.8,17.8,0,0,0,2.83-2.2,33,33,0,0,0,2.62-2.81,7,7,0,0,0,1-1.65,10.64,10.64,0,0,0,.52-1.61l.07-.26c.07-.25.13-.5.19-.75a10.14,10.14,0,0,0,.19-1.71,11,11,0,0,0-.49-2.91,16.94,16.94,0,0,0-1.67-4.46,21.18,21.18,0,0,0-2.31-3c-.87-1-1.68-1.87-2.57-2.69-.52-.48-1.07-.94-1.61-1.38l-.09-.08-1-.87-1.27-1.15-.35-.33c-.3-.29-.61-.58-.93-.85-.58-.47-1.05-.82-1.5-1.12s-1.1-.67-1.59-.95l-.28-.15-.54-.3c-.45-.26-.91-.51-1.37-.76l-1.42-.82c-1.61-.92-3.27-1.88-5-2.73l-3.31-1.67c-.92-.48-1.88-.91-2.81-1.33l-.18-.09-.19-.08L450,96.45l-2.05-.93-1.79-.77c-.43-.19-.87-.35-1.31-.5l-.39-.14c-.56-.21-1.12-.4-1.69-.59l-.63-.21c-.31-.09-.61-.19-.91-.3l-.8-.29c-.92-.34-1.84-.67-2.76-1-.77-.26-1.59-.5-2.25-.68l-1-.29-.91-.27c-.89-.26-1.84-.54-2.78-.78-.74-.18-1.47-.36-2.22-.52-.47-.1-.94-.18-1.42-.26l-.17,0-.26,0a35.13,35.13,0,0,0-3.56-.36c-.84-.05-1.69-.07-2.69-.07Z" transform="translate(-60.3 -79.14)"/><path class="cls-3" d="M518.54,131.24h-.64a6.71,6.71,0,0,0-1.6.14c-.7.17-1.39.39-1.92.56a9.74,9.74,0,0,0-1.15.43,6.68,6.68,0,0,0-.93.55c-.29.2-.55.39-.8.59A7.3,7.3,0,0,0,510,135c-.18.25-.36.5-.53.76-.31.46-.58.95-.9,1.53l-.06.12c-.28.52-.58,1.07-.81,1.62s-.5,1.22-.73,1.84a12.6,12.6,0,0,0-.6,2.55l0,.14c-.09.54-.16,1.11-.23,1.74s-.08,1.24-.07,1.85,0,1,.05,1.5l0,.41c0,.83.11,1.65.17,2.47,0,.41.07.82.1,1.24l.06.9c.06.9.12,1.79.21,2.69.13,1.33.27,2.51.42,3.61s.31,2.06.46,3.1l.1.62c.06.44.1.89.14,1.33l0,.39.12,1.27.05.66,0,.45c0,.4.07.8.12,1.19s.09.72.14,1.07l.09.68c.11.9.22,1.8.31,2.71,0,.33,0,.67,0,1s0,.58-.06.88l0,.28c-.07.79-.12,1.58-.17,2.37l-.08,1.23-.08,1.23a1.19,1.19,0,0,0-.47.82,8.85,8.85,0,0,0,0,1.78c-.21.87-.46,1.7-.77,2.6-.2.54-.39,1.08-.62,1.6s-.51,1.12-.76,1.69a1,1,0,0,0,0,.83,1.18,1.18,0,0,0,.66.64,1.07,1.07,0,0,0,.39.07,1.2,1.2,0,0,0,1.09-.75c.18-.43.37-.85.56-1.28l.15-.32a5.18,5.18,0,0,0,.07.84,7.93,7.93,0,0,0,.57,1.74,19.82,19.82,0,0,0,1.88,3.13c.34.5.66,1,1,1.4l.45.6.6.78.07.09c.15.2.31.4.47.59l.33.36.28.3,1.16,1.26c.79.84,1.6,1.68,2.41,2.51l.54.54.64.65c.3.3.58.61.87.91l.43.46.4.42c.7.74,1.43,1.51,2.21,2.2a29.87,29.87,0,0,0,2.77,2.08l.23.16c.88.59,1.78,1.21,2.71,1.76a26.41,26.41,0,0,0,2.55,1.28l.84.39,1.37.67c.64.32,1.29.64,1.94.94l.7.33.9.42.64.28.91.41c.73.34,1.45.71,2.16,1.07l.24.13.33.17a22,22,0,0,0,3,1.44c.54.2,1.08.4,1.63.58l.3.1.69.23a12.14,12.14,0,0,0,1.78.39,8.77,8.77,0,0,0,1.21.08l.72,0,1-.05.67-.06a5.39,5.39,0,0,0,.8-.16l.14,0a14,14,0,0,0,3.45-1.45,26.06,26.06,0,0,0,3.23-2.07c.88-.67,1.78-1.38,2.74-2.17q2.37-1.93,4.77-3.85l1-.79c.62-.5,1.24-1,1.85-1.53,1.16-1,2.36-2,3.63-2.89L576,203.2l.85-.58c1-.68,2-1.41,2.94-2.18.49-.4.94-.82,1.29-1.15a14,14,0,0,0,1.81-1.9,23.6,23.6,0,0,0,2-3.36c.28-.56.55-1.13.81-1.7a8.53,8.53,0,0,0,.79-2.31l.06-.37c0-.17.06-.33.08-.49.19-1.25.34-2.52.46-3.6a14.19,14.19,0,0,0,.09-1.7c0-.68,0-1.35-.07-2l0-.25c0-.81-.08-1.63-.19-2.44a14.76,14.76,0,0,0-.62-2.54c-.12-.37-.27-.73-.42-1.08l-.17-.4c-.25-.6-.51-1.19-.78-1.79s-.56-1.13-.86-1.69a33.16,33.16,0,0,0-1.89-3.21,35.36,35.36,0,0,0-2.23-3.06c-.7-.82-1.52-1.79-2.39-2.69l-.3-.31c-.31-.33-.62-.66-1-1l-1-1-.49-.47c-1-1-2.08-1.92-3-2.74-.7-.62-1.45-1.2-2.18-1.77l-.79-.63c-.87-.69-1.75-1.37-2.63-2l-.56-.44c-.81-.63-1.65-1.29-2.5-1.9-1.28-.91-2.26-1.59-3.2-2.22a40.23,40.23,0,0,0-4.44-2.46l-.45-.23-1.62-.82-3.24-1.64-.13-.07-.1-.05h0l-.24-.13-.76-.39-.09,0h0a1.3,1.3,0,0,0-.28-.17l-.11-.05-.09,0-.16-.08-.13-.07.08,0c-2.33-1.21-4.6-2.33-6.77-3.36-2.42-1.14-4.86-2.15-6.71-2.91l-3.54-1.47c-1.07-.45-2.12-.88-3.22-1.24a34.88,34.88,0,0,0-7-1.6l-2-.18Z" transform="translate(-60.3 -79.14)"/><path class="cls-3" d="M96,294h-.31a12.11,12.11,0,0,0-4.41.9,11.76,11.76,0,0,0-1.61.85l-.1.05a19.3,19.3,0,0,0-2.16,1.46,22.58,22.58,0,0,0-2,1.88l-.19.18-1.27,1.32-.21.22c-.35.37-.69.73-1,1.11s-.81,1-1.2,1.47c-.72.92-1.42,1.86-2.11,2.78-1.43,2-2.94,4.07-4.24,6.27-.68,1.16-1.31,2.36-1.86,3.39l-.91,1.7-.73,1.34c-1.37,2.58-2.39,4.72-3.22,6.73-.5,1.21-1,2.42-1.44,3.65-.39,1-.74,2.13-1,3.11l-.14.47c-.29.93-.55,1.88-.8,2.8l-.21.8c-.33,1.21-.66,2.42-1,3.63s-.63,2.41-.86,3.41c-.17.74-.35,1.48-.52,2.22,0,.18-.08.34-.13.52-.09.35-.18.7-.24,1.06l-.09.57-.05.26c-.37,2.16-.75,4.4-1.06,6.62-.16,1.15-.33,2.38-.41,3.61l-.07,1.06-.07,1.08v1.84c0,.21,0,.43,0,.64v.14c0,.38,0,.77,0,1.14,0,.76.07,1.51.11,2.26,0,.53.07,1.05.11,1.57l0,.39v.11c0,.41.07.82.13,1.23l.08.58,0,.17c.06.4.11.8.19,1.2l.11.67c.07.4.13.8.23,1.19l0,.18c.28,1.2.56,2.4.9,3.56.16.55.34,1.18.57,1.81s.43,1.22.66,1.83l.09.24a31.22,31.22,0,0,0,1.28,3.05c.3.58.6,1.17.91,1.75a10.43,10.43,0,0,0,.58,1c.09.14.2.28.3.41l.13.17.72,1,.65.88.17.24c.43.59.87,1.19,1.33,1.78.71.9,1.51,1.75,2.28,2.58l.28.31A28.08,28.08,0,0,0,75.1,397c.43.34.82.66,1.24.94a12.47,12.47,0,0,0,1.82,1c.4.18.79.35,1.19.51a13.78,13.78,0,0,0,2.36.67l.36.07.13,0c.46.09.92.19,1.38.25l.3.05.09,0,.44.05.6.05.6.06q.77.06,1.47.06a16.46,16.46,0,0,0,4.66-.67l1.07-.33a13.74,13.74,0,0,0,2.23-.85c.65-.3,1.28-.68,1.84-1l.1-.06c.66-.38,1.3-.79,1.94-1.21l.08,0,.37-.23.73-.46a28.2,28.2,0,0,0,2.81-2.07l.76-.62.51-.47.27-.26,1.11-1.05.27-.27.65-.61.15-.15c.61-.58,1.25-1.19,1.83-1.82l.32-.35c.75-.81,1.48-1.61,2.14-2.44.39-.5.74-1,1.11-1.53l.08-.11c.31-.45.6-.92.88-1.39.67-1.09,1.31-2.19,2-3.3s1.38-2.53,1.94-3.66c.27-.54.54-1.08.8-1.63.51-.24,1-.49,1.55-.72,1-.44,2.07-.83,3-1.17l.28-.11c.95-.34,2-.68,3.44-1.09l.87-.21.87-.21c.49-.12,1-.26,1.45-.41l.13,0,.33-.1.15,0a11.2,11.2,0,0,1,1.56-.33l.63-.06,1.2-.13,1.43-.19.13,0c.63-.09,1.28-.18,1.92-.23,1.16-.1,2.32-.18,3.48-.25l1.25-.08c.77-.05,1.53-.1,2.29-.13h.12c1.05,0,2.12,0,3.28.1l1.23.09.59,0,1.82.12c1,.06,2.07.19,3,.29l.57.06,2.45.3.49.06.76.09.14,0,3.42.45c.69.1,1.38.16,2.08.23l1.41.15a19.13,19.13,0,0,0,2.35.13c.51,0,1,0,1.52,0a17.3,17.3,0,0,0,3.59-.67,5.47,5.47,0,0,0,2.35-1.45,16,16,0,0,0,2.26-3.06,15.29,15.29,0,0,0,.87-1.58l.08-.17c.11-.24.22-.49.32-.73a13.08,13.08,0,0,0,.61-2l0-.08,0-.11h0l.1-.4.16-.64,0-.14,0-.1v-.08h0c.3-1.17.57-2.39.82-3.57l.05-.23c.24-1.08.47-2.17.72-3.25.3-1.25.55-2.39.74-3.59a32,32,0,0,0,.3-3.73,14.76,14.76,0,0,0-.09-2c0-.32-.06-.64-.1-.95a11.32,11.32,0,0,0-.42-2,14.56,14.56,0,0,0-.67-1.73l-.17-.39a11.3,11.3,0,0,0-.87-1.74,10,10,0,0,0-1.61-1.82l-.07-.07a7.28,7.28,0,0,0-1.34-1,12.53,12.53,0,0,0-3.58-1.5,9.73,9.73,0,0,0-1.71-.19l-.43,0c-.47,0-.95-.07-1.42-.13h-.14l-.11,0c-.86-.09-1.71-.16-2.57-.23l-1.14-.1-.43,0-1.39-.11-1.2-.05-.54,0c-.39,0-.78,0-1.18,0-.86,0-1.72,0-2.67.06l-2.32.07-1.32,0-1.36,0c-.32,0-.64,0-.95-.06l-.23,0-.24,0c-.65,0-1.3-.11-1.94-.17l-.58-.05-.22,0c-.7-.07-1.5-.14-2.26-.27l-.43-.06-.1,0c-.27,0-.54-.08-.8-.14l-.44-.1-.71-.17-.81-.24-.52-.17c-.3-.09-.6-.2-.89-.31l-.32-.12c-.93-.34-1.66-.63-2.3-.92-.8-.36-1.65-.75-2.6-1.22-.62-.31-1.24-.65-1.84-1l-.09,0-.39-.22.17.13c-2.1-1.27-4.09-2.66-6.12-4.09-1.44-1-2.91-2.13-4.2-3.11l-1.53-1.14L122,317l-.08-.05c-.64-.48-1.3-1-1.92-1.49l-.56-.47c-.2-.79-.38-1.45-.58-2.07l-.1-.36-.09-.28c-.12-.38-.23-.76-.36-1.13-.2-.63-.42-1.25-.66-1.87-.37-1-.82-2.08-1.37-3.34a16.44,16.44,0,0,0-1.88-3.35,17.17,17.17,0,0,0-2.79-2.75L110,298.58c-.44-.36-.89-.7-1.34-1.05a13.36,13.36,0,0,0-1.57-1c-.28-.15-.57-.29-.86-.43s-.88-.34-1.32-.49l-.09,0-.4-.14c-.52-.18-1-.36-1.51-.5-.66-.19-1.32-.38-2-.51s-1.13-.17-1.6-.22l-.2,0A29.26,29.26,0,0,0,96,294Z" transform="translate(-60.3 -79.14)"/><path class="cls-3" d="M200.39,499.39a1.17,1.17,0,0,0-.7.23,1.32,1.32,0,0,0-.44.75c-.48,2.29-1,4.56-1.46,6.47a15.71,15.71,0,0,1-1.08,2.87c-.41.67-.79,1.27-1.21,1.85-.56.78-1.14,1.56-1.72,2.32a42.79,42.79,0,0,1-3.46,3.89,16.65,16.65,0,0,1-3,2.19l-.36.2c-.49.26-1,.52-1.48.77s-1.08.53-1.63.78l-.37.18c-.64.29-1.28.59-1.94.84l-1,.37-.15.06-.67.22-.31.09c-1.11.29-2.21.57-3.32.84l-1.28.33c-.79.2-1.58.4-2.37.58-2.41.53-4.9.9-7.3,1.26-2,.29-4,.56-6,.83l-1.46.19c-1.28.18-2.46.37-3.58.59s-2.29.49-3.57.84l-1.79.48-1.78.48a2.38,2.38,0,0,0-.38.09l-.16.06-.09,0-.12,0-.18,0-.17.05-.2,0-.15,0c-.24.06-.46.13-.67.2l-.25.08-1.31.44-.38.13a43,43,0,0,0-6.45,2.8,38,38,0,0,0-3.3,1.93c-.39.26-.77.56-1.13.85l-.28.22-.48.39-.93.73-.74.6-.61.49a12.5,12.5,0,0,0-1.47,1.3,9.47,9.47,0,0,0-.82,1.07l-.23.32c-.29.42-.56.85-.83,1.28l-.17.27a16.92,16.92,0,0,0-1.72,3.27,15.13,15.13,0,0,0-.84,3.56,33.4,33.4,0,0,0-.3,4.27v-.31l0,.41c0,.53,0,1.08,0,1.62,0,.7.1,1.39.17,2.08,0,.49.12,1,.19,1.47l0,.13,0,.25c.08.54.16,1.07.27,1.61a15.44,15.44,0,0,0,.48,2c.16.47.37,1,.65,1.61.46,1,1,2,1.55,3l.18.31a24.45,24.45,0,0,0,2.24,3.17c.61.78,1.25,1.53,1.87,2.25l.56.66a34.33,34.33,0,0,0,2.79,2.89,8.28,8.28,0,0,0,1.07.8l.14.09c.25.18.5.35.76.51l.73.49.67.43.61.42a35.71,35.71,0,0,0,6,3.5c.91.38,1.85.72,2.75,1.06l.73.27c1.2.45,2.4.87,3.54,1.25.89.29,1.78.56,2.68.83,1.42.43,2.89.87,4.3,1.4s2.58,1.06,3.82,1.6c1,.43,1.92.85,2.9,1.24,1.39.57,2.79,1.19,4.15,1.79.86.38,1.71.76,2.58,1.13s1.68.66,2.51,1l.83.3c1.12.42,2.25.81,3.38,1.2l.8.29.81.28,1.76.59c.35.12.72.23,1.08.33l.62.19c.67.2,1.34.38,2,.53s1.17.25,1.84.37a11.35,11.35,0,0,0,1.85.12h1c.52,0,1.15,0,1.78-.08s1.32-.14,2-.23,1.06-.18,1.58-.3l.13,0c.66-.14,1.33-.32,2-.53a7.06,7.06,0,0,0,1.89-1c.29-.2.58-.41.85-.63s.95-.76,1.47-1.23a9.46,9.46,0,0,0,1.31-1.44,12.77,12.77,0,0,0,1.3-2.34c.26-.57.51-1.13.73-1.7a14.86,14.86,0,0,0,.6-1.94,20.45,20.45,0,0,0,.5-3.35c.13-1.36.26-2.48.41-3.51l.1-.69c.14-1,.29-2,.42-3,.16-1.27.32-2.55.47-3.82.06-.51.14-1,.21-1.52a9.6,9.6,0,0,1,.2-1.07c0-.16.07-.33.1-.5.07-.34.17-.69.26-1,.05-.17.09-.34.14-.51.1-.39.2-.78.31-1.18l0-.14-.1.28c.27-.9.55-1.8.83-2.7l.2-.67c.43-1.37.82-2.58,1.19-3.67l0-.16c.35-1,.71-2.1,1.14-3.12.56-1.28,1.08-2.4,1.6-3.43.35-.7.72-1.39,1.09-2.08l.07-.12.16-.28c.49-.84,1-1.71,1.57-2.52.77-1.11,1.49-2.1,2.19-3l2.35-3c.78-1,1.5-2,2.19-3.07A22.33,22.33,0,0,0,226,533.6a16.21,16.21,0,0,0,.44-2c.09-.58.17-1.14.21-1.71s.08-1.33.11-2,0-1.18,0-1.75v-.31a19.63,19.63,0,0,0-1.56-7,20.9,20.9,0,0,0-1.67-3.32,17.44,17.44,0,0,0-1-1.45q-.36-.45-.75-.87l-.31-.35c-.78-.89-1.62-1.83-2.53-2.69a12.6,12.6,0,0,0-1.3-1.08c-.47-.34-1-.63-1.54-1a14.54,14.54,0,0,0-3.28-1.44,10.72,10.72,0,0,0-2-.37c-.62-.06-1.23-.07-1.75-.07h-.25c-.59,0-1.19,0-1.76.09a15.55,15.55,0,0,0-1.66.22,17.76,17.76,0,0,0-1.86.42c-.56.16-1.09.35-1.58.53a12.88,12.88,0,0,0-1.55.65c-.23.12-.45.25-.67.39,0-.12.09-.26.13-.39.32-1.18.6-2.36.85-3.46.31-1.35.61-2.7.9-4.06a1,1,0,0,0-.18-.78,1.23,1.23,0,0,0-.8-.51Z" transform="translate(-60.3 -79.14)"/><path class="cls-3" d="M262.3,573.38a1.12,1.12,0,0,0-.47.11,1.19,1.19,0,0,0-.61.69,1.1,1.1,0,0,0,.06.84c.79,1.53,1.56,3.07,2.33,4.62.16.31.3.63.44,1l.2.44.1.23c.19.41.37.82.55,1.23.51,1.17,1,2.3,1.39,3.47.31.87.59,1.74.87,2.62l.13.4q.24.88.45,1.77c.12.49.18,1,.25,1.49l0,.31c.15,1.12.26,2.29.34,3.57,0,1-.06,1.93-.16,3.21l0,.54c-.08.9-.16,1.8-.25,2.7-.24,2.1-.64,4.21-1,6.25l0,.19c-.2.82-.43,1.7-.71,2.58s-.55,1.64-.95,2.68l-.25.66-.25.66c-.13.33-.27.65-.41,1l-.15.36c-.36.83-.76,1.65-1.14,2.42l-.36.62-.35.62c-.18.3-.37.6-.56.89l-.24.38c-.53.84-1.12,1.66-1.62,2.35-.22.3-.46.59-.7.88l-.16.2c-.34.4-.67.82-1,1.23-.48.61-1.05,1.32-1.66,2a39.24,39.24,0,0,1-3,2.8l-.17.13c-1,.87-2.09,1.76-3.19,2.57-2.16,1.59-4.52,3.23-7.43,5.15-1.4.94-2.82,1.87-4.24,2.78-1.19.73-2.46,1.54-3.88,2.47l-1.67,1.13c-.67.46-1.34.92-2,1.36l-1,.62c-.82.53-1.67,1.08-2.48,1.65-1.13.81-2.34,1.71-3.73,2.77-1.09.82-2.21,1.68-3.24,2.63s-2.07,1.94-3.1,2.92c-.21.2-.41.42-.61.63l-.06.06-.23.26c-.22.23-.45.47-.66.72a16.84,16.84,0,0,0-1.29,1.75c-.35.54-.68,1.11-1,1.7l-.06.12a8.92,8.92,0,0,0-.4.82,5.69,5.69,0,0,0-.3,1.17c-.06.35-.1.7-.13,1,0,.14,0,.27,0,.4a9.16,9.16,0,0,0,0,1.28,15.65,15.65,0,0,0,.85,3.95l.06.22a18.1,18.1,0,0,0,1,2.59c.25.52.54,1,.82,1.53l.34.6.37.67c.59,1,1.19,2.14,1.82,3.19.22.37.48.72.71,1a9.41,9.41,0,0,0,1.14,1.22l.36.34.52.51,1,1,.34.35c.44.46.87.91,1.29,1.38s.67.76,1,1.14l.4.47a33,33,0,0,0,3.2,3.06l.23.2c.54.47,1.09.92,1.63,1.37l.14.11.61.49.28.22a6.74,6.74,0,0,0,.62.47l1,.69c.22.14.45.26.68.39l.32.17,2,1.15c1.24.7,2.61,1.43,4.32,2.3l.18.09c.41.23.83.45,1.24.69.7.4,1.41.78,2.13,1.16l1.94,1,1.48.74c.6.31,1.2.62,1.81.91.43.21.88.4,1.34.58l.52.21c1.07.45,2.21,1,3.37,1.57.55.29,1.2.63,1.85.93s1.38.59,2,.84a34.61,34.61,0,0,0,4,1.33l.61.14c.51.12,1,.23,1.51.37.74.21,1.47.42,2.21.65l.28.08c.56.17,1.13.34,1.7.49s1.1.26,1.65.38l.68.15c1.23.27,2.63.58,4,.8l.23,0c.25,0,.49.08.74.1l1.22.08h.41c.49,0,1,0,1.47.08s.73.08,1.1.13l1,.11c.55,0,1.11,0,1.65.06h.66l1.63,0a21.57,21.57,0,0,0,2.59-.13,12.84,12.84,0,0,0,2.92-.67,11.32,11.32,0,0,0,2.47-1.26,22.05,22.05,0,0,0,5.81-5.69,10.52,10.52,0,0,0,.69-1.28c.17-.37.3-.68.41-1l.2-.59.21-.6c.2-.61.36-1.25.51-1.87l.09-.34a20.75,20.75,0,0,0,.44-2.16,16.17,16.17,0,0,0,.16-1.85c0-.3,0-.6,0-.9v-.3a44.74,44.74,0,0,0-.19-4.65c-.08-.7-.19-1.41-.29-2l-.07-.46c-.09-.57-.17-1.14-.29-1.7-.6-3-1.16-5.92-1.66-8.78l-.48-2.8-.26-1.51-.33-1.9-.12-.71c-.08-.51-.16-1-.27-1.52l-.13-.66c-.27-1.26-.53-2.51-.77-3.78s-.43-2.32-.63-3.49l-.13-.73-.85-4.92-.18-1.09,0-.2c0-.26-.09-.53-.12-.79l0-.31c0-.25-.05-.5-.06-.74l0-.53,0-.52a45.64,45.64,0,0,1,.28-6.06c.14-1,.29-2,.46-3.07.08-.5.16-1,.25-1.48s.16-.77.26-1.16l.18-.69c.1-.41.21-.82.31-1.24l0-.12q.22-1,.48-2l.32-1.17c.29-1.08.58-2.16.88-3.24s.62-2.13.95-3.19l.27-.89.11-.37c.36-1.16.72-2.36,1.18-3.5s.88-2.15,1.33-3.22l.41-1c.35-.84.7-1.68,1.07-2.51l.41-.93.41-.92c.15-.36.33-.7.51-1l.23-.47c.43-.87.88-1.72,1.33-2.58l.16-.31.64-1.08.33-.55c.2-.34.42-.66.65-1l.14-.21c.67-1,1.35-2,2-2.93.24-.34.5-.66.75-1l.33-.42.52-.65.41-.52.13-.16c.61-.79,1.25-1.6,1.92-2.37L314,597a1.26,1.26,0,0,0,.41-.76,1.13,1.13,0,0,0-.27-.85,1.15,1.15,0,0,0-.76-.41h-.11a1.06,1.06,0,0,0-.74.27c-.46.47-1.06,1.09-1.62,1.77s-.86,1.08-1.29,1.63l-.13.16-.51.65c-.71.91-1.45,1.85-2.13,2.8l-.28.4.07-1c0-.31.05-.61.06-.92a15.43,15.43,0,0,0-.15-2.75c-.1-.69-.25-1.44-.46-2.38-.18-.76-.41-1.51-.64-2.24a18.1,18.1,0,0,0-1.29-3.27,15.93,15.93,0,0,0-.92-1.48,9.23,9.23,0,0,0-1.07-1.18,31.78,31.78,0,0,0-2.74-2.2l-.12-.09c-.52-.39-1-.75-1.57-1.1a15.21,15.21,0,0,0-1.62-.89c-.8-.39-1.67-.77-2.67-1.16-.48-.19-1-.38-1.44-.6s-.68-.33-1-.51l-.17-.09-.4-.22c-1-.55-2-1.12-3-1.65-.84-.44-1.71-.85-2.54-1.24l-.56-.27c-.58-.27-1.16-.53-1.75-.78-.29-.12-.58-.22-.88-.33a10.61,10.61,0,0,0-1.72-.4,12.17,12.17,0,0,0-1.76-.13h-.57a9.14,9.14,0,0,0-1.48.1,20.63,20.63,0,0,0-3.17.74,9.17,9.17,0,0,0-1.39.53,9.59,9.59,0,0,0-1.41.85,10.27,10.27,0,0,0-1.19.94,10.74,10.74,0,0,0-1.31,1.44,4.7,4.7,0,0,0-.69,1.42l-.07-.22-.58-1.3-.11-.22-.15-.35q-.23-.53-.48-1.05c-.77-1.54-1.55-3.09-2.34-4.62a1.2,1.2,0,0,0-1.05-.66Z" transform="translate(-60.3 -79.14)"/><path class="cls-3" d="M497.11,586.14a1.16,1.16,0,0,0-1.08.75c-.15.38-.32.75-.5,1.12l-.15.33c-.23.5-.44,1-.62,1.5s-.29.87-.41,1.3l-.07.27c-.14.51-.28,1-.41,1.53l-.13.48c-.12.45-.25.91-.33,1.37s-.18,1.07-.26,1.6-.12.85-.16,1.27l-.06.46-.09.93-.12,0-.12,0a15.83,15.83,0,0,0-1.91,1c-.37.22-.73.44-1.11.64a16,16,0,0,1-1.56.72c-.53.22-1.07.43-1.6.63l-.32.13c-1.06.4-2.15.83-3.25,1.19a16.33,16.33,0,0,1-1.94.41l-.46.09-.75.13-.87.16c-1.3.23-2.59.48-3.88.74-.49.09-1,.2-1.46.31l-.33.07c-.65.14-1.18.27-1.64.4l-.46.13c-.51.14-1,.28-1.52.45l-1.85.66c-1.07.41-2.18.86-3.31,1.35l-.74.32c-.88.39-1.79.79-2.71,1.11-1.13.4-2.27.8-3.41,1.18l-1.22.41c-.79.26-1.59.52-2.37.81l-.11,0c-.83.3-1.69.61-2.53,1s-1.51.61-2.36.91c-1.44.43-2.93.81-4.37,1.17-1.07.27-2.14.53-3.21.83a1.24,1.24,0,0,0-.74.47l-.07.11c-.18-.13-.38-.26-.56-.41-.47-.51-.91-1.07-1.33-1.6l-.11-.14a1.1,1.1,0,0,0-.87-.41,1.15,1.15,0,0,0-.89,1.88l.21.28c.33.42.67.85,1,1.25a6.57,6.57,0,0,0,1.22,1,5.7,5.7,0,0,0,.79.45c.54.31,1.08.64,1.61,1l.87.53.8.47.51.29a7.57,7.57,0,0,1,1.07.77c.41.41.81.83,1.21,1.25s1,1.07,1.55,1.58l.34.32c.38.36.77.72,1.12,1.12a7.64,7.64,0,0,1,.65.85l.24.34.62.87c.38.55.77,1.1,1.17,1.64s.72.94,1.09,1.41l.23.28c.78,1,1.56,2.08,2.39,3.33l.17.26-.06-.08c.42.65.78,1.33,1.14,2,.18.34.36.69.56,1,.58,1,1.14,2.12,1.68,3.16l.1.19c.22.43.45.87.66,1.32a15.94,15.94,0,0,1,.71,1.71c.35.93.65,1.91.95,2.85l.06.19c.28,1,.57,2,.85,2.94s.52,2.08.74,3.1c.09.46.2,1,.27,1.5s.09.83.14,1.25l0,.43c.08.74.11,1.5.13,2.24,0,.27,0,.53,0,.79v0s0,.06,0,.06h0v.1h0c0,1,0,2,.05,3s-.08,2-.16,3l0,.27c-.07.85-.17,1.72-.28,2.56l-.1.87c-.13,1.06-.31,2.15-.54,3.23-.14.57-.29,1.15-.45,1.72l-.06.19c-.15.55-.31,1.12-.51,1.67-.26.72-.54,1.44-.82,2.16s-.48,1.23-.71,1.86l-.15.4-.56,1.53c-.16.43-.32.86-.49,1.29l-.25.65c-.45,1.14-.88,2.41-1.35,3.88-.41,1.3-.72,2.39-1,3.42a10.14,10.14,0,0,0-.28,1.49c0,.35,0,.69-.06,1s0,.75-.05,1.12,0,.57,0,.85l-.05,1.13c-.05.94-.1,1.88-.12,2.83,0,.51,0,1,0,1.54v1.09c0,.51,0,1,0,1.54,0,.8.05,1.52.13,2.25s.17,1.39.27,2.09.22,1.22.35,1.82l.11.5a15.39,15.39,0,0,0,.71,2.45,10.76,10.76,0,0,0,1.18,2.09,6.9,6.9,0,0,0,.67.82,7.93,7.93,0,0,0,.68.62l.18.15.33.34c.3.3.59.6.9.88a7.42,7.42,0,0,0,.9.75,7.35,7.35,0,0,0,4.35,1.34c.43,0,.85.07,1.26.13a19.67,19.67,0,0,0,2.68.18c.52,0,1.05,0,1.58-.06,1.29-.1,2.66-.26,4.17-.5,2.32-.35,4.84-.77,7.73-1.27.51-.09,1-.21,1.5-.33l.34-.08a18.19,18.19,0,0,0,1.86-.54l1.62-.54,2-.68,2.14-.63.94-.26.84-.23,2-.6,2-.61,1.37-.39c1-.28,1.93-.55,2.89-.84,1.52-.46,3-.94,4.54-1.42s2.77-1,3.92-1.44l.68-.29.23-.09a14.69,14.69,0,0,0,1.72-.93c.67-.4,1.31-.81,1.9-1.21,1.06-.71,2.11-1.47,3.14-2.2l.18-.13,3.47-2.51,1.14-.84,2.28-1.69c1.1-.83,2.14-1.71,3.12-2.55a64,64,0,0,0,6.16-5.86l.77-.88.53-.59a10.06,10.06,0,0,0,1-1.47l.08-.14c.12-.2.24-.42.35-.63l.14-.27.57-1.1a11,11,0,0,0,.62-1.43q.17-.48.3-1c.44-1.38.89-2.86,1.24-4.35a8,8,0,0,0,.22-2.17,6.49,6.49,0,0,0-.41-2,4.54,4.54,0,0,0-.3-.68,4.18,4.18,0,0,0-.78-1,7.84,7.84,0,0,0-1.07-.93l-.43-.33c-.48-.36-1-.71-1.42-1.08a12.73,12.73,0,0,0-2-1.22l-.2-.11c-.45-.25-.92-.46-1.38-.67l-.85-.39-.44-.26c-.27-.16-.55-.33-.83-.48a18.9,18.9,0,0,0-1.86-.87c-1.06-.43-2.08-.9-3.05-1.4-.4-.22-.81-.43-1.22-.63a14,14,0,0,1-1.38-.84c-.51-.36-1-.75-1.46-1.13l-1-.84c-.53-.41-1.08-.84-1.59-1.3s-.92-.9-1.37-1.38c-.28-.3-.55-.61-.82-.93s-.33-.37-.5-.56c-.45-.51-.9-1-1.33-1.54l-.2-.24c-.35-.42-.69-.84-1.06-1.24l-.75-.84c-.67-.73-1.36-1.49-2-2.27l-1-1.21-1.68-2.08c-.66-.81-1.16-1.48-1.6-2.13l-.05-.09c-.3-.48-.6-1-.86-1.48l-1.09-2.05-1-1.79-.33-.6c-.2-.35-.4-.7-.58-1.06-.68-1.35-1.23-2.72-1.72-4s-1-2.55-1.43-3.8c-.22-.62-.43-1.25-.63-1.88-.73-2.43-1.56-5.3-2.13-8.18s-1.08-5.82-1.55-8.52c-.18-1.05-.36-2.1-.53-3.15-.14-.86-.25-1.73-.37-2.59l-.07-.5,0-.28c-.12-.94-.26-1.9-.33-2.86l0-.47c0-.31-.06-.63-.07-1l0-.77,0-.74s0-.06,0-.06h0v0h0v-.34c0-.22,0-.44,0-.66a15.39,15.39,0,0,0,1.69-.65,1.18,1.18,0,0,0,.55-1.53,1.16,1.16,0,0,0-1.05-.66,1.13,1.13,0,0,0-.48.11l-.56.25.09-.65c.12-.94.24-1.74.38-2.49.33-1.36.65-2.56,1-3.65a16.16,16.16,0,0,1,.67-1.81c.11-.25.22-.49.34-.74s.36-.76.5-1.16a1.15,1.15,0,0,0-.66-1.47,1.14,1.14,0,0,0-.4-.08Z" transform="translate(-60.3 -79.14)"/><path class="cls-3" d="M575.27,528.45a1.33,1.33,0,0,0-.28,0,1.14,1.14,0,0,0-.71.52,1.09,1.09,0,0,0-.13.86,1.18,1.18,0,0,0,.51.71l.06,0,.07,0c.46.36.92.72,1.39,1.06s.94.62,1.37.88l.59.35.23.13-.19.08-.56.27c-.37.16-.73.32-1.08.5a12.9,12.9,0,0,0-1.79,1.23l-.36.28a26,26,0,0,0-2.73,2.2c-.93.9-1.77,1.86-2.47,2.67a27,27,0,0,1-2.54,2.67c-.58.52-1.2,1.08-1.81,1.68a8.17,8.17,0,0,0-1.45,1.82c-.15.28-.3.56-.44.84a12.75,12.75,0,0,0-.67,1.54l-.06.15c-.08.26-.17.51-.25.77a9.74,9.74,0,0,0-.31,1.59c0,.12,0,.24,0,.36s0,.2,0,.29a16.85,16.85,0,0,0-2.46-1.07.88.88,0,0,0-.33-.06,1.2,1.2,0,0,0-1.1.83,1.18,1.18,0,0,0,.77,1.43c.46.16.9.33,1.35.52a17.75,17.75,0,0,1,2.88,1.82c.5.35,1,.72,1.45,1.1l.36.27c.61.5,1.19,1,1.63,1.42l.68.56.36.29a10,10,0,0,1,1.27,1.31l.13.15c1,1.15,1.95,2.34,2.88,3.54a26.16,26.16,0,0,1,2.39,4.49c.28.73.55,1.49.8,2.27s.49,1.65.7,2.46l.07.28c.23.87.44,1.76.62,2.65.1.47.2.93.28,1.4s.12.75.16,1.12l0,.19c.1,1,.19,2.2.28,3.53,0,.6.11,1.19.17,1.79s.11,1.14.15,1.71c.07.91.13,1.82.19,2.73l.06.91.09,1.63c0,.72.09,1.45.14,2.17.09,1.17.22,2.56.46,3.94.11.66.24,1.31.37,2s.21,1.07.31,1.6c.18,1,.43,2.41.73,3.8.26,1.19.57,2.36.95,3.57.23.73.48,1.45.73,2.17l.41,1.2c.09.29.19.57.28.86s.18.57.28.86c.22.66.49,1.3.73,1.85a16.19,16.19,0,0,0,.82,1.61c.18.3.38.59.59.88l.35.51a11.68,11.68,0,0,0,2.22,2.62c.27.22.55.43.83.64l.65.5a8,8,0,0,0,1.19.82,8.94,8.94,0,0,0,1.69.69l.59.19c.31.09.62.18.93.3.52.19,1,.37,1.52.52l.92.27.62.17a20.52,20.52,0,0,0,3,.54l.57.07c1.37.18,2.44.29,3.44.35l1,.06.79.05c.28,0,.57,0,.85,0h1c.53,0,1.07-.08,1.59-.15l.3,0,1.1-.14.55-.07.68-.09,1.06-.13c.6-.1,1.2-.22,1.8-.34,1.11-.24,2.26-.52,3.26-.76l1.83-.42.51-.09c.38-.08.78-.15,1.17-.27a17,17,0,0,0,1.73-.56c.69-.26,1.35-.57,2-.86s1.26-.56,1.88-.82l1.21-.51a12,12,0,0,0,1.18-.62l.38-.21.94-.55.57-.35c.55-.32,1.12-.62,1.67-.9s1-.5,1.44-.78a15.32,15.32,0,0,0,1.6-1.07c.47-.35,1-.71,1.41-1.07a31.91,31.91,0,0,0,2.78-2.45c.31-.3.6-.62.88-.94l.23-.25.84-.92.27-.29.37-.41c.63-.68,1.29-1.39,1.86-2.14s1.37-1.8,2-2.72,1.19-1.59,1.79-2.35,1-1.26,1.59-1.89c.27-.32.55-.64.82-1a23.16,23.16,0,0,0,2.18-3.06c1.07-1.77,2-3.64,2.9-5.46l.54-1.08a24.83,24.83,0,0,0,1.41-3.51c.45-1.36.77-2.5,1-3.6s.51-2.32.76-3.66c.21-1.1.35-2.24.48-3.33l.06-.45c.15-1.24.28-2.36.35-3.5s.13-2.41.17-3.91a28.49,28.49,0,0,0,0-3.59c-.13-1.24-.34-2.45-.56-3.69l-.08-.48a25.25,25.25,0,0,0-.67-3.08c-.24-.74-.45-1.35-.67-1.9a12.89,12.89,0,0,0-.67-1.46l-.51-.86c-.37-.61-.8-1.2-1.13-1.64-.48-.63-1-1.2-1.43-1.75a13.72,13.72,0,0,0-1.43-1.32l-.44-.37-.54-.45-.83-.71-.44-.38c-.34-.3-.69-.6-1.05-.89l-.39-.31-.4-.31c-.18-.14-.37-.26-.56-.38l-.25-.18c-.41-.27-.84-.52-1.26-.76l-.15-.09c-.53-.3-1.06-.6-1.6-.89a19.69,19.69,0,0,0-1.78-.86l-.08,0a10.65,10.65,0,0,0-1.65-.55l-.43-.09-1.38-.28-.51-.1c-.5-.1-1-.2-1.49-.27-1.44-.21-2.91-.29-4.33-.38-1-.06-2-.12-2.95-.22-1.48-.14-2.68-.23-3.77-.28l-1.09,0c-.79,0-1.61,0-2.41-.12s-1.82-.14-2.74-.2l-1-.06-.9-.07c-.85-.06-1.74-.13-2.61-.15l-1.87,0h-1.8c-1,0-1.91-.14-2.83-.24l-.95-.09c-.44,0-.89-.08-1.33-.11l-1-.07c-.95-.09-1.79-.18-2.58-.31l-2.79-.41-2.07-.31c-1.11-.18-2.19-.35-3.25-.56s-2-.44-3.26-.78l-.53-.15-1.06-.29c-.61-.17-1.21-.36-1.81-.55-1-.34-2.05-.72-3.17-1.16l-1-.49a.86.86,0,0,0-.15-.44,2,2,0,0,0-.36-.46,1.82,1.82,0,0,0-.65-.39,1.93,1.93,0,0,0-.41-.12,2.72,2.72,0,0,0-.61-.07l-.43,0-.79-.45c-.81-.45-1.48-.84-2.09-1.22a23.1,23.1,0,0,1-2.12-1.47l-.52-.41a1,1,0,0,0-.59-.17Z" transform="translate(-60.3 -79.14)"/><path class="cls-3" d="M702.61,376.2a8.59,8.59,0,0,0-1,.08l-.34,0c-.22,0-.45.06-.67.1l-.18,0c-1.39.24-2.54.48-3.62.77-.52.14-1,.33-1.54.52l-.11,0-.72.27-1,.39-1.27.43-.45.15-.57.19c-.34.11-.69.22-1,.35-.94.36-1.86.74-2.8,1.19l-1.54.73-1,.49-.4.18c-.67.32-1.37.65-2,1a22,22,0,0,0-2.08,1.45l-.1.08c-.46.34-.94.65-1.42,1l-.36.24c-.65.43-1.29.92-1.9,1.39l-.24.18-.13.09c-.28.2-.55.4-.84.59l-.23.16a8.7,8.7,0,0,1-.9.59c-.8.44-1.64.81-2.46,1.17l-.15.07-1.92.86c-1,.47-2.13,1-3.22,1.41s-2.33.88-3.48,1.34c-.56.22-1.1.46-1.65.7-.4.18-.8.34-1.21.51l-.38.16-.23.08a21.3,21.3,0,0,1-2.09.69c-.94.24-1.88.46-2.83.68-1.67.37-3.47.76-5.27,1l-2.12.2-1.06.09-.56.05c-1,.1-2,.19-3,.25-.68,0-1.35.08-2,.09h-.28c-.51,0-1,0-1.52-.05h-.13c-.41,0-.82-.07-1.23-.12l-.5-.06c-.45-.05-.89-.12-1.34-.19l-.4-.07-.43-.06-.33-.06c-.44-.08-.88-.16-1.32-.26l-.21-.05a15.88,15.88,0,0,1-2.66-.79l-.86-.4-1.26-.58a1.52,1.52,0,0,0-.62-.17l-.25,0a1.19,1.19,0,0,0-.7.52,1.16,1.16,0,0,0-.14.87,1.07,1.07,0,0,0,.52.71c.62.28,1.25.56,1.87.86a13.28,13.28,0,0,0,1.89.76l.84.22a7.64,7.64,0,0,0-.54.73l-.24.35c-.26.38-.52.75-.79,1.11a15.33,15.33,0,0,0-.95,1.36,11.64,11.64,0,0,0-.66,1.44l-.13.31-.15.37c-.17.42-.35.84-.51,1.26s-.41,1.14-.6,1.72l-.1.31c-.35,1.05-.7,2.13-1,3.21s-.51,2.13-.75,3.19l-.42,1.77c-.08.33-.14.66-.2,1l-.08.41,0,.12c0,.11,0,.22-.05.33l-.13.77-.12.74V420c-.21,1.29-.42,2.56-.62,3.85-.08.52-.14,1-.2,1.59v.12c-.05.41-.06.82-.08,1.23v.49c0,.63-.06,1.26-.07,1.88v.32a26.65,26.65,0,0,0,.07,3,9.14,9.14,0,0,0,1,3.69,7.81,7.81,0,0,0,2.55,2.79,8.6,8.6,0,0,0,.93.61c.18.1.36.18.54.26l.19.09c.73.33,1.39.62,2,.86s1.11.4,1.68.59l.18.06,2,.66.89.28.28.1a6.62,6.62,0,0,1,.62.24l.18.07c1,.49,1.91,1,2.94,1.59l.65.37c.85.48,1.72,1,2.56,1.51l.62.39c.87.55,1.73,1.09,2.59,1.66s1.94,1.37,2.85,2.07l.22.16c.74.56,1.48,1.14,2.2,1.72,1,.82,1.91,1.58,2.77,2.33.38.33.75.67,1.12,1l.32.29c.35.33.75.67,1.27,1.1a33.78,33.78,0,0,1,2.75,2.45c.29.29.58.6.86.91l.38.41c.41.44.84.86,1.28,1.28.83.81,1.7,1.57,2.59,2.35l1.51,1.29c.36.3.74.58,1.12.87l.44.33c.51.38,1,.71,1.49,1s.79.44,1.2.65l.31.17c1,.49,2.08,1.1,3.21,1.77l.3.19c.9.53,1.83,1.09,2.76,1.61.22.13.46.25.69.37l.54.25.17.07.4.18.67.3h0l.74.35a17.89,17.89,0,0,0,2.59,1.08,7.44,7.44,0,0,0,1.78.26l.82,0c.29,0,.57,0,.86,0a11.88,11.88,0,0,0,2-.31c.59-.15,1.15-.32,1.68-.5a16.17,16.17,0,0,0,2.72-1.07,12.56,12.56,0,0,0,1.38-.9l.1-.07a28.12,28.12,0,0,0,3-2.33c.89-.82,1.78-1.66,2.66-2.5l.44-.44.23-.24.18-.18a5.51,5.51,0,0,0,.41-.43c.24-.26.47-.53.7-.8l.21-.23c.18-.22.37-.43.54-.65l.25-.33.92-1.25c.11-.14.2-.29.3-.44l.13-.21.55-.83c.16-.25.31-.52.45-.79s.14-.27.22-.4.23-.45.34-.68.12-.26.19-.39c.15-.31.29-.63.42-.95l.16-.38.26-.57.16-.38.73-1.59a17.29,17.29,0,0,0,.74-2c.39-1.19.7-2.4,1-3.53.52-2.1.93-4.27,1.33-6.37l.15-.78c.13-.65.23-1.3.32-1.95l.13-.8c.11-.7.23-1.4.34-2.1l.25-1.5,0-.17c.12-.69.22-1.32.31-1.95s.12-1,.17-1.51l0-.24q.2-1.78.36-3.57c.15-1.58.2-3.2.26-4.76,0-.68,0-1.35.07-2,.06-1.15.1-2.3.13-3.45,0-.54,0-1.09,0-1.63s0-1.18,0-1.77c0-1,.08-2.08.13-3.12l0-.51c.05-1.19.05-2.37.05-3.48s0-2.41.1-3.69c0-.39.06-.77.1-1.16.06-.87.13-1.73.17-2.59,0-1.15.14-2.35.27-3.68,0-.51.13-1,.2-1.5s.19-1.3.23-1.95c.07-1,.1-2.09.08-3.5,0-.58,0-1.15,0-1.72v-.33c0-.25,0-.51,0-.77,0-.45-.09-.9-.15-1.36a11.11,11.11,0,0,0-.35-1.47,15.15,15.15,0,0,0-1-2.5,11.49,11.49,0,0,0-1-1.64,4.61,4.61,0,0,0-.77-.87c-.17-.14-.34-.28-.52-.41l-.13-.11a13.45,13.45,0,0,0-1.22-.8l-.1-.06a11.52,11.52,0,0,0-1.76-.85,13.14,13.14,0,0,0-1.47-.52,10.38,10.38,0,0,0-2.49-.38Z" transform="translate(-60.3 -79.14)"/><path class="cls-3" d="M706,243.53a8.45,8.45,0,0,0-2,.34l-.08,0-.22,0c-.53.14-1.09.28-1.62.45s-1.27.45-2,.75a9.37,9.37,0,0,0-1.57.84l-.26.18c-.45.29-.89.58-1.32.9a16.31,16.31,0,0,0-1.64,1.37,13.24,13.24,0,0,0-1.43,1.59c-.2.25-.39.52-.58.79l-.19.26c-.35.51-.68,1-1,1.52l-.25.42c-.31.51-.62,1-.92,1.52-.67,1.12-1.35,2.32-2.09,3.66-.62,1.13-1.32,2.28-2.13,3.54-.37.57-.76,1.14-1.14,1.71l-.9,1.34c-.42.65-.83,1.3-1.24,1.95-.27.44-.55.88-.83,1.31-.59.92-1.28,2-2,3s-1.34,1.86-2.22,3h0l0,.05c-.8,1-1.71,2-2.76,3.11-.61.65-1.21,1.33-1.81,2-.33.38-.66.75-1,1.12-1.77,2-3.66,4-5.6,5.93-.84.85-1.65,1.71-2.46,2.57s-1.38,1.46-2.07,2.17-1.33,1.27-2,1.86l-.32.29c-.62.54-1.44,1.26-2.31,1.92a22.12,22.12,0,0,1-4.18,2.16,28.89,28.89,0,0,1-3.38,1c-1.22.29-2.49.48-3.68.64L646,299c-.95.09-1.89.18-2.83.29-.62.07-1.24.16-1.87.25l-1.5.2-.23,0c-.47,0-1,.09-1.43.09h-2.25c-1.37,0-2.73,0-4.09,0h-.31c-.83,0-1.67,0-2.49-.07l-1.32-.05a19.83,19.83,0,0,1-2.43-.26c-.52-.08-1-.16-1.58-.21-1.08-.1-2-.16-2.93-.16h-.31l-1.25,0c-.52,0-1,.05-1.56.05h-.39a.47.47,0,0,0-.07-.17,1.2,1.2,0,0,0-.67-.54,1.1,1.1,0,0,0-.31,0,1.16,1.16,0,0,0-1.08.68c-1.44-.08-3-.2-4.77-.38h-.1a1.18,1.18,0,0,0-1.09,1.12,1.12,1.12,0,0,0,.33.83,1.21,1.21,0,0,0,.78.35c1.47.15,3,.27,4.49.35l.06.13v.13a21.67,21.67,0,0,0,.36,2.94c.08.47.17.93.26,1.39l.13.68c.2,1.07.48,2.13.75,3.17l.15.58c.1.41.23.82.36,1.22l.15.47,0,.18c.14.44.27.88.42,1.32l.38,1.15c.28.83.56,1.67.83,2.51,1.62,5,2.93,10.09,4,14.42.46,1.87.92,3.75,1.37,5.62l.07.27a1.26,1.26,0,0,0-.75.53,1.08,1.08,0,0,0-.13.86,1.13,1.13,0,0,0,.51.71,1.27,1.27,0,0,0,.62.18.66.66,0,0,0,.25,0c.39,1.28.71,2.34,1.07,3.32a1.22,1.22,0,0,0,.52.7,1.16,1.16,0,0,0,.6.17,1.09,1.09,0,0,0,.26,0,1.11,1.11,0,0,0,.71-.52,1.1,1.1,0,0,0,.14-.87c-.37-1-.71-2.12-1.07-3.48l2.15-.59c1.21-.33,2.45-.62,3.66-.89l.12,0,.46-.11c1.2-.27,2.4-.55,3.6-.8,1.41-.29,2.8-.64,4.11-1s2.48-.66,3.72-1l.39-.11c.69-.18,1.4-.32,2.08-.46s1.2-.23,1.79-.38l.35-.09,1.7-.43.19-.05a13.57,13.57,0,0,1,1.66-.34c1.24-.16,2.56-.34,3.88-.62l1.77-.35c.39-.07.78-.12,1.17-.17l.3,0,.11,0c.81-.08,1.66-.16,2.49-.3s1.93-.32,2.9-.45h-.12l2.65-.2c.82-.06,1.53-.08,2.18-.08h.72c.5,0,1,0,1.5.07l1.45.14c.94.1,1.88.21,2.81.34a19.74,19.74,0,0,1,2.76.71l.3.1c.38.12.75.24,1.12.39l1.44.6c1.33.56,2.67,1.11,4,1.65l1.94.8c.58.27,1.15.55,1.72.84l.89.47.95.5,2.27,1.12,1.28.64.71.35c.4.21.8.42,1.2.6.69.32,1.38.63,2.09.92s1.33.54,2,.79l.48.18c.43.17.86.33,1.29.47l.57.18.57.18c.24.08.48.14.73.2l.36.08c.49.13,1,.23,1.49.34l.52.11,1.73.38,2.27.5,1.13.24c.28.06.57.09.86.13l.35.05.22,0c.21,0,.41.07.62.08l1.3.1c.59,0,1.19.07,1.78.09s1.46.06,2.18.13c1.66.15,3,.21,4.19.21h2.15c.62,0,1.23.05,1.84.05.27,0,.54,0,.81,0H729a9,9,0,0,0,1.15-.11,9.06,9.06,0,0,0,2-.55,11.46,11.46,0,0,0,3.6-2.15A12,12,0,0,0,737,341l.13-.17.38-.52.19-.26a9.44,9.44,0,0,0,1.24-2.61,11.53,11.53,0,0,0,.33-1.41l0-.14,0-.2c.07-.33.14-.67.18-1s.07-.58.1-.86,0-.41.05-.62a8,8,0,0,0-.05-1.32c-.16-1.37-.41-2.75-.65-4.08l0-.15c0-.22-.1-.43-.15-.65l-.09-.36-.06-.23c0-.21-.1-.42-.16-.64-.19-.73-.39-1.47-.6-2.2-1-3.71-2.12-6.95-3.28-9.9l0,.08c-.15-.4-.3-.8-.46-1.2l-.39-1c-.32-.8-.65-1.63-1-2.45-.16-.38-.33-.75-.5-1.12s-.43-.93-.63-1.41-.37-1-.55-1.56-.41-1.17-.63-1.75c-.4-1.07-.76-2.17-1.1-3.23l-.16-.5c-.28-.88-.56-1.77-.83-2.65l-.33-1.06c-.3-.93-.57-1.88-.84-2.82l-.35-1.22c-.1-.34-.19-.68-.28-1s-.14-.53-.22-.79c-.17-.62-.36-1.23-.55-1.84l0-.12c-.46-1.52-.81-2.79-1.11-4l-2-8-.31-1.28c-.46-1.9-.93-3.86-1.48-5.77-.3-1.06-.63-2.11-1-3.16l-.11-.35c-.39-1.27-.77-2.52-1.23-3.71l0,.11-.26-.69,0,.14c-.56-1.47-1.11-2.75-1.66-3.92-.16-.32-.31-.64-.46-1-.39-.85-.8-1.73-1.25-2.57s-1-1.74-1.46-2.6l-.32-.56-.18-.31c-.25-.43-.5-.86-.76-1.29a15,15,0,0,0-1.22-1.74l-.33-.38-.19-.22c-.19-.21-.36-.42-.53-.64L710,246a5.54,5.54,0,0,0-.64-.71c-.31-.26-.63-.48-1-.72l-.33-.22a3.7,3.7,0,0,0-1.86-.83Z" transform="translate(-60.3 -79.14)"/><path class="cls-3" d="M415.52,382.61l-.09,1.15c-.05.6-.09,1.21-.12,1.82s0,1.39,0,2c0,1.24.06,2.48.09,3.71a24.78,24.78,0,0,0,.38,3.61c.05.26.09.51.14.77s.14.69.2,1l0,.28c.08.5.17,1,.26,1.5a26.74,26.74,0,0,0,.72,2.66l.24.82.18.61a3.38,3.38,0,0,0-.08.34,2.78,2.78,0,0,0-.08.49,3.1,3.1,0,0,0,0,.61c0,.24.05.47.08.71a4,4,0,0,0,.29.93l.05.1c.09.24.19.48.3.71.44,1,.85,2,1.25,2.94l.23.56c.46,1.1,1,2.18,1.54,3.31.51,1,1.07,1.94,1.61,2.87l.21.37c.6,1,1.24,2,1.9,3,.43.6.86,1.19,1.3,1.78a15,15,0,0,0,1,1.19c1.66,1.77,3.42,3.59,5.37,5.54.72.71,1.67,1.63,2.69,2.48s2.08,1.68,3,2.34c1.92,1.45,3.94,2.85,6,4.14,1,.66,2.15,1.34,3.29,2l.45.26c.86.51,1.75,1,2.67,1.49s2.24,1,3.7,1.61c.41.17.83.31,1.24.46l.32.11.36.12a14.37,14.37,0,0,0,1.45.46,26.36,26.36,0,0,0,3.83.66c1.26.11,2.53.21,3.79.3l3.26.25.67.05c.45,0,.91.06,1.36.08l.51,0c.47,0,.93,0,1.4,0H473c.47,0,1,0,1.41-.08l.45,0c.56,0,1.12-.11,1.68-.18l.39,0c1.07-.13,2.23-.33,3.63-.61,1.06-.22,2.2-.5,3.57-.89l.67-.19c.92-.26,1.88-.53,2.8-.84,1.14-.38,2.34-.82,3.68-1.36,1-.37,2.21-.88,3.45-1.42a29.54,29.54,0,0,0,3.14-1.65c.62-.37,1.25-.73,1.88-1.09l1.39-.8q1.57-.92,3.12-1.86l.92-.56c.68-.41,1.39-.83,2.07-1.29s1.14-.79,1.62-1.17c.25-.19.5-.4.74-.6s.44-.36.67-.53.67-.52,1-.77a19.15,19.15,0,0,0,1.74-1.38,21.26,21.26,0,0,0,1.45-1.56c.31-.35.61-.7.94-1s.61-.62.92-.91l.35-.35a17.47,17.47,0,0,0,2-2.48c.24-.32.47-.65.69-1l.31-.43c.12-.18.24-.36.35-.54l.19-.29.11-.17c.25-.38.51-.78.73-1.18a17.75,17.75,0,0,0,1.31-3.52c.1-.33.19-.65.29-1a29.28,29.28,0,0,0,.92-3.5c.11-.61.21-1.17.27-1.72l0-.24c0-.69.08-1.37.11-2.05v-.22q0-.81.06-1.62a17.07,17.07,0,0,0-.47-4.28l-.07-.27a16.45,16.45,0,0,0-.57-2c-.29-.77-.66-1.52-1-2.24l-.17-.34a39.91,39.91,0,0,0-4.06-6.23l-.84-1.14c-.59-.82-1.26-1.77-1.9-2.74-.74-1.15-1.48-2.3-2.21-3.46-.53-.83-1.08-1.64-1.64-2.46l-.39-.59-.48-.7c-.52-.78-1.05-1.55-1.58-2.31s-1.15-1.62-1.74-2.43l-.55-.76c-.66-.92-1.4-1.8-2.12-2.66l-.19-.23c-.69-.82-1.45-1.68-2.46-2.78-.86-.94-1.77-1.85-2.58-2.65l-.4-.37-.2-.18-.24-.22-.44-.4-.36-.3-1.14-.95-.94-.77c-.65-.53-1.3-1.07-2-1.59l-.35-.27c-.39-.31-.77-.61-1.17-.9-.56-.41-1.12-.8-1.69-1.18-.91-.63-1.95-1.34-3-2a69.89,69.89,0,0,0-6.46-3.47l-1.16-.57c-1.93-1-3.93-1.94-5.95-2.82s-4.44-1.9-6.83-2.76c-1-.35-2.06-.68-3.41-1-1.19-.32-2.41-.59-3.63-.8l-.74-.13c-1.05-.18-2.1-.36-3.15-.52-1.29-.19-2.46-.32-3.57-.38a29.41,29.41,0,0,0-7.49.76,19.41,19.41,0,0,0-3.35,1.13l-.09,0a13.33,13.33,0,0,0-1.55.71c-.53.3-1,.63-1.51.95-1.09.72-2.08,1.32-3,1.85-.61.34-1.13.65-1.62,1a17.5,17.5,0,0,0-1.58,1.17l-.78.65c-.23.21-.47.41-.71.61-.48.39-1,.77-1.46,1.15s-1,.68-1.49,1-.85.67-1.32,1.07c-.74.65-1.5,1.39-2.4,2.33a12.46,12.46,0,0,0-2.14,2.87,24.26,24.26,0,0,0-1.46,3.48l-.1.27c-.36,1.06-.74,2.17-1,3.28-.21.75-.39,1.53-.55,2.29-.09.38-.17.76-.26,1.14-.14.58-.3,1.17-.46,1.75s-.28,1.06-.41,1.59-.31,1.23-.47,1.85-.31,1.14-.45,1.72c-.3,1.21-.49,2.47-.67,3.69l0,.18c-.11.77-.21,1.54-.28,2.28ZM443.1,404a18.71,18.71,0,0,1-.05-3.24l.06-.44a20.76,20.76,0,0,1,.86-3c.22-.62.48-1.29.83-2.09a9.36,9.36,0,0,1,.8-1.39c.33-.48.69-.94,1-1.41a8.07,8.07,0,0,1,.8-.83l.64-.49.74-.48a11.36,11.36,0,0,1,1.81-.91c.48-.19,1-.37,1.45-.53a12.8,12.8,0,0,1,1.35-.36l.37-.08c1.09-.24,2.21-.4,3.27-.53a26.28,26.28,0,0,1,3.6-.09l.33,0a4.63,4.63,0,0,1,.65,0l1,.13c.43.05.86.12,1.28.19l.53.09.32.05a14.35,14.35,0,0,1,1.82.38c.72.22,1.47.49,2.36.86.36.18.72.36,1.07.56s.78.47,1.16.72.5.35.74.53l.39.3c.27.21.54.43.8.66l.13.11-.05-.06.34.32c.26.24.52.47.77.72.43.42.84.84,1.24,1.28.56.6,1.08,1.25,1.59,1.88l.35.44a20.82,20.82,0,0,1,1.41,2.48l.28.58.36.72.16.31c.19.37.39.75.55,1.15a10.15,10.15,0,0,1,.35,1.61l0,.1c.06.35.11.7.16,1.05a25.23,25.23,0,0,1-.09,4c-.05.47-.1.93-.16,1.4a19.9,19.9,0,0,1-.52,1.94l-.05.18c-.13.4-.23.81-.33,1.23l0,.21a8.05,8.05,0,0,1-.27,1,15.13,15.13,0,0,1-.84,1.34l-.1.15c-.33.48-.66.94-1,1.41a18.91,18.91,0,0,1-2.92,2.71,8.47,8.47,0,0,1-1.08.66c-.4.2-.8.37-1.21.54l-.19.08-.18.07-.14.05h0a18.31,18.31,0,0,1-3.71.82c-.84.06-1.6.08-2.34.07a19.27,19.27,0,0,1-2.34-.16c-1-.19-2.09-.43-3.13-.73a29.52,29.52,0,0,1-3.5-1.25c-.61-.3-1.22-.6-1.82-.92s-1.08-.62-1.6-.94l-.23-.14a33.51,33.51,0,0,1-3.12-2.17c-.39-.33-.81-.69-1.21-1.07s-.66-.67-1-1l-.25-.28-.19-.21-.18-.2a1,1,0,0,0-.29-.6l-.22-.22-.66-.66a5.59,5.59,0,0,1-.54-.64,9.8,9.8,0,0,1-.65-1.15c-.17-.36-.32-.73-.47-1.1s-.31-.95-.43-1.39-.26-1-.38-1.55a24,24,0,0,1-.37-2.66V404Z" transform="translate(-60.3 -79.14)"/><path class="cls-3" d="M249.05,415.18c-.09,1-.13,1.74-.14,2.46a21.69,21.69,0,0,0,.33,3.22l.07.43.06.44c.07.42.13.85.2,1.27s.18.9.29,1.34l.08.37c.12.53.24,1.06.37,1.59.07.31.13.61.2.92s.1.52.16.78c.14.61.3,1.22.46,1.82a18.94,18.94,0,0,0,.66,1.9l.36.9c.31.78.63,1.56,1,2.33.19.47.41.94.62,1.4l.09.2.06.12c.23.5.47,1,.74,1.51.48.85,1,1.76,1.75,2.85.56.86,1.21,1.75,2,2.79a27.21,27.21,0,0,0,2.06,2.26,1.67,1.67,0,0,0,.23.39l.58.78.68.91c.35.51.67,1,1,1.56l.72,1.15.85,1.28,1.1,1.69c.7,1.08,1.35,2.14,2,3.22l.32.56c.48.81,1,1.66,1.51,2.46l.29.44c.57.87,1.14,1.74,1.73,2.59.8,1.16,1.61,2.3,2.43,3.44.53.74,1.07,1.47,1.61,2.21l.66.88c.74,1,1.38,1.86,2.05,2.7,1.86,2.33,3.33,4.09,4.77,5.71s3.26,3.68,5.12,5.51c.72.71,1.47,1.4,2.21,2.08l.41.39c.86.79,1.88,1.72,2.94,2.61s2,1.59,3,2.32,2,1.45,3,2.16,1.94,1.33,3,1.95c.81.5,1.67,1,2.5,1.4l.79.42a49.25,49.25,0,0,0,6.73,3.09l.44.16a12.29,12.29,0,0,0,1.21.41l.18.05c.53.15,1.06.3,1.6.42,1.48.34,2.8.6,4,.8s2.5.29,3.66.36c.56,0,1.15,0,1.8,0a18,18,0,0,0,4.53-.76,19,19,0,0,0,5.43-2.61c.68-.46,1.23-.85,1.72-1.22a10.9,10.9,0,0,0,1.34-1.28,19.76,19.76,0,0,0,2.29-3.13c.62-1,1.17-2,1.81-3.27.32-.63.61-1.29.85-1.86a27.66,27.66,0,0,0,1.15-3.6l.06-.21c.08-.29.15-.59.23-.89a15.75,15.75,0,0,0,.39-2.17,2.46,2.46,0,0,0,0-.28c0-.63.09-1.27.13-1.9s0-.95,0-1.39V477a5.42,5.42,0,0,0,0-.57v-.54a5.23,5.23,0,0,0,0-.56c-.08-1.28-.18-2.59-.3-4-.1-1-.24-2.06-.38-3.05l-.1-.74c-.06-.44-.14-.88-.22-1.32l-.11-.6-.09-.51c0-.33-.11-.67-.18-1L344,463l-.22-1.11c-.08-.42-.18-.83-.29-1.24l-.14-.54c-.25-1-.56-2.13-.93-3.34l-.36-1.21c-.59-1.93-1.19-3.92-1.74-5.89a73.28,73.28,0,0,0-2.34-7.22c-.54-1.38-1-2.49-1.44-3.51s-.81-1.78-1.22-2.66l-.41-.88c-.49-1.05-1-2.1-1.51-3.14-.15-.32-.31-.65-.47-1-.36-.76-.74-1.55-1.15-2.31l-1-1.83c-.2-.39-.43-.76-.65-1.13l-.36-.6c-.56-1-1.13-1.9-1.72-2.84-.69-1.1-1.38-2.2-2.05-3.31-.58-1-1.22-1.91-1.84-2.82l-.07-.11c-.38-.56-.76-1.12-1.15-1.67s-.75-1-1.14-1.54l-.13-.17c-.7-.91-1.44-1.81-2.15-2.67l-.18-.22c-.27-.32-.55-.63-.83-.93l-.45-.49c-.28-.32-.57-.62-.87-.92l-.39-.4a28.45,28.45,0,0,0-2.7-2.52c-.82-.66-1.69-1.28-2.54-1.87l-.47-.34c-1.05-.74-2.1-1.47-3.16-2.19l-.36-.24c-.81-.55-1.64-1.11-2.49-1.6-1.14-.65-2.16-1.23-3.23-1.78l-.45-.24a55.15,55.15,0,0,0-6.51-3,33.82,33.82,0,0,0-3.39-1c-1.14-.29-2.32-.55-3.61-.81s-2.6-.49-4-.68c-.45-.06-.91-.11-1.36-.15l-.5-.05c-.54-.06-1.09-.11-1.63-.13l-.72,0c-1-.05-2-.1-2.93-.06h-.33a25.35,25.35,0,0,0-3.48.26c-.58.1-1.2.21-1.82.35s-1.19.31-1.78.48l-.12,0c-.54.15-1.08.33-1.61.5l-.52.18c-.4.13-.81.27-1.2.42l-.39.15c-.86.32-1.75.66-2.6,1.06a20.73,20.73,0,0,0-2.92,1.76c-.38.25-.75.5-1.11.77a14.47,14.47,0,0,0-1.56,1.32c-.5.49-1,1-1.48,1.48a18.78,18.78,0,0,0-1.84,2.22c-.44.63-.84,1.29-1.23,1.93s-.67,1.14-1,1.73-.54,1.08-.83,1.73a15.24,15.24,0,0,0-.64,1.6c-.19.56-.34,1.13-.5,1.8-.12.49-.24,1-.35,1.64l-.05.27c-.1.57-.21,1.15-.27,1.73-.05.41-.09.81-.13,1.2ZM313.3,464.3v.08a5.57,5.57,0,0,1-.28.87,9.38,9.38,0,0,1-.79,1.4,4.6,4.6,0,0,1-.56.52,5.83,5.83,0,0,1-1.23-.1l-.19,0a19.69,19.69,0,0,1-4.13-1.11c-.85-.42-1.67-.9-2.43-1.35l-1.17-.71a10.29,10.29,0,0,1-1.12-1.16l-.29-.36c-.62-.77-1.23-1.53-1.82-2.31l-.14-.2c-.17-.25-.34-.49-.53-.73s-.45-.59-.67-.89-.52-.69-.78-1l-.33-.43c-.66-.94-1.3-1.86-1.9-2.8-.41-.66-.84-1.31-1.27-2l-.54-.84c-.25-.38-.49-.76-.73-1.14-.34-.54-.68-1.09-1-1.62-.46-.69-.91-1.43-1.33-2.21-.11-.39-.2-.78-.28-1.17s-.22-1.06-.32-1.59l-.09-.42c-.06-.3-.12-.61-.16-.92a6,6,0,0,1,0-1V441a8.69,8.69,0,0,1,.48-1.6c.06-.1.12-.21.19-.31a5.32,5.32,0,0,1,.62-.63,5.38,5.38,0,0,1,.8-.16c.37,0,.73-.06,1.1-.07a6.92,6.92,0,0,1,1.26.09l.78.15a8.62,8.62,0,0,1,1.37.37,12.22,12.22,0,0,1,1.16.69l.09.06c.33.21.63.45.94.68l.25.2c.58.44,1.15.91,1.71,1.38l.23.19a22.51,22.51,0,0,1,2.52,2.48c.37.44.72.9,1.06,1.36l.12.16c.48.63.94,1.28,1.41,1.92.7,1,1.39,2,2.08,3s1.3,2,1.91,3.06c.46.77.87,1.51,1.28,2.25l.43.78a27,27,0,0,1,1.65,3.48,13,13,0,0,1,.66,2.89,6.3,6.3,0,0,1,0,.87Z" transform="translate(-60.3 -79.14)"/><path class="cls-3" d="M318.13,330.89v.37c-.05.56-.1,1.14-.11,1.71v.44c0,.46,0,.92,0,1.39l0,.52c0,.46,0,.92.08,1.37.06.73.13,1.48.24,2.23a34.8,34.8,0,0,0,.77,3.57c.06.24.11.42.17.6l.07.24.09.3c.05.2.11.41.17.6l.13.36c.21.62.43,1.24.67,1.85a19,19,0,0,0,1.74,3.32l.13.2c.32.5.65,1,1,1.5l.06.08.65.87c.12.15.24.29.37.43l.12.15.32.36.31.36c.16.18.34.35.51.52l.26.26c.41.41.87.8,1.27,1.13s.81.67,1.23,1a12.15,12.15,0,0,0,1.34.8l.14.08a30.13,30.13,0,0,0,3.64,1.62c.54.21,1.1.41,1.68.59a13.37,13.37,0,0,0,1.85.45c.65.13,1.32.22,1.94.3.3,0,.59.07.89.09a8.22,8.22,0,0,0,2.28-.11,14,14,0,0,0,4.9-2.27c.62-.41,1.22-.86,1.81-1.3a16.47,16.47,0,0,0,1.67-1.55l.41-.41c.76-.77,1.49-1.59,2.19-2.39l.29-.33c.39-.45.79-.89,1.17-1.34l.06-.07a17.66,17.66,0,0,0,1.16-1.43c.34-.5.7-1,1-1.57s.53-1,.78-1.49l.08-.18c.2-.39.39-.79.58-1.19.33-.67.65-1.35,1-2,.64-1.24,1.33-2.46,2-3.65.56-1,1.13-2,1.66-3s1.05-2,1.55-3l.12-.26c.21-.43.41-.86.61-1.29.29-.62.59-1.26.91-1.87.77-1.46,1.58-2.92,2.37-4.34.41-.74.82-1.47,1.22-2.22l.07-.11c.54-1,1.1-2,1.59-3.08s1.08-2.38,1.66-3.76c.89-2.12,1.79-4.36,2.69-6.66.46-1.19.91-2.41,1.34-3.63l.34-1c.29-.81.57-1.61.86-2.41l.5-1.32c.27-.72.54-1.44.8-2.16l.07-.19a15.54,15.54,0,0,0,.49-1.55l.14-.54c.09-.39.19-.78.29-1.17l0-.11c.14-.62.29-1.23.42-1.85s.21-1.12.29-1.67l0-.22c.19-1.26.39-2.52.58-3.78.11-.73.2-1.48.28-2.3.05-.49.09-1,.12-1.48a32,32,0,0,0,.08-3.45c0-1.08-.09-2.43-.22-3.72s-.26-2.55-.52-3.84c-.12-.61-.25-1.23-.4-1.84a16.5,16.5,0,0,0-.54-1.59,17.87,17.87,0,0,0-.77-1.81l-.11-.21a15.2,15.2,0,0,0-.8-1.42c-.65-1-1.45-2.19-2.35-3.32a16.26,16.26,0,0,0-1.85-1.86,19.45,19.45,0,0,0-1.57-1.25c-.42-.3-.88-.56-1.33-.82l-.12-.07-1.55-.85a16.69,16.69,0,0,0-3.38-1.4,23,23,0,0,0-3.9-.74,16.85,16.85,0,0,0-3.62,0l-.48.06a29.12,29.12,0,0,0-3.07.45l-.25,0c-.38.08-.76.16-1.14.27s-.88.32-1.3.5l-.2.08c-.56.23-1.1.5-1.55.73l-.16.08c-1,.51-2,1-3,1.64a34.81,34.81,0,0,0-3.32,2.36,32.33,32.33,0,0,0-2.66,2.5c-.9.92-1.73,1.93-2.5,2.88a29.36,29.36,0,0,0-2.12,3c-.62,1-1.21,2.05-1.78,3.06l-.06.1c-.64,1.13-1.28,2.25-1.91,3.38-.29.53-.58,1.07-.85,1.6a16.42,16.42,0,0,0-.75,1.77c-.48,1.27-.85,2.34-1.17,3.36-.36,1.18-.73,2.35-1.1,3.51s-.72,2.25-1,3.37-.5,2.43-.71,3.61-.43,2.41-.73,3.72c-.13.59-.27,1.17-.42,1.76l-.42,1.77c-.14.65-.27,1.3-.4,1.94s-.23,1.15-.35,1.72c-.25,1.14-.52,2.27-.8,3.4l-.16.67-.27,1.09c-.14.54-.32,1.09-.49,1.61l-.46,1.3-.15.41-.14.39a10.65,10.65,0,0,0-.42,1.28q-.15.63-.27,1.26a2,2,0,0,0,0,.24,1.13,1.13,0,0,0,0,.37c-.14.23-.29.48-.42.73-.67,1.22-1.27,2.32-1.79,3.49-.28.64-.56,1.28-.83,1.92a19.14,19.14,0,0,0-1.07,3.74l-.07.37a31.82,31.82,0,0,0-.52,3.27ZM354.68,301c-.05.53-.13,1.06-.21,1.59l-.07.46-.07.42a25.37,25.37,0,0,1-.77,2.91l-.27.93-.6,2c-.07.21-.13.42-.2.63a18.8,18.8,0,0,1-.6,1.79c-.38.77-.82,1.54-1.24,2.25l-.38.65c-.33.56-.65,1.11-1,1.65a51.6,51.6,0,0,1-3,4.36,14.16,14.16,0,0,1-1.07,1.1c-.44.4-.89.81-1.37,1.18a1.47,1.47,0,0,1-.45,0,4.51,4.51,0,0,1-.52-.17,3.79,3.79,0,0,1-.34-.2c-.17-.17-.34-.35-.49-.53l-.07-.11-.05-.08a3.07,3.07,0,0,1-.24-.48c-.19-.53-.35-1.07-.51-1.61l-.1-.33a7.59,7.59,0,0,1-.44-4.2l0-.14v-.16c.06-.67.14-1.33.23-2s.24-1.23.41-1.91l.13-.53a15.58,15.58,0,0,1,.66-2.24l.06-.11.19-.4a1.53,1.53,0,0,0,.15-.42c.37-.42.74-.84,1.12-1.25l.45-.5c.28-.31.57-.62.83-.95s.37-.47.54-.72l.32-.45a14.52,14.52,0,0,0,1.58-2.92c.18-.41.34-.84.5-1.26l.07-.2c.15-.42.33-.82.51-1.23a6.59,6.59,0,0,1,.49-.79,6.34,6.34,0,0,1,.65-.63,8.29,8.29,0,0,1,1.48-.69l.42-.13a3.12,3.12,0,0,1,.61,0,6.08,6.08,0,0,1,1,.3l.36.23a3.81,3.81,0,0,1,.37.43,9.41,9.41,0,0,1,.73,1.28,6.29,6.29,0,0,1,.21,1,13.78,13.78,0,0,1-.05,2.1Z" transform="translate(-60.3 -79.14)"/></svg>