<?xml version="1.0" encoding="utf-8"?>
<!-- Generator: Adobe Illustrator 17.1.0, SVG Export Plug-In . SVG Version: 6.00 Build 0)  -->
<!DOCTYPE svg PUBLIC "-//W3C//DTD SVG 1.1//EN" "http://www.w3.org/Graphics/SVG/1.1/DTD/svg11.dtd">
<svg version="1.1" id="Layer_1" xmlns="http://www.w3.org/2000/svg" xmlns:xlink="http://www.w3.org/1999/xlink" x="0px" y="0px"
	 viewBox="0 0 156.403 127.178" enable-background="new 0 0 156.403 127.178" xml:space="preserve">
<path fill-rule="evenodd" clip-rule="evenodd" d="M2.184,21.832c0,0.823,0.065,1.085-0.85,1.085c-0.117,0-0.327-0.013-0.327,0.157
	c0,0.144,0.105,0.17,0.222,0.17c0.497,0,0.994-0.052,1.491-0.052c0.497,0,0.968,0.052,1.465,0.052c0.118,0,0.222-0.026,0.222-0.17
	c0-0.17-0.222-0.157-0.34-0.157c-0.903-0.013-0.85-0.248-0.85-1.085v-2.434c0-0.444,0.131-0.444,0.654-0.444
	c0.392,0,1.073,0,1.583,0.117c0.288,0.065,0.393,0.458,0.458,0.837c0.013,0.079,0.052,0.223,0.17,0.223
	c0.065,0,0.144-0.025,0.144-0.235c-0.013-0.418-0.039-0.811-0.065-1.229c0.026-0.366,0.052-0.759,0.065-1.125
	c0-0.104-0.078-0.131-0.144-0.131c-0.118,0-0.157,0.144-0.17,0.223c-0.065,0.379-0.131,0.863-0.458,0.902
	c-0.51,0.065-1.19,0.052-1.583,0.052c-0.536,0-0.654,0-0.654-0.614v-1.857c0-0.17-0.026-0.536,0.17-0.628
	c0.209-0.092,0.89-0.092,1.112-0.092c1.164,0,1.949,0.014,2.302,1.256c0.026,0.092,0.079,0.274,0.209,0.274
	c0.196,0,0.131-0.405,0.131-0.51V15.5c0-0.196,0.052-0.458-0.209-0.458c-1.505,0-2.996,0.053-4.487,0.053
	c-0.418,0-0.811-0.053-1.229-0.053c-0.118,0-0.223,0.04-0.223,0.171c0,0.17,0.209,0.183,0.34,0.183c0.903,0,0.85,0.235,0.85,1.047
	V21.832z"/>
<path fill-rule="evenodd" clip-rule="evenodd" d="M11.128,20.145c0.039-0.014,0.105-0.053,0.144-0.053
	c0.131,0,0.092,0.314,0.092,0.366v0.785c0,0.432-0.013,0.654-0.327,0.98c-0.314,0.314-0.759,0.523-1.217,0.523
	c-0.484,0-0.903-0.262-0.903-0.771c0-0.628,0.51-0.968,1.02-1.229L11.128,20.145z M9.872,20.484
	c-0.733,0.34-1.936,0.902-1.936,1.831c0,0.654,0.615,1.033,1.23,1.033c1.138,0,1.988-0.994,2.106-0.994
	c0.183,0,0.248,0.916,0.889,0.916c0.34,0,0.667-0.196,0.929-0.379c0.092-0.079,0.314-0.262,0.314-0.406
	c0-0.052-0.039-0.104-0.091-0.104c-0.118,0-0.262,0.327-0.589,0.327c-0.471,0-0.458-0.759-0.458-1.047v-3.087
	c0-0.354,0.052-0.68-0.262-0.955c-0.301-0.262-0.785-0.34-1.19-0.34c-0.837,0-1.727,0.354-2.342,0.902
	c-0.249,0.21-0.549,0.589-0.549,0.929c0,0.131,0.065,0.157,0.17,0.157c0.157,0,0.432-0.104,0.562-0.17
	c0.209-0.092,0.275-0.274,0.366-0.471c0.301-0.667,0.706-1.099,1.504-1.099c0.811,0,0.837,0.536,0.837,1.177v0.576
	c0,0.497-0.013,0.51-0.484,0.732L9.872,20.484z"/>
<path fill-rule="evenodd" clip-rule="evenodd" d="M15.877,21.112c0-0.497,0.013-0.458,0.406-0.759
	c0.065-0.053,0.196-0.184,0.301-0.184c0.131,0,0.314,0.275,0.379,0.366l1.217,1.597c0.092,0.117,0.314,0.393,0.314,0.549
	c0,0.275-0.314,0.249-0.51,0.249c-0.105,0-0.222,0.078-0.222,0.209c0,0.118,0.117,0.104,0.209,0.104
	c0.406,0,0.824-0.052,1.217-0.052c0.418,0,0.863,0.052,1.282,0.052c0.091,0,0.209,0.014,0.209-0.117
	c0-0.145-0.157-0.196-0.275-0.196c-0.484,0-0.667-0.314-0.955-0.667l-1.975-2.512c-0.052-0.053-0.092-0.092-0.092-0.17
	c0-0.118,0.249-0.288,0.327-0.354l0.994-0.785c0.51-0.393,0.837-0.706,1.504-0.732c0.118,0,0.262-0.013,0.262-0.157
	c0-0.131-0.118-0.104-0.223-0.104h-2.302c-0.104,0-0.288-0.026-0.288,0.118c0,0.223,0.353,0.17,0.497,0.183
	c0.144,0,0.418,0,0.418,0.21c0,0.196-0.392,0.497-0.536,0.614l-1.936,1.531c-0.026,0.025-0.104,0.091-0.144,0.091
	c-0.079,0-0.079-0.209-0.079-0.274v-5.69c0-0.104,0.013-0.209-0.117-0.209c-0.092,0-0.209,0.091-0.275,0.144
	c-0.314,0.209-0.811,0.34-1.177,0.405c-0.079,0.014-0.183,0.053-0.183,0.145c0,0.17,0.222,0.131,0.34,0.131
	c0.628,0,0.51,0.575,0.51,1.059v5.952c0,0.562,0.118,1.008-0.589,1.073c-0.144,0.013-0.366-0.014-0.366,0.183
	c0,0.104,0.092,0.131,0.183,0.131c0.406,0,0.824-0.052,1.243-0.052c0.392,0,0.811,0.052,1.229,0.052
	c0.092,0,0.157-0.039,0.157-0.144c0-0.17-0.235-0.157-0.366-0.17c-0.706-0.065-0.589-0.511-0.589-1.073V21.112z"/>
<path fill-rule="evenodd" clip-rule="evenodd" d="M26.862,17.776c0-0.144,0.065-0.327-0.144-0.327h-1.517
	c-0.104,0-0.183-0.026-0.183,0.092c0,0.17,0.249,0.17,0.366,0.17c0.706,0,0.575,0.497,0.575,1.047v2.498
	c0,0.366,0.052,0.667-0.222,0.968c-0.366,0.406-0.837,0.589-1.4,0.589c-0.484,0-1.047-0.17-1.308-0.602
	c-0.236-0.379-0.236-1.033-0.236-1.465V17.92c0-0.196,0.065-0.471-0.209-0.471h-1.465c-0.104,0-0.17-0.026-0.17,0.079
	c0,0.183,0.236,0.183,0.353,0.183c0.719,0,0.589,0.497,0.589,1.047v1.988c0,0.641-0.026,1.308,0.393,1.844
	c0.379,0.498,0.903,0.759,1.543,0.759c1.19,0,1.805-0.915,2.001-0.915c0.17,0,0.105,0.471,0.105,0.536v0.314
	c0,0.064,0,0.104,0.065,0.104c0.039,0,0.118-0.065,0.144-0.079c0.379-0.287,0.85-0.432,1.308-0.562
	c0.079-0.025,0.275-0.052,0.275-0.17c0-0.092-0.092-0.104-0.17-0.104l-0.17,0.013c-0.628,0.053-0.523-0.353-0.523-0.863V17.776z"/>
<path fill-rule="evenodd" clip-rule="evenodd" d="M30.274,14.232c0-0.104,0.013-0.209-0.118-0.209c-0.092,0-0.209,0.091-0.275,0.144
	c-0.314,0.209-0.811,0.34-1.177,0.405c-0.079,0.014-0.183,0.053-0.183,0.145c0,0.17,0.222,0.131,0.34,0.131
	c0.628,0,0.51,0.575,0.51,1.059v5.952c0,0.562,0.118,1.008-0.589,1.073c-0.144,0.013-0.366-0.014-0.366,0.183
	c0,0.104,0.092,0.131,0.183,0.131c0.406,0,0.824-0.052,1.243-0.052c0.392,0,0.811,0.052,1.23,0.052c0.091,0,0.157-0.039,0.157-0.144
	c0-0.17-0.235-0.157-0.366-0.17c-0.706-0.065-0.589-0.511-0.589-1.073V14.232z"/>
<path fill-rule="evenodd" clip-rule="evenodd" d="M33.332,18.012c0-0.366,0.183-0.288,0.484-0.288h0.732
	c0.301,0,0.406,0.066,0.406-0.209c0-0.104,0-0.183-0.118-0.183h-1.295c-0.183,0-0.209-0.092-0.209-0.262v-0.929
	c0-0.079-0.013-0.157-0.104-0.157c-0.066,0-0.105,0.065-0.131,0.117c-0.301,0.628-0.68,0.955-1.243,1.321
	c-0.065,0.053-0.157,0.105-0.157,0.196c0,0.157,0.34,0.104,0.406,0.104c0.249,0,0.327-0.039,0.327,0.236v3.361
	c0,0.523-0.052,1.19,0.288,1.622c0.222,0.274,0.589,0.405,0.942,0.405c0.458,0,0.89-0.196,1.217-0.497
	c0.092-0.065,0.262-0.235,0.262-0.366c0-0.039-0.039-0.091-0.092-0.091c-0.104,0-0.458,0.457-0.942,0.457
	c-0.785,0-0.772-0.968-0.772-1.53V18.012z"/>
<path fill-rule="evenodd" clip-rule="evenodd" d="M37.162,19.32c-0.144,0-0.445,0.039-0.445-0.171c0-0.209,0.222-0.614,0.327-0.758
	c0.406-0.55,1.033-0.877,1.701-0.877c0.418,0,0.85,0.104,1.138,0.405c0.183,0.196,0.34,0.497,0.34,0.772
	c0,0.313-0.196,0.457-0.484,0.523c-0.379,0.091-1.112,0.104-1.518,0.104H37.162z M41.113,19.634c0.131,0,0.157-0.117,0.157-0.223
	c0-0.432-0.196-0.994-0.458-1.32c-0.458-0.562-1.177-0.812-1.884-0.812c-0.89,0-1.7,0.301-2.355,0.877
	c-0.693,0.602-0.942,1.295-0.942,2.185c0,1.635,1.269,3.008,2.983,3.008c0.811,0,1.452-0.209,2.067-0.732
	c0.092-0.078,0.51-0.432,0.51-0.589c0-0.052-0.039-0.104-0.104-0.104c-0.17,0-0.654,0.851-1.936,0.851
	c-1.583,0-2.538-1.269-2.538-2.734c0-0.432,0.131-0.405,0.536-0.405H41.113z"/>
<path fill-rule="evenodd" clip-rule="evenodd" d="M43.534,18.012c0-0.366,0.183-0.288,0.484-0.288h0.733
	c0.301,0,0.405,0.066,0.405-0.209c0-0.104,0-0.183-0.117-0.183h-1.295c-0.183,0-0.209-0.092-0.209-0.262v-0.929
	c0-0.079-0.013-0.157-0.105-0.157c-0.065,0-0.105,0.065-0.131,0.117c-0.301,0.628-0.68,0.955-1.243,1.321
	c-0.065,0.053-0.157,0.105-0.157,0.196c0,0.157,0.34,0.104,0.406,0.104c0.249,0,0.327-0.039,0.327,0.236v3.361
	c0,0.523-0.052,1.19,0.288,1.622c0.222,0.274,0.589,0.405,0.942,0.405c0.458,0,0.89-0.196,1.217-0.497
	c0.092-0.065,0.262-0.235,0.262-0.366c0-0.039-0.039-0.091-0.092-0.091c-0.105,0-0.458,0.457-0.942,0.457
	c-0.785,0-0.772-0.968-0.772-1.53V18.012z"/>
<path fill-rule="evenodd" clip-rule="evenodd" d="M49.052,20.145c0.039-0.014,0.104-0.053,0.144-0.053
	c0.131,0,0.092,0.314,0.092,0.366v0.785c0,0.432-0.013,0.654-0.327,0.98c-0.314,0.314-0.759,0.523-1.217,0.523
	c-0.484,0-0.903-0.262-0.903-0.771c0-0.628,0.51-0.968,1.021-1.229L49.052,20.145z M47.796,20.484
	c-0.732,0.34-1.936,0.902-1.936,1.831c0,0.654,0.615,1.033,1.23,1.033c1.138,0,1.988-0.994,2.106-0.994
	c0.183,0,0.249,0.916,0.89,0.916c0.34,0,0.667-0.196,0.929-0.379c0.092-0.079,0.314-0.262,0.314-0.406
	c0-0.052-0.039-0.104-0.092-0.104c-0.118,0-0.261,0.327-0.589,0.327c-0.471,0-0.458-0.759-0.458-1.047v-3.087
	c0-0.354,0.052-0.68-0.262-0.955c-0.301-0.262-0.785-0.34-1.19-0.34c-0.837,0-1.727,0.354-2.342,0.902
	c-0.249,0.21-0.549,0.589-0.549,0.929c0,0.131,0.065,0.157,0.17,0.157c0.157,0,0.432-0.104,0.562-0.17
	c0.209-0.092,0.275-0.274,0.366-0.471c0.301-0.667,0.706-1.099,1.504-1.099c0.811,0,0.837,0.536,0.837,1.177v0.576
	c0,0.497-0.013,0.51-0.484,0.732L47.796,20.484z"/>
<path fill-rule="evenodd" clip-rule="evenodd" fill="#B4162C" d="M56.469,22.276c-0.353,0-1.217,0.262-1.217,0.693
	c0,0.183,0.104,0.262,0.288,0.262c0.406,0,0.837-0.72,1.243-0.72c0.275,0,0.641,0.21,1.086,0.419
	c0.432,0.209,0.942,0.418,1.452,0.418c0.51,0,1.073-0.17,1.426-0.549c0.248-0.262,0.432-0.667,0.432-1.021
	c0-0.118-0.039-0.536-0.222-0.536c-0.052,0-0.105,0.039-0.105,0.092c0,0.078,0.065,0.209,0.065,0.366
	c0,0.497-0.471,0.759-0.929,0.759c-0.209,0-0.419-0.053-0.628-0.105c-0.536-0.117-1.021-0.222-1.583-0.222
	c-0.327,0-0.654,0.039-0.981,0.144l1.975-1.648l2.041-1.831c0.431-0.38,0.51-0.419,1.007-0.72c0.17-0.104,0.759-0.393,0.759-0.667
	c0-0.144-0.157-0.196-0.288-0.196c-0.379,0-0.772,0.562-1.02,0.812l-0.301,0.025c-0.562,0.053-1.033-0.209-1.478-0.432
	c-0.432-0.209-0.837-0.418-1.282-0.418c-0.929,0-1.622,0.667-1.622,1.596c0,0.092-0.013,0.393,0.157,0.393
	c0.104,0,0.078-0.157,0.078-0.223c-0.026-0.575,0.327-0.851,0.89-0.851c0.314,0,0.602,0.079,0.916,0.157
	c0.432,0.104,0.876,0.196,1.321,0.196c0.393,0,0.772-0.078,1.138-0.196c-1.295,0.876-2.525,1.832-3.611,2.97L56.9,21.845
	L56.469,22.276z"/>
<path fill-rule="evenodd" clip-rule="evenodd" fill="#B4162C" d="M68.162,18.13c0,0.602-1.073,2.093-1.439,2.551
	c-0.458,0.575-1.622,1.975-2.42,1.975c-0.419,0-0.602-0.432-0.602-0.798c0-0.823,0.693-2.146,1.19-2.772
	c0.55-0.72,1.478-1.636,2.433-1.636C67.769,17.449,68.162,17.646,68.162,18.13z M68.358,17.658
	c-0.275-0.353-0.562-0.457-1.007-0.457c-1.19,0-2.368,0.745-3.166,1.582c-0.746,0.785-1.504,2.106-1.504,3.219
	c0,0.641,0.301,1.347,1.033,1.347c1.543,0,3.296-2.498,4.029-3.701l-0.798,2.59c-0.065,0.223-0.144,0.484-0.144,0.732
	c0,0.223,0.118,0.379,0.353,0.379c0.523,0,1.229-0.614,1.557-0.968c0.157-0.17,0.693-0.85,0.693-1.086
	c0-0.052-0.039-0.104-0.092-0.104c-0.091,0-0.183,0.17-0.222,0.235c-0.157,0.249-0.771,1.073-1.099,1.073
	c-0.105,0-0.131-0.092-0.131-0.196c0-0.118,0.079-0.327,0.105-0.432l1.347-4.422c0.013-0.052,0.065-0.196,0.065-0.262
	c0-0.183-0.366-0.117-0.445-0.117c-0.432,0-0.406,0.065-0.536,0.471L68.358,17.658z"/>
<path fill-rule="evenodd" clip-rule="evenodd" fill="#B4162C" d="M79.15,18.077c0,0.602-0.968,2.054-1.321,2.538
	c-0.484,0.641-1.609,2.093-2.512,2.093c-0.484,0-0.602-0.458-0.602-0.863c0-0.941,0.589-2.119,1.151-2.852
	c0.55-0.693,1.583-1.557,2.512-1.557C78.757,17.437,79.15,17.658,79.15,18.077z M79.32,17.633c-0.17-0.314-0.484-0.432-0.837-0.432
	c-1.125,0-2.328,0.628-3.139,1.399c-0.837,0.798-1.609,2.067-1.609,3.257c0,0.693,0.314,1.491,1.125,1.491
	c1.491,0,2.956-2.289,3.741-3.375l-0.523,1.714c-0.105,0.34-0.236,0.798-0.236,1.151c0,0.301,0.079,0.51,0.406,0.51
	c0.549,0,1.295-0.759,1.609-1.138c0.131-0.157,0.536-0.693,0.536-0.929c0-0.039-0.013-0.092-0.065-0.092
	c-0.092,0-0.144,0.104-0.196,0.17c-0.157,0.275-0.824,1.19-1.138,1.19c-0.131,0-0.183-0.117-0.183-0.222
	c0-0.184,0.079-0.366,0.131-0.523l2.237-7.3c0.013-0.052,0.078-0.248,0.078-0.313s-0.039-0.118-0.105-0.118
	c-0.039,0-0.092,0.039-0.118,0.053c-0.432,0.327-0.981,0.471-1.504,0.497c-0.131,0-0.392-0.014-0.392,0.17
	c0,0.092,0.065,0.144,0.157,0.144l0.209-0.013c0.222-0.013,0.51,0.026,0.51,0.327c0,0.117-0.105,0.432-0.131,0.536L79.32,17.633z"/>
<path fill-rule="evenodd" clip-rule="evenodd" fill="#B4162C" d="M81.687,22.655c-0.013,0.053-0.092,0.302-0.092,0.367
	c0,0.195,0.249,0.17,0.366,0.17c0.523,0,0.484-0.104,0.628-0.589c0.249-0.837,1.099-2.446,1.583-3.205
	c0.144-0.235,0.942-1.413,1.295-1.413s-0.013,0.642,0.641,0.642c0.392,0,0.602-0.419,0.602-0.772c0-0.405-0.262-0.653-0.654-0.653
	c-1.125,0-2.407,2.643-2.891,3.506l0.562-1.845c0.092-0.288,0.183-0.576,0.183-0.89c0-0.288-0.091-0.771-0.484-0.771
	c-0.432,0-1.034,0.536-1.308,0.85c-0.131,0.145-0.667,0.772-0.667,0.981c0,0.053,0.039,0.092,0.091,0.092
	c0.079,0,0.157-0.145,0.196-0.196l0.118-0.17c0.157-0.223,0.667-0.877,0.968-0.877c0.144,0,0.17,0.157,0.17,0.275
	c0,0.235-0.092,0.522-0.157,0.759L81.687,22.655z"/>
<path fill-rule="evenodd" clip-rule="evenodd" fill="#B4162C" d="M91.431,19.857l-0.576,1.857c-0.092,0.313-0.236,0.824-0.236,1.151
	c0,0.223,0.079,0.483,0.354,0.483c0.615,0,1.413-0.653,1.792-1.085c0.105-0.118,0.667-0.824,0.667-1.008
	c0-0.052-0.039-0.092-0.092-0.092c-0.065,0-0.118,0.092-0.157,0.145c-0.209,0.353-0.929,1.295-1.373,1.295
	c-0.144,0-0.209-0.144-0.209-0.262c0-0.157,0.065-0.393,0.117-0.55l1.269-4.146c0.026-0.078,0.079-0.223,0.079-0.313
	c0-0.196-0.34-0.131-0.445-0.131c-0.497,0-0.405,0.065-0.549,0.549c-0.406,1.309-1.046,2.473-1.949,3.506
	c-0.366,0.432-1.452,1.505-2.067,1.505c-0.235,0-0.353-0.145-0.353-0.366c0-0.184,0.092-0.458,0.144-0.628l1.046-3.127
	c0.092-0.262,0.196-0.589,0.196-0.863s-0.092-0.575-0.419-0.575c-0.484,0-1.138,0.562-1.439,0.863
	c-0.131,0.144-0.707,0.851-0.707,1.072c0,0.053,0.013,0.079,0.065,0.079c0.118,0,0.236-0.21,0.288-0.288
	c0.17-0.249,0.759-1.021,1.099-1.021c0.144,0,0.183,0.104,0.183,0.223c0,0.131-0.105,0.393-0.144,0.51l-1.02,2.97
	c-0.105,0.301-0.249,0.745-0.249,1.06c0,0.393,0.144,0.68,0.562,0.68c0.798,0,1.688-0.667,2.25-1.177
	c0.798-0.72,1.177-1.321,1.779-2.185L91.431,19.857z"/>
<path fill-rule="evenodd" clip-rule="evenodd" fill="#B4162C" d="M94.885,22.276c-0.354,0-1.217,0.262-1.217,0.693
	c0,0.183,0.105,0.262,0.288,0.262c0.406,0,0.837-0.72,1.243-0.72c0.275,0,0.641,0.21,1.085,0.419
	c0.432,0.209,0.942,0.418,1.452,0.418c0.51,0,1.073-0.17,1.426-0.549c0.249-0.262,0.432-0.667,0.432-1.021
	c0-0.118-0.039-0.536-0.222-0.536c-0.052,0-0.105,0.039-0.105,0.092c0,0.078,0.065,0.209,0.065,0.366
	c0,0.497-0.471,0.759-0.929,0.759c-0.209,0-0.419-0.053-0.628-0.105c-0.536-0.117-1.021-0.222-1.583-0.222
	c-0.327,0-0.654,0.039-0.981,0.144l1.975-1.648l2.041-1.831c0.432-0.38,0.51-0.419,1.007-0.72c0.17-0.104,0.759-0.393,0.759-0.667
	c0-0.144-0.157-0.196-0.288-0.196c-0.379,0-0.772,0.562-1.02,0.812l-0.301,0.025c-0.562,0.053-1.033-0.209-1.478-0.432
	c-0.432-0.209-0.837-0.418-1.282-0.418c-0.929,0-1.622,0.667-1.622,1.596c0,0.092-0.013,0.393,0.157,0.393
	c0.105,0,0.079-0.157,0.079-0.223c-0.026-0.575,0.327-0.851,0.89-0.851c0.314,0,0.602,0.079,0.916,0.157
	c0.432,0.104,0.876,0.196,1.321,0.196c0.393,0,0.772-0.078,1.138-0.196c-1.295,0.876-2.525,1.832-3.611,2.97l-0.575,0.602
	L94.885,22.276z M98.469,15.866l-0.641-1.321c-0.157-0.34-0.131-0.353-0.536-0.353c-0.078,0-0.222-0.014-0.222,0.104
	c0,0.092,0.118,0.274,0.157,0.354l0.667,1.295c0.196,0.379,0.131,0.34,0.576,0.34c0.261,0,0.275,0,0.471-0.157l1.831-1.518
	c0.078-0.065,0.249-0.17,0.249-0.301c0-0.144-0.183-0.117-0.288-0.117c-0.288,0-0.301,0.025-0.523,0.222L98.469,15.866z"/>
<path fill-rule="evenodd" clip-rule="evenodd" fill="#B4162C" d="M106.238,18.954c0,1.569-1.622,4.173-3.349,4.173
	c-0.536,0-0.968-0.262-0.968-0.838c0-1.242,2.237-4.486,3.584-4.486C106.107,17.803,106.238,18.483,106.238,18.954z M101.529,20.301
	c-0.144,0.484-0.34,1.008-0.34,1.531c0,1.033,0.746,1.517,1.727,1.517c2.211,0,4.304-2.197,4.304-4.395
	c0-0.824-0.379-1.753-1.334-1.753c-1.269,0-2.852,1.948-3.427,2.982l1.805-5.979c0-0.092-0.039-0.131-0.117-0.131
	c-0.052,0-0.105,0.026-0.131,0.053c-0.458,0.287-0.824,0.327-1.347,0.327c-0.131,0-0.406,0.025-0.406,0.209
	c0,0.157,0.38,0.131,0.458,0.131c0.209,0,0.353,0.053,0.353,0.301c0,0.157-0.105,0.497-0.157,0.654L101.529,20.301z"/>
<path fill-rule="evenodd" clip-rule="evenodd" fill="#B4162C" d="M108.723,20.511c0.301-1.229,1.282-3.062,2.734-3.062
	c0.484,0,0.772,0.262,0.772,0.746c0,0.432-0.183,0.876-0.445,1.216C111.183,20.196,109.678,20.432,108.723,20.511z M108.671,20.773
	l0.17-0.026c1.387-0.21,4.304-0.405,4.304-2.303c0-0.824-0.785-1.242-1.517-1.242c-2.028,0-4.003,2.08-4.003,4.094
	c0,1.125,0.706,2.054,1.884,2.054c0.955,0,1.845-0.575,2.473-1.269c0.065-0.078,0.34-0.393,0.34-0.51
	c0-0.065-0.026-0.092-0.092-0.092s-0.105,0.053-0.144,0.104c-0.432,0.615-1.295,1.19-2.054,1.19c-0.929,0-1.387-0.641-1.387-1.504
	v-0.301L108.671,20.773z"/>
<path fill-rule="evenodd" clip-rule="evenodd" fill="#B4162C" d="M120.065,18.889c0.104-0.275,0.249-0.654,0.249-0.955
	c0-0.471-0.366-0.732-0.811-0.732c-1.688,0-3.218,2.302-3.938,3.61l-0.026-0.026l0.562-1.792c0.105-0.354,0.222-0.772,0.222-1.151
	s-0.131-0.641-0.536-0.641c-0.549,0-1.229,0.653-1.557,1.046c-0.105,0.105-0.562,0.707-0.562,0.851c0,0.065,0.052,0.092,0.104,0.092
	c0.078,0,0.118-0.079,0.144-0.145c0.157-0.274,0.876-1.15,1.217-1.15c0.196,0,0.261,0.144,0.261,0.313
	c0,0.223-0.092,0.511-0.157,0.72l-1.164,3.807c-0.026,0.065-0.078,0.235-0.078,0.301c0,0.223,0.275,0.157,0.406,0.157
	c0.419,0,0.419-0.065,0.536-0.445c0.314-1.021,1.321-2.76,2.014-3.584c0.406-0.471,1.23-1.439,1.923-1.439
	c0.301,0,0.458,0.171,0.458,0.458c0,0.235-0.105,0.484-0.183,0.707l-0.929,2.472c-0.157,0.406-0.353,0.955-0.353,1.4
	c0,0.379,0.17,0.588,0.562,0.588c0.536,0,1.321-0.759,1.661-1.138c0.104-0.104,0.589-0.706,0.589-0.876
	c0-0.053-0.052-0.092-0.092-0.092c-0.079,0-0.131,0.078-0.157,0.131c-0.222,0.327-0.955,1.242-1.374,1.242
	c-0.157,0-0.249-0.091-0.249-0.262c0-0.183,0.131-0.497,0.196-0.667L120.065,18.889z"/>
<path fill-rule="evenodd" clip-rule="evenodd" fill="#B4162C" d="M122.511,20.511c0.301-1.229,1.282-3.062,2.734-3.062
	c0.484,0,0.772,0.262,0.772,0.746c0,0.432-0.183,0.876-0.445,1.216C124.97,20.196,123.466,20.432,122.511,20.511z M122.458,20.773
	l0.17-0.026c1.387-0.21,4.304-0.405,4.304-2.303c0-0.824-0.785-1.242-1.517-1.242c-2.028,0-4.003,2.08-4.003,4.094
	c0,1.125,0.706,2.054,1.884,2.054c0.955,0,1.845-0.575,2.473-1.269c0.065-0.078,0.34-0.393,0.34-0.51
	c0-0.065-0.026-0.092-0.092-0.092c-0.066,0-0.105,0.053-0.144,0.104c-0.432,0.615-1.295,1.19-2.054,1.19
	c-0.929,0-1.387-0.641-1.387-1.504v-0.301L122.458,20.773z"/>
<path fill-rule="evenodd" clip-rule="evenodd" fill="#B4162C" d="M133.263,18.613c0.118-0.301,0.249-0.614,0.249-0.941
	c0-0.301-0.157-0.471-0.458-0.471c-0.34,0-0.759,0.274-1.02,0.471c-0.419,0.313-0.641,0.536-0.942,0.955
	c-0.039,0.065-0.17,0.235-0.17,0.313c0,0.053,0.026,0.104,0.078,0.104c0.065,0,0.131-0.078,0.157-0.117
	c0.17-0.262,0.876-1.086,1.204-1.086c0.118,0,0.183,0.078,0.183,0.196c0,0.144-0.144,0.444-0.196,0.575l-0.942,2.329
	c-0.131,0.327-0.366,0.941-0.366,1.281c0,0.812,0.432,1.125,1.19,1.125c2.146,0,4.343-3.388,4.343-5.337
	c0-0.313-0.131-0.941-0.536-0.941c-0.275,0-0.445,0.34-0.445,0.575c0,0.262,0.118,0.445,0.249,0.641
	c0.118,0.184,0.157,0.314,0.157,0.537c0,1.399-1.884,4.094-3.388,4.094c-0.393,0-0.667-0.301-0.667-0.68
	c0-0.314,0.144-0.693,0.261-0.994L133.263,18.613z"/>
<path fill-rule="evenodd" clip-rule="evenodd" fill="#B4162C" d="M137.842,20.511c0.301-1.229,1.282-3.062,2.734-3.062
	c0.484,0,0.772,0.262,0.772,0.746c0,0.432-0.183,0.876-0.445,1.216C140.301,20.196,138.797,20.432,137.842,20.511z M137.79,20.773
	l0.17-0.026c1.387-0.21,4.304-0.405,4.304-2.303c0-0.824-0.785-1.242-1.517-1.242c-2.028,0-4.003,2.08-4.003,4.094
	c0,1.125,0.706,2.054,1.884,2.054c0.955,0,1.844-0.575,2.473-1.269c0.065-0.078,0.34-0.393,0.34-0.51
	c0-0.065-0.026-0.092-0.092-0.092c-0.065,0-0.104,0.053-0.144,0.104c-0.432,0.615-1.295,1.19-2.054,1.19
	c-0.929,0-1.387-0.641-1.387-1.504v-0.301L137.79,20.773z"/>
<path fill-rule="evenodd" clip-rule="evenodd" fill="#B4162C" d="M147.915,18.077c0,0.602-0.968,2.054-1.321,2.538
	c-0.484,0.641-1.609,2.093-2.511,2.093c-0.484,0-0.602-0.458-0.602-0.863c0-0.941,0.589-2.119,1.151-2.852
	c0.55-0.693,1.583-1.557,2.511-1.557C147.523,17.437,147.915,17.658,147.915,18.077z M148.085,17.633
	c-0.17-0.314-0.484-0.432-0.837-0.432c-1.125,0-2.328,0.628-3.139,1.399c-0.837,0.798-1.609,2.067-1.609,3.257
	c0,0.693,0.314,1.491,1.125,1.491c1.491,0,2.956-2.289,3.741-3.375l-0.523,1.714c-0.105,0.34-0.235,0.798-0.235,1.151
	c0,0.301,0.078,0.51,0.406,0.51c0.549,0,1.295-0.759,1.609-1.138c0.131-0.157,0.536-0.693,0.536-0.929
	c0-0.039-0.013-0.092-0.065-0.092c-0.092,0-0.144,0.104-0.196,0.17c-0.157,0.275-0.824,1.19-1.138,1.19
	c-0.131,0-0.183-0.117-0.183-0.222c0-0.184,0.078-0.366,0.131-0.523l2.237-7.3c0.013-0.052,0.078-0.248,0.078-0.313
	s-0.039-0.118-0.104-0.118c-0.039,0-0.092,0.039-0.118,0.053c-0.432,0.327-0.981,0.471-1.504,0.497c-0.131,0-0.392-0.014-0.392,0.17
	c0,0.092,0.065,0.144,0.157,0.144l0.209-0.013c0.222-0.013,0.51,0.026,0.51,0.327c0,0.117-0.104,0.432-0.131,0.536L148.085,17.633z"
	/>
<path fill-rule="evenodd" clip-rule="evenodd" fill="#B4162C" d="M150.989,20.511c0.301-1.229,1.282-3.062,2.734-3.062
	c0.484,0,0.772,0.262,0.772,0.746c0,0.432-0.183,0.876-0.445,1.216C153.448,20.196,151.944,20.432,150.989,20.511z M150.936,20.773
	l0.17-0.026c1.387-0.21,4.304-0.405,4.304-2.303c0-0.824-0.785-1.242-1.517-1.242c-2.028,0-4.003,2.08-4.003,4.094
	c0,1.125,0.707,2.054,1.884,2.054c0.955,0,1.844-0.575,2.472-1.269c0.065-0.078,0.34-0.393,0.34-0.51
	c0-0.065-0.026-0.092-0.092-0.092s-0.104,0.053-0.144,0.104c-0.432,0.615-1.295,1.19-2.054,1.19c-0.929,0-1.386-0.641-1.386-1.504
	v-0.301L150.936,20.773z"/>
<path fill-rule="evenodd" clip-rule="evenodd" d="M29.413,7.494c0,0.654,0.013,1.243-0.471,1.74
	c-0.536,0.536-1.374,0.706-2.119,0.706c-0.719,0-1.714-0.183-2.119-0.85c-0.301-0.484-0.275-1.439-0.275-2.015V3.387
	c0-0.824-0.066-1.072,0.85-1.072c0.118,0,0.34,0,0.34-0.17c0-0.145-0.105-0.184-0.222-0.184c-0.497,0-0.994,0.053-1.491,0.053
	c-0.497,0-0.968-0.053-1.465-0.053c-0.131,0-0.223,0.039-0.223,0.184c0,0.17,0.209,0.17,0.327,0.17c0.916,0,0.85,0.248,0.85,1.072
	v4.107c0,0.863-0.013,1.609,0.772,2.172c0.654,0.458,1.661,0.602,2.433,0.602c0.863,0,1.805-0.131,2.459-0.693
	c0.707-0.614,0.719-1.242,0.719-2.08V3.413c0-0.602-0.065-1.099,0.68-1.099c0.118,0,0.419,0,0.419-0.184
	c0-0.156-0.17-0.17-0.275-0.17c-0.34,0-0.68,0.053-1.021,0.053c-0.392,0-0.785-0.053-1.177-0.053c-0.131,0-0.275,0.039-0.275,0.184
	c0,0.183,0.235,0.17,0.353,0.17c0.301,0,0.628,0.013,0.785,0.301c0.157,0.262,0.144,0.981,0.144,1.295V7.494z"/>
<path fill-rule="evenodd" clip-rule="evenodd" d="M31.74,8.776c0,0.562,0.118,1.008-0.589,1.072
	c-0.144,0.014-0.366-0.013-0.366,0.184c0,0.104,0.092,0.131,0.183,0.131c0.406,0,0.824-0.053,1.243-0.053
	c0.392,0,0.811,0.053,1.23,0.053c0.091,0,0.157-0.039,0.157-0.144c0-0.171-0.236-0.157-0.366-0.171
	c-0.706-0.064-0.589-0.51-0.589-1.072V6.579c0-0.523,0.039-0.812,0.419-1.204c0.34-0.353,0.798-0.562,1.295-0.562
	c0.51,0,0.981,0.21,1.23,0.589c0.235,0.354,0.235,0.877,0.235,1.295v2.08c0,0.562,0.118,1.008-0.589,1.072
	c-0.144,0.014-0.366-0.013-0.366,0.184c0,0.104,0.092,0.131,0.183,0.131c0.405,0,0.824-0.053,1.242-0.053
	c0.393,0,0.811,0.053,1.23,0.053c0.092,0,0.157-0.039,0.157-0.144c0-0.171-0.235-0.157-0.366-0.171
	c-0.707-0.064-0.589-0.51-0.589-1.072V6.71c0-0.628,0.026-1.27-0.393-1.806c-0.366-0.471-0.889-0.706-1.543-0.706
	c-1.19,0-1.923,1.072-2.146,1.072V4.407c0-0.092,0.013-0.209-0.118-0.209c-0.104,0-0.17,0.104-0.236,0.17
	c-0.209,0.248-0.772,0.589-1.086,0.681c-0.118,0.039-0.301,0.064-0.301,0.222c0,0.079,0.079,0.104,0.157,0.104h0.17
	c0.105,0,0.301,0.014,0.38,0.104c0.144,0.145,0.131,0.654,0.131,0.838V8.776z"/>
<path fill-rule="evenodd" clip-rule="evenodd" d="M39.743,3.06c0.38,0,0.576-0.301,0.576-0.653c0-0.314-0.209-0.628-0.549-0.628
	c-0.353,0-0.589,0.313-0.589,0.653C39.181,2.773,39.39,3.06,39.743,3.06z M40.201,4.407c0-0.092,0.013-0.209-0.118-0.209
	c-0.105,0-0.17,0.104-0.235,0.17c-0.209,0.248-0.772,0.589-1.086,0.681c-0.118,0.039-0.301,0.064-0.301,0.222
	c0,0.079,0.078,0.104,0.157,0.104h0.17c0.105,0,0.301,0.014,0.379,0.104c0.144,0.145,0.131,0.654,0.131,0.838v2.459
	c0,0.562,0.118,1.008-0.589,1.072c-0.144,0.014-0.366-0.013-0.366,0.184c0,0.104,0.092,0.131,0.183,0.131
	c0.406,0,0.824-0.053,1.243-0.053c0.393,0,0.811,0.053,1.23,0.053c0.092,0,0.157-0.039,0.157-0.144c0-0.171-0.235-0.157-0.366-0.171
	c-0.706-0.064-0.589-0.51-0.589-1.072V4.407z"/>
<path fill-rule="evenodd" clip-rule="evenodd" d="M44.66,8.92l-1.334-3.27c-0.065-0.157-0.209-0.484-0.209-0.654
	c0-0.249,0.249-0.366,0.484-0.366c0.091,0,0.366,0.039,0.366-0.118s-0.131-0.144-0.249-0.144H41.35
	c-0.104,0-0.196-0.014-0.196,0.118c0,0.144,0.144,0.144,0.249,0.144c0.549,0.025,0.615,0.274,0.811,0.759l1.897,4.578l0.079,0.17
	c0.013,0.053,0.052,0.131,0.118,0.131c0.105,0,0.196-0.262,0.222-0.301l1.871-4.055c0.222-0.484,0.458-1.204,1.073-1.282
	c0.105-0.014,0.327-0.014,0.327-0.17c0-0.118-0.065-0.092-0.17-0.092h-1.923c-0.104,0-0.196,0-0.196,0.118
	c0,0.144,0.235,0.144,0.353,0.144c0.236,0,0.51,0.092,0.51,0.353c0,0.157-0.105,0.419-0.17,0.562L44.66,8.92z"/>
<path fill-rule="evenodd" clip-rule="evenodd" d="M48.82,6.238c-0.144,0-0.445,0.04-0.445-0.17c0-0.209,0.222-0.614,0.327-0.759
	c0.406-0.549,1.033-0.876,1.701-0.876c0.418,0,0.85,0.104,1.138,0.405c0.183,0.196,0.34,0.497,0.34,0.771
	c0,0.314-0.196,0.458-0.484,0.523c-0.379,0.092-1.112,0.104-1.518,0.104H48.82z M52.771,6.553c0.131,0,0.157-0.118,0.157-0.223
	c0-0.432-0.196-0.994-0.458-1.321c-0.458-0.562-1.177-0.811-1.884-0.811c-0.889,0-1.7,0.301-2.354,0.876
	c-0.693,0.602-0.942,1.295-0.942,2.185c0,1.636,1.269,3.009,2.982,3.009c0.811,0,1.452-0.209,2.067-0.732
	c0.092-0.078,0.51-0.432,0.51-0.589c0-0.052-0.039-0.104-0.104-0.104c-0.17,0-0.654,0.851-1.936,0.851
	c-1.583,0-2.538-1.27-2.538-2.734c0-0.432,0.131-0.405,0.536-0.405H52.771z"/>
<path fill-rule="evenodd" clip-rule="evenodd" d="M54.237,8.776c0,0.562,0.118,1.008-0.589,1.072
	c-0.144,0.014-0.366-0.013-0.366,0.184c0,0.104,0.092,0.131,0.183,0.131c0.406,0,0.824-0.053,1.243-0.053
	c0.392,0,0.811,0.053,1.23,0.053c0.091,0,0.157-0.039,0.157-0.144c0-0.171-0.236-0.157-0.366-0.171
	c-0.706-0.064-0.589-0.51-0.589-1.072V6.71c0-0.523-0.026-0.864,0.301-1.309c0.144-0.196,0.38-0.471,0.667-0.471
	c0.366,0,0.392,0.497,0.837,0.497c0.314,0,0.549-0.196,0.549-0.523c0-0.393-0.353-0.628-0.745-0.628
	c-0.903,0-1.413,1.047-1.544,1.047c-0.092,0-0.065-0.223-0.065-0.274V4.407c0-0.092,0.013-0.209-0.118-0.209
	c-0.105,0-0.17,0.104-0.236,0.17c-0.209,0.248-0.772,0.589-1.086,0.681C53.583,5.088,53.4,5.113,53.4,5.271
	c0,0.079,0.079,0.104,0.157,0.104h0.17c0.105,0,0.301,0.014,0.38,0.104c0.144,0.145,0.131,0.654,0.131,0.838V8.776z"/>
<path fill-rule="evenodd" clip-rule="evenodd" d="M62.816,4.839c0.052-0.065,0.209-0.274,0.209-0.379
	c0-0.118-0.157-0.092-0.236-0.092h-3.192c-0.327,0-0.667,0.026-0.667-0.38c0-0.091-0.013-0.209-0.131-0.209
	c-0.131,0-0.209,0.288-0.235,0.366l-0.34,0.994c-0.013,0.039-0.092,0.249-0.092,0.301c0,0.065,0.052,0.104,0.118,0.104
	c0.105,0,0.17-0.13,0.222-0.209c0.144-0.209,0.419-0.432,0.654-0.536c0.314-0.145,0.719-0.104,1.046-0.104h1.308
	c0.065,0,0.222,0,0.222,0.092c0,0.078-0.118,0.235-0.157,0.287l-3.479,4.604c-0.026,0.053-0.183,0.223-0.183,0.302
	c0,0.195,0.366,0.13,0.471,0.13h4.448C63.065,10.137,63,9.81,63,9.653l0.026-0.642c0-0.092,0.065-0.497-0.118-0.497
	c-0.131,0-0.157,0.17-0.183,0.262c-0.131,0.34-0.262,0.654-0.589,0.837c-0.34,0.184-0.916,0.196-1.308,0.196H59.69
	c-0.052,0-0.458,0.026-0.458-0.104c0-0.092,0.157-0.274,0.209-0.327L62.816,4.839z"/>
<path fill-rule="evenodd" clip-rule="evenodd" d="M66.989,7.063c0.04-0.013,0.105-0.052,0.144-0.052
	c0.131,0,0.092,0.313,0.092,0.366v0.784c0,0.433-0.013,0.654-0.327,0.981c-0.314,0.314-0.759,0.523-1.217,0.523
	c-0.484,0-0.903-0.262-0.903-0.771c0-0.628,0.51-0.969,1.02-1.229L66.989,7.063z M65.734,7.403c-0.732,0.34-1.936,0.902-1.936,1.831
	c0,0.654,0.615,1.033,1.23,1.033c1.138,0,1.988-0.994,2.106-0.994c0.183,0,0.249,0.916,0.889,0.916c0.34,0,0.667-0.196,0.929-0.38
	c0.092-0.078,0.314-0.262,0.314-0.405c0-0.052-0.039-0.104-0.091-0.104c-0.118,0-0.262,0.327-0.589,0.327
	c-0.471,0-0.458-0.759-0.458-1.047V5.493c0-0.354,0.052-0.681-0.261-0.955c-0.301-0.262-0.785-0.34-1.191-0.34
	c-0.837,0-1.727,0.353-2.342,0.902c-0.248,0.209-0.549,0.589-0.549,0.929c0,0.131,0.065,0.157,0.17,0.157
	c0.157,0,0.432-0.104,0.563-0.17c0.209-0.092,0.275-0.275,0.366-0.472c0.301-0.667,0.707-1.099,1.504-1.099
	c0.811,0,0.837,0.536,0.837,1.178v0.575c0,0.497-0.013,0.511-0.484,0.732L65.734,7.403z"/>
<path fill-rule="evenodd" clip-rule="evenodd" d="M76.846,5.532c0.118-0.301,0.249-0.615,0.249-0.941
	c0-0.302-0.157-0.472-0.458-0.472c-0.34,0-0.759,0.275-1.021,0.472c-0.418,0.313-0.641,0.536-0.942,0.954
	c-0.039,0.065-0.17,0.236-0.17,0.314c0,0.053,0.026,0.104,0.078,0.104c0.066,0,0.131-0.078,0.157-0.118
	c0.17-0.261,0.876-1.085,1.204-1.085c0.118,0,0.183,0.078,0.183,0.196c0,0.144-0.144,0.444-0.196,0.575L74.988,7.86
	c-0.131,0.327-0.366,0.942-0.366,1.282c0,0.812,0.432,1.125,1.19,1.125c2.145,0,4.343-3.388,4.343-5.337
	c0-0.314-0.131-0.942-0.536-0.942c-0.275,0-0.445,0.341-0.445,0.576c0,0.262,0.118,0.444,0.249,0.641
	C79.54,5.389,79.58,5.52,79.58,5.741c0,1.4-1.884,4.095-3.388,4.095c-0.392,0-0.667-0.301-0.667-0.68
	c0-0.314,0.144-0.693,0.261-0.995L76.846,5.532z"/>
<path fill-rule="evenodd" clip-rule="evenodd" d="M89.26,8.711c0.026-0.092,0.078-0.248,0.078-0.354
	c0-0.078-0.052-0.117-0.131-0.117c-0.144,0-0.222,0.235-0.275,0.34c-0.641,1.309-1.583,1.204-2.852,1.204
	c-0.222,0-0.536,0.052-0.536-0.262c0-0.118,0.066-0.327,0.105-0.445l1.779-5.795c0.197-0.628,0.275-1.007,1.151-0.994
	c0.131,0,0.392,0.026,0.392-0.17c0-0.144-0.131-0.157-0.249-0.157c-0.51,0.014-1.033,0.053-1.544,0.053
	c-0.405,0-0.811-0.039-1.217-0.053c-0.104,0-0.406-0.065-0.406,0.104c0,0.196,0.183,0.235,0.327,0.223
	c0.275-0.039,0.641-0.053,0.641,0.34c0,0.17-0.105,0.484-0.157,0.642l-1.688,5.507c-0.092,0.288-0.196,0.706-0.445,0.89
	C84.053,9.81,83.765,9.81,83.543,9.81c-0.144,0.014-0.34,0.014-0.34,0.21c0,0.17,0.55,0.091,0.694,0.091h4.461
	c0.458,0,0.471,0,0.602-0.418L89.26,8.711z"/>
<path fill-rule="evenodd" clip-rule="evenodd" d="M92.699,5.545c0.079-0.235,0.222-0.706,0.222-0.941
	c0-0.288-0.092-0.484-0.406-0.484c-0.497,0-1.203,0.642-1.531,0.955c-0.104,0.092-0.654,0.667-0.654,0.838
	c0,0.065,0.026,0.104,0.092,0.104c0.17,0,0.89-1.139,1.347-1.139c0.118,0,0.157,0.131,0.157,0.235c0,0.105-0.092,0.327-0.118,0.432
	l-1.923,6.293c-0.118,0.405-0.262,1.06-0.798,1.06c-0.549,0-0.497-0.812-1.033-0.812c-0.249,0-0.445,0.21-0.445,0.458
	c0,0.497,0.602,0.654,1.007,0.654c0.576,0,1.164-0.288,1.57-0.693c0.523-0.536,0.811-1.348,1.021-2.041L92.699,5.545z M93.628,2.419
	c0-0.248-0.157-0.458-0.418-0.458c-0.379,0-0.667,0.497-0.667,0.824c0,0.262,0.131,0.497,0.406,0.497
	C93.353,3.282,93.628,2.785,93.628,2.419z"/>
<path fill-rule="evenodd" clip-rule="evenodd" d="M98.636,6.775L98.06,8.633c-0.092,0.313-0.235,0.824-0.235,1.151
	c0,0.222,0.079,0.483,0.353,0.483c0.615,0,1.413-0.654,1.792-1.086c0.105-0.117,0.667-0.824,0.667-1.007
	c0-0.053-0.039-0.092-0.092-0.092c-0.065,0-0.118,0.092-0.157,0.145c-0.209,0.353-0.929,1.295-1.374,1.295
	c-0.144,0-0.209-0.145-0.209-0.262c0-0.157,0.065-0.393,0.117-0.55l1.269-4.146c0.026-0.078,0.079-0.223,0.079-0.314
	c0-0.196-0.34-0.131-0.445-0.131c-0.497,0-0.406,0.065-0.549,0.55c-0.406,1.309-1.047,2.473-1.949,3.506
	c-0.366,0.432-1.452,1.504-2.067,1.504c-0.235,0-0.353-0.144-0.353-0.366c0-0.183,0.092-0.457,0.144-0.628l1.047-3.126
	c0.091-0.262,0.196-0.589,0.196-0.863c0-0.275-0.092-0.576-0.418-0.576c-0.484,0-1.138,0.562-1.439,0.863
	c-0.131,0.145-0.707,0.851-0.707,1.073c0,0.052,0.013,0.078,0.065,0.078c0.118,0,0.236-0.209,0.288-0.288
	c0.17-0.248,0.759-1.02,1.099-1.02c0.144,0,0.183,0.104,0.183,0.223c0,0.13-0.105,0.392-0.144,0.51l-1.021,2.97
	c-0.104,0.301-0.249,0.745-0.249,1.06c0,0.393,0.144,0.68,0.562,0.68c0.798,0,1.688-0.667,2.25-1.177
	c0.798-0.72,1.177-1.321,1.779-2.185L98.636,6.775z"/>
<path fill-rule="evenodd" clip-rule="evenodd" d="M106.812,5.872c0,1.57-1.622,4.173-3.349,4.173c-0.536,0-0.968-0.261-0.968-0.837
	c0-1.242,2.237-4.486,3.584-4.486C106.682,4.722,106.812,5.401,106.812,5.872z M102.103,7.22c-0.144,0.484-0.34,1.008-0.34,1.53
	c0,1.034,0.746,1.518,1.727,1.518c2.211,0,4.304-2.197,4.304-4.396c0-0.823-0.38-1.753-1.334-1.753
	c-1.269,0-2.852,1.949-3.427,2.983l1.805-5.979c0-0.092-0.039-0.131-0.117-0.131c-0.052,0-0.105,0.026-0.131,0.053
	c-0.458,0.287-0.824,0.326-1.347,0.326c-0.131,0-0.406,0.026-0.406,0.21c0,0.156,0.379,0.131,0.458,0.131
	c0.209,0,0.353,0.052,0.353,0.301c0,0.157-0.105,0.497-0.157,0.653L102.103,7.22z"/>
<path fill-rule="evenodd" clip-rule="evenodd" d="M108.591,8.607c-0.104,0.34-0.235,0.785-0.235,1.151
	c0,0.301,0.065,0.51,0.405,0.51c0.55,0,1.295-0.759,1.596-1.138c0.131-0.157,0.549-0.693,0.549-0.929
	c0-0.053-0.013-0.092-0.065-0.092c-0.105,0-0.157,0.104-0.196,0.17c-0.157,0.274-0.824,1.19-1.138,1.19
	c-0.131,0-0.183-0.117-0.183-0.223c0-0.183,0.079-0.366,0.131-0.523l2.237-7.299c0.013-0.053,0.079-0.249,0.079-0.314
	c0-0.064-0.039-0.117-0.105-0.117c-0.039,0-0.091,0.039-0.117,0.053c-0.432,0.326-0.981,0.471-1.505,0.496
	c-0.131,0-0.392-0.013-0.392,0.171c0,0.091,0.065,0.144,0.157,0.144l0.209-0.013c0.222-0.014,0.51,0.025,0.51,0.327
	c0,0.117-0.092,0.418-0.131,0.536L108.591,8.607z"/>
<path fill-rule="evenodd" clip-rule="evenodd" d="M114.359,5.545c0.079-0.235,0.222-0.706,0.222-0.941
	c0-0.288-0.091-0.484-0.405-0.484c-0.497,0-1.203,0.642-1.531,0.955c-0.105,0.092-0.654,0.667-0.654,0.838
	c0,0.065,0.026,0.104,0.092,0.104c0.17,0,0.89-1.139,1.347-1.139c0.118,0,0.157,0.131,0.157,0.235c0,0.105-0.092,0.327-0.118,0.432
	l-1.923,6.293c-0.118,0.405-0.262,1.06-0.798,1.06c-0.549,0-0.497-0.812-1.033-0.812c-0.249,0-0.445,0.21-0.445,0.458
	c0,0.497,0.602,0.654,1.007,0.654c0.575,0,1.164-0.288,1.57-0.693c0.523-0.536,0.811-1.348,1.02-2.041L114.359,5.545z
	 M115.288,2.419c0-0.248-0.157-0.458-0.419-0.458c-0.379,0-0.667,0.497-0.667,0.824c0,0.262,0.131,0.497,0.406,0.497
	C115.013,3.282,115.288,2.785,115.288,2.419z"/>
<path fill-rule="evenodd" clip-rule="evenodd" d="M120.505,5.049c0,0.602-1.073,2.093-1.439,2.55
	c-0.458,0.576-1.622,1.976-2.42,1.976c-0.418,0-0.602-0.432-0.602-0.798c0-0.824,0.693-2.146,1.19-2.773
	c0.549-0.719,1.478-1.635,2.433-1.635C120.112,4.368,120.505,4.565,120.505,5.049z M120.701,4.577
	c-0.275-0.353-0.562-0.458-1.007-0.458c-1.19,0-2.368,0.746-3.166,1.583c-0.746,0.785-1.504,2.106-1.504,3.218
	c0,0.642,0.301,1.348,1.033,1.348c1.544,0,3.297-2.498,4.029-3.702l-0.798,2.591c-0.065,0.222-0.144,0.483-0.144,0.732
	c0,0.222,0.118,0.379,0.353,0.379c0.523,0,1.23-0.614,1.557-0.968c0.157-0.17,0.693-0.851,0.693-1.086
	c0-0.053-0.039-0.104-0.092-0.104c-0.092,0-0.183,0.17-0.222,0.235c-0.157,0.249-0.772,1.073-1.099,1.073
	c-0.104,0-0.131-0.092-0.131-0.196c0-0.118,0.078-0.327,0.104-0.432l1.347-4.422c0.013-0.053,0.065-0.196,0.065-0.262
	c0-0.184-0.366-0.118-0.445-0.118c-0.432,0-0.406,0.065-0.536,0.472L120.701,4.577z"/>
<path fill-rule="evenodd" clip-rule="evenodd" d="M129.178,5.807c0.104-0.274,0.249-0.653,0.249-0.954
	c0-0.472-0.366-0.733-0.811-0.733c-1.688,0-3.218,2.303-3.938,3.61l-0.026-0.025l0.562-1.792c0.105-0.354,0.222-0.772,0.222-1.151
	c0-0.38-0.131-0.642-0.536-0.642c-0.549,0-1.229,0.654-1.557,1.047c-0.105,0.104-0.562,0.706-0.562,0.851
	c0,0.065,0.052,0.091,0.104,0.091c0.078,0,0.118-0.078,0.144-0.144c0.157-0.274,0.876-1.151,1.217-1.151
	c0.196,0,0.261,0.145,0.261,0.314c0,0.223-0.092,0.51-0.157,0.719l-1.164,3.808c-0.026,0.065-0.078,0.235-0.078,0.301
	c0,0.222,0.275,0.156,0.406,0.156c0.419,0,0.419-0.065,0.536-0.444c0.314-1.021,1.321-2.76,2.014-3.584
	c0.406-0.472,1.23-1.439,1.923-1.439c0.301,0,0.458,0.17,0.458,0.458c0,0.235-0.105,0.484-0.183,0.706l-0.929,2.473
	c-0.157,0.405-0.353,0.955-0.353,1.399c0,0.38,0.17,0.589,0.562,0.589c0.536,0,1.321-0.759,1.661-1.138
	c0.104-0.104,0.589-0.707,0.589-0.877c0-0.052-0.052-0.092-0.092-0.092c-0.079,0-0.131,0.079-0.157,0.131
	c-0.222,0.327-0.955,1.243-1.374,1.243c-0.157,0-0.248-0.092-0.248-0.262c0-0.183,0.131-0.497,0.196-0.667L129.178,5.807z"/>
<path fill-rule="evenodd" clip-rule="evenodd" d="M134.148,2.419c0-0.248-0.17-0.458-0.432-0.458c-0.379,0-0.667,0.497-0.667,0.837
	c0,0.249,0.131,0.484,0.406,0.484C133.861,3.282,134.148,2.785,134.148,2.419z M131.401,8.594c-0.092,0.313-0.235,0.811-0.235,1.15
	c0,0.301,0.065,0.523,0.405,0.523c0.55,0,1.282-0.759,1.596-1.151c0.131-0.17,0.549-0.706,0.549-0.929
	c0-0.052-0.013-0.092-0.079-0.092c-0.092,0-0.144,0.092-0.183,0.171c-0.157,0.262-0.824,1.19-1.151,1.19
	c-0.118,0-0.17-0.104-0.17-0.235c0-0.171,0.066-0.354,0.118-0.523l0.968-3.14c0.078-0.235,0.222-0.706,0.222-0.955
	c0-0.288-0.092-0.484-0.406-0.484c-0.497,0-1.217,0.642-1.543,0.955c-0.104,0.104-0.641,0.681-0.641,0.851
	c0,0.065,0.026,0.104,0.078,0.104c0.17,0,0.903-1.151,1.347-1.151c0.131,0,0.157,0.131,0.157,0.235c0,0.118-0.079,0.341-0.105,0.445
	L131.401,8.594z"/>
<rect x="59.86" y="89.187" fill-rule="evenodd" clip-rule="evenodd" fill="#B4162C" width="36.978" height="36.979"/>
<path fill-rule="evenodd" clip-rule="evenodd" d="M72.128,87.987H59.859v-7.119h0.229v6.778h12.04V87.987z M74.798,87.988
	l-1.878-0.001v-0.341h1.878V87.988z M78.888,87.988H75.59v-0.342h3.299V87.988z M82.032,87.988H79.68v-0.342h2.352V87.988z
	 M83.334,87.988h-0.51v-0.342h0.51V87.988z M96.847,87.989l-12.721-0.001v-0.342h12.301v-6.405h0.42L96.847,87.989z M96.427,80.491
	l0-8.127h0.42v8.127H96.427z M85.321,71.661h10.943v0.326L85.321,71.661z M77.501,72.726c0.12-0.16,0.457-0.395,0.855-0.395
	c0.498,0,0.902,0.367,0.902,0.497l0.003,2.313h-0.42l-0.002-2.177c0-0.115-0.294-0.441-0.736-0.441
	C77.862,72.524,77.647,72.62,77.501,72.726z M77.214,67.878l1.121-0.824l0.804,0.54c0.232,0.183,0.394,0.436,0.394,0.753v1.256
	h-0.345v-1.26c0-0.271-0.138-0.488-0.337-0.645l-0.688-0.462L77.214,67.878z M79.074,60.876l0.001-1.387l-1.827-0.332h2.17
	l0.001,1.719H79.074z M78.224,57.608v-6.584h0.229v6.584H78.224z M77.088,61.273h2.401l1.816,1.46h-0.48l-1.582-1.291L77.088,61.273
	z M74.912,63.134h6.471l1.246,5.052l-0.344-0.005l-1.218-4.826L74.912,63.134z M59.84,79.51v-7.318h0.229v7.318H59.84z
	 M83.938,87.235h-0.414v-5.994h0.414V87.235z M73.188,80.516h10.149v0.343L73.188,80.516z M94.863,68.611l-1.114-3.149
	l-10.627-0.261h10.893l1.233,3.409L94.863,68.611z M76.011,67.575l2.327-1.499l2.401,1.499v2.401h-0.42v-2.319l-1.981-1.432
	L76.011,67.575z M78.165,64.058c0-0.096,0.077-0.173,0.172-0.173c0.095,0,0.173,0.077,0.173,0.173c0,0.095-0.077,0.172-0.173,0.172
	C78.242,64.23,78.165,64.152,78.165,64.058z M77.889,65.634l0.056-0.272l0.582,0.001l-0.19-0.812l0.462,1.083H77.889z
	 M75.863,65.379c0-0.083,0.068-0.15,0.151-0.15s0.151,0.067,0.151,0.15s-0.067,0.15-0.151,0.15S75.863,65.462,75.863,65.379z
	 M75.71,66.618l0.019-0.224l0.457,0.001l-0.124-0.629l0.363,0.852H75.71z M62.701,75.151l-0.345,0.001l0-1.819l-0.616-0.118h0.962
	V75.151z M72.31,79.511v-7.146h0.409v7.146L72.31,79.511z M61.194,71.661h10.929v0.279L61.194,71.661z M72.316,87.235l0-5.994h0.404
	v5.994H72.316z M61.194,80.512h10.929v0.276L61.194,80.512z M61.585,68.807l1.09-3.578h11.083v0.258H62.842L61.585,68.807z
	 M95.804,80.915L84.27,80.512h11.526L95.804,80.915z M65.575,75.151l-0.345,0.001l0-1.819l-0.616-0.118h0.962V75.151z
	 M68.372,75.151l-0.346,0.001l0-1.819l-0.616-0.118h0.962V75.151z M71.182,75.151l-0.346,0.001l0-1.819l-0.616-0.118h0.962V75.151z
	 M75.217,75.151l-0.345,0.001v-1.819l-0.616-0.118h0.962V75.151z M82.403,75.151l-0.345,0.001l0-1.819l-0.616-0.118h0.962V75.151z
	 M86.101,75.151l-0.345,0.001l0-1.819l-0.616-0.118h0.962V75.151z M88.974,75.151l-0.345,0.001l0-1.819l-0.617-0.118h0.962V75.151z
	 M91.771,75.151l-0.345,0.001l0-1.819l-0.616-0.118h0.962V75.151z M94.581,75.151l-0.345,0.001l0-1.819l-0.616-0.118h0.962V75.151z
	 M62.701,83.819l-0.345,0.001l0-1.819l-0.616-0.118h0.962V83.819z M65.575,83.819l-0.345,0.001l0-1.819l-0.616-0.118h0.962V83.819z
	 M68.372,83.819l-0.346,0.001l0-1.819l-0.616-0.118h0.962V83.819z M71.182,83.819l-0.346,0.001l0-1.819l-0.616-0.118h0.962V83.819z
	 M86.101,83.819l-0.345,0.001l0-1.819l-0.616-0.118h0.962V83.819z M88.974,83.819l-0.345,0.001l0-1.819l-0.617-0.118h0.962V83.819z
	 M91.771,83.819l-0.345,0.001l0-1.819l-0.616-0.118h0.962V83.819z M94.581,83.819l-0.345,0.001l0-1.819l-0.616-0.118h0.962V83.819z
	 M62.701,86.973l-0.345,0.001l0-1.329l-0.616-0.118h0.962V86.973z M65.575,86.973l-0.345,0.001l0-1.329l-0.616-0.118h0.962V86.973z
	 M68.372,86.973l-0.346,0.001l0-1.329l-0.616-0.118h0.962V86.973z M71.182,86.973l-0.346,0.001l0-1.329l-0.616-0.118h0.962V86.973z
	 M86.101,86.973l-0.345,0.001l0-1.329l-0.616-0.118h0.962V86.973z M88.974,86.973l-0.345,0.001l0-1.329l-0.617-0.118h0.962V86.973z
	 M91.771,86.973l-0.345,0.001l0-1.329l-0.616-0.118h0.962V86.973z M94.581,86.973l-0.345,0.001l0-1.329l-0.616-0.118h0.962V86.973z
	 M73.669,70.815l-0.34,0.006v-1.878l-0.579-0.171h0.919V70.815z M73.669,68.176h-0.846v-0.333h0.475l-0.235-1.37L73.669,68.176z
	 M83.917,70.815l-0.34,0.006v-1.878l-0.579-0.171h0.919V70.815z M83.917,68.176h-0.846v-0.333h0.475l-0.235-1.37L83.917,68.176z
	 M96.847,71.118H96.51v-2.209l-0.865-0.338h1.202V71.118z M96.847,68.159h-1.138v-0.322h0.744l-0.301-2.088L96.847,68.159z
	 M60.913,71.118h-0.336l0-2.209l-0.865-0.338h1.202V71.118z M60.913,68.159h-1.138v-0.322h0.744l-0.3-2.088L60.913,68.159z
	 M80.428,65.379c0-0.083,0.067-0.15,0.151-0.15s0.151,0.067,0.151,0.15s-0.067,0.15-0.151,0.15S80.428,65.462,80.428,65.379z
	 M80.261,66.618l0.019-0.224l0.457,0.001l-0.124-0.629l0.363,0.852H80.261z M79.503,87.235h-0.449l-0.003-4.341
	c0.004-0.638-0.438-1.08-0.983-1.08c-0.246,0-0.472,0.09-0.645,0.239c0.212-0.278,0.546-0.458,0.923-0.458
	c0.64,0,1.159,0.519,1.159,1.158L79.503,87.235z M82.596,87.235h-0.358l-0.002-4.113c0.003-0.493-0.305-0.835-0.684-0.835
	c-0.193,0-0.367,0.089-0.492,0.23c0.153-0.24,0.406-0.396,0.691-0.396c0.467,0,0.846,0.421,0.846,0.94L82.596,87.235z
	 M75.385,87.235h-0.358l-0.002-4.113c0.003-0.493-0.305-0.835-0.684-0.835c-0.193,0-0.367,0.089-0.492,0.23
	c0.153-0.24,0.406-0.396,0.691-0.396c0.468,0,0.846,0.421,0.846,0.94L75.385,87.235z M82.412,79.51h-0.331l-0.001-2.104
	c0.001-0.213-0.146-0.359-0.327-0.359c-0.094,0-0.18,0.04-0.24,0.104c0.083-0.146,0.239-0.244,0.419-0.244
	c0.265,0,0.48,0.215,0.48,0.48L82.412,79.51z M78.909,79.51l-0.002-2.081c0.003-0.491-0.337-0.832-0.758-0.832
	c-0.289,0-0.541,0.161-0.669,0.399c0.135-0.355,0.478-0.607,0.881-0.607c0.52,0,0.942,0.421,0.942,0.941L79.3,79.51H78.909z
	 M75.249,79.51h-0.331l-0.001-2.104c0.001-0.213-0.146-0.359-0.327-0.359c-0.095,0-0.18,0.04-0.24,0.104
	c0.083-0.146,0.239-0.244,0.419-0.244c0.265,0,0.48,0.215,0.48,0.48L75.249,79.51z M86.112,79.51h-0.331l-0.001-2.104
	c0.001-0.213-0.146-0.359-0.327-0.359c-0.094,0-0.18,0.04-0.24,0.104c0.083-0.146,0.239-0.244,0.419-0.244
	c0.265,0,0.48,0.215,0.48,0.48L86.112,79.51z M88.95,79.51H88.62l-0.001-2.104c0.001-0.213-0.146-0.359-0.327-0.359
	c-0.094,0-0.18,0.04-0.24,0.104c0.083-0.146,0.239-0.244,0.418-0.244c0.265,0,0.48,0.215,0.48,0.48L88.95,79.51z M91.764,79.51
	h-0.331l-0.001-2.104c0.001-0.213-0.146-0.359-0.327-0.359c-0.095,0-0.18,0.04-0.24,0.104c0.082-0.146,0.239-0.244,0.418-0.244
	c0.265,0,0.48,0.215,0.48,0.48L91.764,79.51z M94.551,79.51h-0.331l-0.001-2.104c0.001-0.213-0.146-0.359-0.327-0.359
	c-0.095,0-0.18,0.04-0.24,0.104c0.082-0.146,0.239-0.244,0.418-0.244c0.265,0,0.48,0.215,0.48,0.48L94.551,79.51z M71.159,79.51
	h-0.33l-0.001-2.104c0.001-0.213-0.146-0.359-0.327-0.359c-0.094,0-0.18,0.04-0.24,0.104c0.083-0.146,0.239-0.244,0.419-0.244
	c0.265,0,0.48,0.215,0.48,0.48L71.159,79.51z M68.371,79.51h-0.33l-0.001-2.104c0.001-0.213-0.146-0.359-0.327-0.359
	c-0.094,0-0.18,0.04-0.24,0.104c0.083-0.146,0.239-0.244,0.418-0.244c0.265,0,0.48,0.215,0.48,0.48L68.371,79.51z M65.558,79.51
	h-0.331l-0.001-2.104c0.001-0.213-0.146-0.359-0.327-0.359c-0.095,0-0.18,0.04-0.24,0.104c0.083-0.146,0.239-0.244,0.419-0.244
	c0.265,0,0.48,0.215,0.48,0.48L65.558,79.51z M62.719,79.51h-0.331l-0.001-2.104c0.001-0.213-0.146-0.359-0.327-0.359
	c-0.094,0-0.18,0.04-0.24,0.104c0.082-0.146,0.239-0.244,0.418-0.244c0.265,0,0.48,0.215,0.48,0.48L62.719,79.51z M70.48,67.764
	c0-0.082,0.066-0.147,0.147-0.147s0.147,0.065,0.147,0.147c0,0.081-0.066,0.146-0.147,0.146S70.48,67.845,70.48,67.764z
	 M71.044,70.011h-0.305v-1.428c0-0.224-0.154-0.378-0.345-0.378c-0.061,0-0.118,0.016-0.168,0.043
	c0.087-0.086,0.206-0.14,0.338-0.14c0.265,0,0.479,0.215,0.479,0.48V70.011z M68.063,67.764c0-0.082,0.066-0.147,0.147-0.147
	s0.147,0.065,0.147,0.147c0,0.081-0.066,0.146-0.147,0.146S68.063,67.845,68.063,67.764z M68.627,70.011h-0.304v-1.428
	c0-0.224-0.154-0.378-0.346-0.378c-0.061,0-0.118,0.016-0.168,0.043c0.087-0.086,0.207-0.14,0.338-0.14
	c0.265,0,0.479,0.215,0.479,0.48V70.011z M65.44,67.764c0-0.082,0.066-0.147,0.147-0.147s0.147,0.065,0.147,0.147
	c0,0.081-0.066,0.146-0.147,0.146S65.44,67.845,65.44,67.764z M66.003,70.011h-0.304v-1.428c0-0.224-0.154-0.378-0.346-0.378
	c-0.061,0-0.118,0.016-0.168,0.043c0.087-0.086,0.207-0.14,0.338-0.14c0.265,0,0.479,0.215,0.479,0.48V70.011z M67.103,66.982
	h-0.266v-0.676c0-0.195-0.135-0.331-0.302-0.331c-0.053,0-0.103,0.014-0.147,0.038c0.076-0.075,0.181-0.122,0.296-0.122
	c0.232,0,0.419,0.188,0.419,0.42V66.982z M69.901,66.982h-0.266v-0.676c0-0.195-0.135-0.331-0.302-0.331
	c-0.053,0-0.103,0.014-0.147,0.038c0.076-0.075,0.18-0.122,0.296-0.122c0.232,0,0.419,0.188,0.419,0.42V66.982z M87.198,66.982
	h-0.266v-0.676c0-0.195-0.135-0.331-0.302-0.331c-0.053,0-0.104,0.014-0.147,0.038c0.076-0.075,0.181-0.122,0.296-0.122
	c0.232,0,0.419,0.188,0.419,0.42V66.982z M85.77,67.764c0-0.082,0.066-0.147,0.147-0.147s0.147,0.065,0.147,0.147
	c0,0.081-0.066,0.146-0.147,0.146S85.77,67.845,85.77,67.764z M86.334,70.011H86.03v-1.428c0-0.224-0.154-0.378-0.345-0.378
	c-0.061,0-0.118,0.016-0.168,0.043c0.087-0.086,0.207-0.14,0.339-0.14c0.265,0,0.479,0.215,0.479,0.48V70.011z M90.043,66.982
	h-0.266v-0.676c0-0.195-0.135-0.331-0.302-0.331c-0.053,0-0.104,0.014-0.147,0.038c0.076-0.075,0.181-0.122,0.296-0.122
	c0.232,0,0.419,0.188,0.419,0.42V66.982z M88.424,67.764c0-0.082,0.066-0.147,0.147-0.147c0.082,0,0.147,0.065,0.147,0.147
	c0,0.081-0.066,0.146-0.147,0.146C88.491,67.91,88.424,67.845,88.424,67.764z M88.988,70.011h-0.305v-1.428
	c0-0.224-0.154-0.378-0.345-0.378c-0.061,0-0.118,0.016-0.168,0.043c0.087-0.086,0.206-0.14,0.338-0.14
	c0.265,0,0.479,0.215,0.479,0.48V70.011z M90.843,67.764c0-0.082,0.066-0.147,0.147-0.147s0.147,0.065,0.147,0.147
	c0,0.081-0.066,0.146-0.147,0.146S90.843,67.845,90.843,67.764z M91.407,70.011h-0.304v-1.428c0-0.224-0.154-0.378-0.345-0.378
	c-0.061,0-0.118,0.016-0.168,0.043c0.087-0.086,0.207-0.14,0.339-0.14c0.265,0,0.479,0.215,0.479,0.48V70.011z M62.18,59.495
	c0-0.088,0.072-0.16,0.16-0.16s0.16,0.072,0.16,0.16c0,0.089-0.072,0.16-0.16,0.16S62.18,59.584,62.18,59.495z M63.136,64.723
	h-0.342l-0.002-1.794c0.003-0.473-0.324-0.8-0.728-0.8c-0.129,0-0.25,0.033-0.356,0.093c0.151-0.122,0.343-0.195,0.552-0.195
	c0.485,0,0.876,0.394,0.876,0.878V64.723z M62.974,61.625h-1.066l0.003-0.348l0.671,0.006l-0.213-1.361L62.974,61.625z
	 M93.749,59.495c0-0.088,0.072-0.16,0.16-0.16c0.088,0,0.16,0.072,0.16,0.16c0,0.089-0.072,0.16-0.16,0.16
	C93.821,59.655,93.749,59.584,93.749,59.495z M94.706,64.723h-0.342l-0.002-1.794c0.003-0.473-0.324-0.8-0.728-0.8
	c-0.129,0-0.25,0.033-0.356,0.093c0.151-0.122,0.343-0.195,0.552-0.195c0.485,0,0.876,0.394,0.876,0.878V64.723z M94.543,61.625
	h-1.066l0.002-0.348l0.671,0.006l-0.213-1.361L94.543,61.625z M78.338,58.003c0.443,0,0.804,0.348,0.826,0.785H78.88
	c-0.06-0.325-0.345-0.57-0.687-0.57c-0.327,0-0.602,0.225-0.677,0.528C77.558,58.329,77.91,58.003,78.338,58.003z M80.868,71.415
	h2.469v0.334l-2.618-0.068c-0.278-0.697-1.31-1.212-2.532-1.212c-1.145,0-2.117,0.455-2.464,1.087
	c0.33-0.693,1.372-1.199,2.607-1.199C79.481,70.357,80.464,70.795,80.868,71.415z M83.938,72.053v7.479h-0.4l-0.012-7.479H83.938z"
	/>
</svg>
